Amiamie-Light.ufo
<glyph name="exclam" format="2">
	<advance width="227"/>
	<unicode hex="0021"/>
	<note>
		exclam
	</note>
	<outline>
		<contour>
			<point x="85" y="154" type="line"/>
			<point x="142" y="154" type="line"/>
			<point x="151" y="690" type="line"/>
			<point x="76" y="690" type="line"/>
		</contour>
		<contour>
			<point x="82" y="83" type="line"/>
			<point x="82" y="-13" type="line"/>
			<point x="146" y="-13" type="line"/>
			<point x="146" y="83" type="line"/>
		</contour>
	</outline>
</glyph>
<glyph name="quotedbl" format="2">
	<advance width="268"/>
	<unicode hex="0022"/>
	<note>
		quotedbl
	</note>
	<outline>
		<contour>
			<point x="69" y="487" type="line"/>
			<point x="119" y="487" type="line"/>
			<point x="126" y="735" type="line"/>
			<point x="62" y="735" type="line"/>
		</contour>
		<contour>
			<point x="184" y="487" type="line"/>
			<point x="233" y="487" type="line"/>
			<point x="241" y="735" type="line"/>
			<point x="176" y="735" type="line"/>
		</contour>
	</outline>
</glyph>
<glyph name="ampersand" format="2">
	<advance width="649"/>
	<unicode hex="0026"/>
	<note>
		ampersand
	</note>
	<outline>
		<contour>
			<point x="621" y="322" type="line"/>
			<point x="621" y="374" type="line"/>
			<point x="519" y="374" type="line"/>
			<point x="519" y="501" type="line"/>
			<point x="457" y="501" type="line"/>
			<point x="457" y="374" type="line"/>
			<point x="379" y="374" type="line" smooth="yes"/>
			<point x="357" y="374"/>
			<point x="336" y="374"/>
			<point x="317" y="375" type="curve" smooth="yes"/>
			<point x="241" y="379"/>
			<point x="167" y="405"/>
			<point x="167" y="513" type="curve" smooth="yes"/>
			<point x="167" y="600"/>
			<point x="233" y="654"/>
			<point x="332" y="654" type="curve" smooth="yes"/>
			<point x="381" y="654"/>
			<point x="414" y="651"/>
			<point x="455" y="643" type="curve"/>
			<point x="455" y="694" type="line"/>
			<point x="417" y="701"/>
			<point x="384" y="704"/>
			<point x="335" y="704" type="curve" smooth="yes"/>
			<point x="195" y="704"/>
			<point x="98" y="624"/>
			<point x="98" y="510" type="curve" smooth="yes"/>
			<point x="98" y="418"/>
			<point x="157" y="365"/>
			<point x="236" y="349" type="curve"/>
			<point x="133" y="331"/>
			<point x="66" y="260"/>
			<point x="66" y="167" type="curve" smooth="yes"/>
			<point x="66" y="25"/>
			<point x="175" y="-14"/>
			<point x="336" y="-14" type="curve" smooth="yes"/>
			<point x="394" y="-14"/>
			<point x="462" y="-7"/>
			<point x="519" y="5" type="curve"/>
			<point x="519" y="322" type="line"/>
		</contour>
		<contour>
			<point x="135" y="176" type="curve" smooth="yes"/>
			<point x="135" y="262"/>
			<point x="203" y="310"/>
			<point x="318" y="320" type="curve" smooth="yes"/>
			<point x="338" y="322"/>
			<point x="357" y="322"/>
			<point x="379" y="322" type="curve" smooth="yes"/>
			<point x="457" y="322" type="line"/>
			<point x="457" y="46" type="line"/>
			<point x="418" y="39"/>
			<point x="379" y="36"/>
			<point x="338" y="36" type="curve" smooth="yes"/>
			<point x="205" y="36"/>
			<point x="135" y="71"/>
		</contour>
	</outline>
</glyph>
<glyph name="comma" format="2">
	<advance width="194"/>
	<unicode hex="002C"/>
	<note>
		comma
	</note>
	<outline>
		<contour>
			<point x="38" y="-119" type="line"/>
			<point x="113" y="63" type="line"/>
			<point x="113" y="72" type="line"/>
			<point x="46" y="72" type="line"/>
			<point x="-20" y="-119" type="line"/>
		</contour>
	</outline>
</glyph>
<glyph name="hyphen" format="2">
	<advance width="274"/>
	<unicode hex="002D"/>
	<note>
		hyphen
	</note>
	<outline>
		<contour>
			<point x="32" y="261" type="line"/>
			<point x="242" y="261" type="line"/>
			<point x="242" y="304" type="line"/>
			<point x="32" y="304" type="line"/>
		</contour>
	</outline>
</glyph>
<glyph name="zero" format="2">
	<advance width="561"/>
	<unicode hex="0030"/>
	<note>
		zero
	</note>
	<outline>
		<contour>
			<point x="281" y="704" type="curve" smooth="yes"/>
			<point x="100" y="704"/>
			<point x="39" y="550"/>
			<point x="39" y="345" type="curve" smooth="yes"/>
			<point x="39" y="141"/>
			<point x="100" y="-14"/>
			<point x="281" y="-14" type="curve" smooth="yes"/>
			<point x="461" y="-14"/>
			<point x="522" y="141"/>
			<point x="522" y="345" type="curve" smooth="yes"/>
			<point x="522" y="549"/>
			<point x="461" y="704"/>
		</contour>
		<contour>
			<point x="281" y="36" type="curve" smooth="yes"/>
			<point x="155" y="36"/>
			<point x="108" y="161"/>
			<point x="108" y="345" type="curve" smooth="yes"/>
			<point x="108" y="530"/>
			<point x="155" y="654"/>
			<point x="281" y="654" type="curve" smooth="yes"/>
			<point x="407" y="654"/>
			<point x="453" y="529"/>
			<point x="453" y="345" type="curve" smooth="yes"/>
			<point x="453" y="161"/>
			<point x="407" y="36"/>
		</contour>
	</outline>
</glyph>
<glyph name="one" format="2">
	<advance width="561"/>
	<unicode hex="0031"/>
	<note>
		one
	</note>
	<outline>
		<contour>
			<point x="385" y="0" type="line"/>
			<point x="385" y="690" type="line"/>
			<point x="346" y="690" type="line" smooth="yes"/>
			<point x="327" y="690"/>
			<point x="309" y="686"/>
			<point x="284" y="670" type="curve" smooth="yes"/>
			<point x="133" y="576" type="line"/>
			<point x="133" y="509" type="line"/>
			<point x="323" y="625" type="line"/>
			<point x="323" y="0" type="line"/>
		</contour>
	</outline>
</glyph>
<glyph name="five" format="2">
	<advance width="561"/>
	<unicode hex="0035"/>
	<note>
		five
	</note>
	<outline>
		<contour>
			<point x="295" y="446" type="curve" smooth="yes"/>
			<point x="247" y="446"/>
			<point x="208" y="434"/>
			<point x="172" y="410" type="curve"/>
			<point x="131" y="363" type="line"/>
			<point x="171" y="637" type="line"/>
			<point x="497" y="637" type="line"/>
			<point x="497" y="689" type="line"/>
			<point x="121" y="689" type="line"/>
			<point x="67" y="291" type="line"/>
			<point x="126" y="291" type="line"/>
			<point x="162" y="366"/>
			<point x="215" y="396"/>
			<point x="286" y="396" type="curve" smooth="yes"/>
			<point x="384" y="396"/>
			<point x="447" y="326"/>
			<point x="447" y="215" type="curve" smooth="yes"/>
			<point x="447" y="98"/>
			<point x="371" y="36"/>
			<point x="278" y="36" type="curve" smooth="yes"/>
			<point x="184" y="36"/>
			<point x="132" y="95"/>
			<point x="118" y="181" type="curve" smooth="yes"/>
			<point x="116" y="191" type="line"/>
			<point x="54" y="191" type="line"/>
			<point x="55" y="181" type="line" smooth="yes"/>
			<point x="69" y="49"/>
			<point x="156" y="-14"/>
			<point x="278" y="-14" type="curve" smooth="yes"/>
			<point x="404" y="-14"/>
			<point x="516" y="71"/>
			<point x="516" y="219" type="curve" smooth="yes"/>
			<point x="516" y="348"/>
			<point x="440" y="446"/>
		</contour>
	</outline>
</glyph>
<glyph name="seven" format="2">
	<advance width="561"/>
	<unicode hex="0037"/>
	<note>
		seven
	</note>
	<outline>
		<contour>
			<point x="523" y="661" type="line"/>
			<point x="523" y="690" type="line"/>
			<point x="48" y="690" type="line"/>
			<point x="48" y="638" type="line"/>
			<point x="445" y="638" type="line"/>
			<point x="104" y="0" type="line"/>
			<point x="171" y="0" type="line"/>
		</contour>
	</outline>
</glyph>
<glyph name="nine" format="2">
	<advance width="561"/>
	<unicode hex="0039"/>
	<note>
		nine
	</note>
	<outline>
		<contour>
			<point x="282" y="704" type="curve" smooth="yes"/>
			<point x="144" y="704"/>
			<point x="44" y="603"/>
			<point x="44" y="463" type="curve" smooth="yes"/>
			<point x="44" y="329"/>
			<point x="126" y="227"/>
			<point x="269" y="227" type="curve" smooth="yes"/>
			<point x="330" y="227"/>
			<point x="381" y="249"/>
			<point x="420" y="293" type="curve"/>
			<point x="453" y="350" type="line"/>
			<point x="446" y="112"/>
			<point x="365" y="36"/>
			<point x="265" y="36" type="curve" smooth="yes"/>
			<point x="185" y="36"/>
			<point x="138" y="80"/>
			<point x="120" y="168" type="curve" smooth="yes"/>
			<point x="118" y="178" type="line"/>
			<point x="52" y="178" type="line"/>
			<point x="54" y="168" type="line" smooth="yes"/>
			<point x="69" y="57"/>
			<point x="142" y="-14"/>
			<point x="261" y="-14" type="curve" smooth="yes"/>
			<point x="406" y="-14"/>
			<point x="518" y="106"/>
			<point x="518" y="383" type="curve" smooth="yes"/>
			<point x="518" y="610"/>
			<point x="429" y="704"/>
		</contour>
		<contour>
			<point x="280" y="277" type="curve" smooth="yes"/>
			<point x="169" y="277"/>
			<point x="113" y="362"/>
			<point x="113" y="470" type="curve" smooth="yes"/>
			<point x="113" y="576"/>
			<point x="181" y="654"/>
			<point x="282" y="654" type="curve" smooth="yes"/>
			<point x="384" y="654"/>
			<point x="446" y="569"/>
			<point x="446" y="462" type="curve" smooth="yes"/>
			<point x="446" y="347"/>
			<point x="370" y="277"/>
		</contour>
	</outline>
</glyph>
<glyph name="colon" format="2">
	<advance width="194"/>
	<unicode hex="003A"/>
	<note>
		colon
	</note>
	<outline>
		<contour>
			<point x="37" y="543" type="line"/>
			<point x="37" y="449" type="line"/>
			<point x="134" y="449" type="line"/>
			<point x="134" y="543" type="line"/>
		</contour>
		<contour>
			<point x="37" y="81" type="line"/>
			<point x="37" y="-13" type="line"/>
			<point x="134" y="-13" type="line"/>
			<point x="134" y="81" type="line"/>
		</contour>
	</outline>
</glyph>
<glyph name="less" format="2">
	<advance width="561"/>
	<unicode hex="003C"/>
	<note>
		less
	</note>
	<outline>
		<contour>
			<point x="139" y="266" type="line"/>
			<point x="492" y="437" type="line"/>
			<point x="492" y="489" type="line"/>
			<point x="91" y="290" type="line"/>
			<point x="91" y="240" type="line"/>
			<point x="492" y="41" type="line"/>
			<point x="492" y="94" type="line"/>
		</contour>
	</outline>
</glyph>
<glyph name="equal" format="2">
	<advance width="561"/>
	<unicode hex="003D"/>
	<note>
		equal
	</note>
	<outline>
		<contour>
			<point x="71" y="391" type="line"/>
			<point x="491" y="391" type="line"/>
			<point x="491" y="434" type="line"/>
			<point x="71" y="434" type="line"/>
		</contour>
		<contour>
			<point x="71" y="198" type="line"/>
			<point x="491" y="198" type="line"/>
			<point x="491" y="241" type="line"/>
			<point x="71" y="241" type="line"/>
		</contour>
	</outline>
</glyph>
<glyph name="greater" format="2">
	<advance width="561"/>
	<unicode hex="003E"/>
	<note>
		greater
	</note>
	<outline>
		<contour>
			<point x="465" y="240" type="line"/>
			<point x="465" y="290" type="line"/>
			<point x="64" y="489" type="line"/>
			<point x="64" y="436" type="line"/>
			<point x="417" y="265" type="line"/>
			<point x="64" y="93" type="line"/>
			<point x="64" y="41" type="line"/>
		</contour>
	</outline>
</glyph>
<glyph name="at" format="2">
	<advance width="852"/>
	<unicode hex="0040"/>
	<note>
		at
	</note>
	<outline>
		<contour>
			<point x="563" y="222" type="curve" smooth="yes"/>
			<point x="621" y="465" type="line"/>
			<point x="561" y="465" type="line"/>
			<point x="544" y="400" type="line"/>
			<point x="531" y="451" type="line"/>
			<point x="514" y="471"/>
			<point x="485" y="483"/>
			<point x="448" y="483" type="curve" smooth="yes"/>
			<point x="323" y="483"/>
			<point x="233" y="359"/>
			<point x="233" y="224" type="curve" smooth="yes"/>
			<point x="233" y="103"/>
			<point x="307" y="67"/>
			<point x="367" y="67" type="curve" smooth="yes"/>
			<point x="407" y="67"/>
			<point x="442" y="82"/>
			<point x="475" y="117" type="curve"/>
			<point x="494" y="156" type="line"/>
			<point x="500" y="97"/>
			<point x="544" y="75"/>
			<point x="596" y="75" type="curve" smooth="yes"/>
			<point x="691" y="75"/>
			<point x="793" y="156"/>
			<point x="793" y="334" type="curve" smooth="yes"/>
			<point x="793" y="530"/>
			<point x="661" y="664"/>
			<point x="469" y="664" type="curve" smooth="yes"/>
			<point x="268" y="664"/>
			<point x="57" y="507"/>
			<point x="57" y="243" type="curve" smooth="yes"/>
			<point x="57" y="9"/>
			<point x="223" y="-104"/>
			<point x="396" y="-104" type="curve" smooth="yes"/>
			<point x="483" y="-104"/>
			<point x="574" y="-84"/>
			<point x="677" y="-15" type="curve"/>
			<point x="657" y="23" type="line"/>
			<point x="575" y="-36"/>
			<point x="487" y="-60"/>
			<point x="398" y="-60" type="curve" smooth="yes"/>
			<point x="241" y="-60"/>
			<point x="104" y="43"/>
			<point x="104" y="245" type="curve" smooth="yes"/>
			<point x="104" y="483"/>
			<point x="295" y="620"/>
			<point x="465" y="620" type="curve" smooth="yes"/>
			<point x="623" y="620"/>
			<point x="745" y="518"/>
			<point x="745" y="331" type="curve" smooth="yes"/>
			<point x="745" y="193"/>
			<point x="679" y="119"/>
			<point x="609" y="119" type="curve" smooth="yes"/>
			<point x="570" y="119"/>
			<point x="555" y="140"/>
			<point x="555" y="169" type="curve" smooth="yes"/>
			<point x="555" y="181"/>
			<point x="557" y="195"/>
		</contour>
		<contour>
			<point x="520" y="301" type="curve" smooth="yes"/>
			<point x="511" y="262" type="line" smooth="yes"/>
			<point x="490" y="172"/>
			<point x="439" y="116"/>
			<point x="382" y="116" type="curve" smooth="yes"/>
			<point x="335" y="116"/>
			<point x="301" y="149"/>
			<point x="301" y="230" type="curve" smooth="yes"/>
			<point x="301" y="337"/>
			<point x="363" y="434"/>
			<point x="450" y="434" type="curve" smooth="yes"/>
			<point x="505" y="434"/>
			<point x="540" y="390"/>
		</contour>
	</outline>
</glyph>
<glyph name="B" format="2">
	<advance width="612"/>
	<unicode hex="0042"/>
	<note>
		B
	</note>
	<outline>
		<contour>
			<point x="425" y="366" type="curve"/>
			<point x="500" y="387"/>
			<point x="548" y="437"/>
			<point x="548" y="521" type="curve" smooth="yes"/>
			<point x="548" y="618"/>
			<point x="483" y="675"/>
			<point x="376" y="687" type="curve" smooth="yes"/>
			<point x="342" y="690"/>
			<point x="321" y="690"/>
			<point x="291" y="690" type="curve" smooth="yes"/>
			<point x="99" y="690" type="line"/>
			<point x="99" y="0" type="line"/>
			<point x="309" y="0" type="line" smooth="yes"/>
			<point x="338" y="0"/>
			<point x="359" y="0"/>
			<point x="390" y="4" type="curve" smooth="yes"/>
			<point x="485" y="15"/>
			<point x="573" y="76"/>
			<point x="573" y="196" type="curve" smooth="yes"/>
			<point x="573" y="290"/>
			<point x="522" y="345"/>
		</contour>
		<contour>
			<point x="161" y="385" type="line"/>
			<point x="161" y="638" type="line"/>
			<point x="295" y="638" type="line" smooth="yes"/>
			<point x="315" y="638"/>
			<point x="334" y="638"/>
			<point x="354" y="637" type="curve" smooth="yes"/>
			<point x="423" y="631"/>
			<point x="481" y="598"/>
			<point x="481" y="514" type="curve" smooth="yes"/>
			<point x="481" y="435"/>
			<point x="432" y="396"/>
			<point x="361" y="388" type="curve" smooth="yes"/>
			<point x="340" y="386"/>
			<point x="323" y="385"/>
			<point x="306" y="385" type="curve" smooth="yes"/>
		</contour>
		<contour>
			<point x="370" y="53" type="curve" smooth="yes"/>
			<point x="357" y="52"/>
			<point x="339" y="52"/>
			<point x="323" y="52" type="curve" smooth="yes"/>
			<point x="161" y="52" type="line"/>
			<point x="161" y="334" type="line"/>
			<point x="317" y="334" type="line" smooth="yes"/>
			<point x="333" y="334"/>
			<point x="348" y="333"/>
			<point x="371" y="331" type="curve" smooth="yes"/>
			<point x="463" y="323"/>
			<point x="507" y="272"/>
			<point x="507" y="190" type="curve" smooth="yes"/>
			<point x="507" y="102"/>
			<point x="443" y="59"/>
		</contour>
	</outline>
</glyph>
<glyph name="F" format="2">
	<advance width="554"/>
	<unicode hex="0046"/>
	<note>
		F
	</note>
	<outline>
		<contour>
			<point x="161" y="371" type="line"/>
			<point x="161" y="639" type="line"/>
			<point x="536" y="639" type="line"/>
			<point x="536" y="690" type="line"/>
			<point x="99" y="690" type="line"/>
			<point x="99" y="0" type="line"/>
			<point x="161" y="0" type="line"/>
			<point x="161" y="319" type="line"/>
			<point x="500" y="319" type="line"/>
			<point x="500" y="371" type="line"/>
		</contour>
	</outline>
</glyph>
<glyph name="L" format="2">
	<advance width="562"/>
	<unicode hex="004C"/>
	<note>
		L
	</note>
	<outline>
		<contour>
			<point x="546" y="0" type="line"/>
			<point x="546" y="51" type="line"/>
			<point x="161" y="51" type="line"/>
			<point x="161" y="690" type="line"/>
			<point x="99" y="690" type="line"/>
			<point x="99" y="0" type="line"/>
		</contour>
	</outline>
</glyph>
<glyph name="N" format="2">
	<advance width="688"/>
	<unicode hex="004E"/>
	<note>
		N
	</note>
	<outline>
		<contour>
			<point x="517" y="0" type="line"/>
			<point x="612" y="0" type="line"/>
			<point x="611" y="690" type="line"/>
			<point x="550" y="690" type="line"/>
			<point x="550" y="334" type="line" smooth="yes"/>
			<point x="550" y="248"/>
			<point x="551" y="146"/>
			<point x="553" y="60" type="curve"/>
			<point x="193" y="690" type="line"/>
			<point x="99" y="690" type="line"/>
			<point x="99" y="0" type="line"/>
			<point x="161" y="0" type="line"/>
			<point x="161" y="356" type="line" smooth="yes"/>
			<point x="161" y="442"/>
			<point x="160" y="545"/>
			<point x="158" y="630" type="curve"/>
		</contour>
	</outline>
</glyph>
<glyph name="Q" format="2">
	<advance width="726"/>
	<unicode hex="0051"/>
	<note>
		Q
	</note>
	<outline>
		<contour>
			<point x="690" y="345" type="curve" smooth="yes"/>
			<point x="690" y="555"/>
			<point x="571" y="704"/>
			<point x="369" y="704" type="curve" smooth="yes"/>
			<point x="168" y="704"/>
			<point x="49" y="555"/>
			<point x="49" y="345" type="curve" smooth="yes"/>
			<point x="49" y="137"/>
			<point x="168" y="-14"/>
			<point x="369" y="-14" type="curve" smooth="yes"/>
			<point x="396" y="-14"/>
			<point x="418" y="-12"/>
			<point x="440" y="-7" type="curve" smooth="yes"/>
			<point x="468" y="-1"/>
			<point x="485" y="2"/>
			<point x="511" y="2" type="curve" smooth="yes"/>
			<point x="552" y="2"/>
			<point x="586" y="-8"/>
			<point x="648" y="-52" type="curve"/>
			<point x="684" y="-9" type="line"/>
			<point x="640" y="28"/>
			<point x="600" y="50"/>
			<point x="550" y="55" type="curve"/>
			<point x="649" y="121"/>
			<point x="690" y="229"/>
		</contour>
		<contour>
			<point x="118" y="345" type="curve" smooth="yes"/>
			<point x="118" y="539"/>
			<point x="221" y="654"/>
			<point x="369" y="654" type="curve" smooth="yes"/>
			<point x="518" y="654"/>
			<point x="621" y="539"/>
			<point x="621" y="345" type="curve" smooth="yes"/>
			<point x="621" y="152"/>
			<point x="518" y="36"/>
			<point x="369" y="36" type="curve" smooth="yes"/>
			<point x="221" y="36"/>
			<point x="118" y="152"/>
		</contour>
	</outline>
</glyph>
<glyph name="T" format="2">
	<advance width="600"/>
	<unicode hex="0054"/>
	<note>
		T
	</note>
	<outline>
		<contour>
			<point x="348" y="639" type="line"/>
			<point x="601" y="639" type="line"/>
			<point x="601" y="690" type="line"/>
			<point x="33" y="690" type="line"/>
			<point x="33" y="639" type="line"/>
			<point x="286" y="639" type="line"/>
			<point x="286" y="0" type="line"/>
			<point x="348" y="0" type="line"/>
		</contour>
	</outline>
</glyph>
<glyph name="backslash" format="2">
	<advance width="288"/>
	<unicode hex="005C"/>
	<note>
		backslash
	</note>
	<outline>
		<contour>
			<point x="246" y="-30" type="line"/>
			<point x="293" y="-30" type="line"/>
			<point x="42" y="720" type="line"/>
			<point x="-5" y="720" type="line"/>
		</contour>
	</outline>
</glyph>
<glyph name="asciicircum" format="2">
	<advance width="561"/>
	<unicode hex="005E"/>
	<note>
		asciicircum
	</note>
	<outline>
		<contour>
			<point x="282" y="573" type="line"/>
			<point x="430" y="215" type="line"/>
			<point x="482" y="215" type="line"/>
			<point x="308" y="616" type="line"/>
			<point x="255" y="616" type="line"/>
			<point x="81" y="215" type="line"/>
			<point x="134" y="215" type="line"/>
		</contour>
	</outline>
</glyph>
<glyph name="underscore" format="2">
	<advance width="500"/>
	<unicode hex="005F"/>
	<note>
		underscore
	</note>
	<outline>
		<contour>
			<point x="50" y="-84" type="line"/>
			<point x="450" y="-84" type="line"/>
			<point x="450" y="-41" type="line"/>
			<point x="50" y="-41" type="line"/>
		</contour>
	</outline>
</glyph>
<glyph name="e" format="2">
	<advance width="539"/>
	<unicode hex="0065"/>
	<note>
		e
	</note>
	<outline>
		<contour>
			<point x="500" y="279" type="curve" smooth="yes"/>
			<point x="500" y="425"/>
			<point x="423" y="543"/>
			<point x="275" y="543" type="curve" smooth="yes"/>
			<point x="136" y="543"/>
			<point x="30" y="434"/>
			<point x="30" y="264" type="curve" smooth="yes"/>
			<point x="30" y="78"/>
			<point x="133" y="-14"/>
			<point x="265" y="-14" type="curve" smooth="yes"/>
			<point x="371" y="-14"/>
			<point x="468" y="44"/>
			<point x="493" y="167" type="curve"/>
			<point x="428" y="167" type="line"/>
			<point x="409" y="80"/>
			<point x="343" y="35"/>
			<point x="269" y="35" type="curve" smooth="yes"/>
			<point x="183" y="35"/>
			<point x="104" y="90"/>
			<point x="97" y="246" type="curve"/>
			<point x="498" y="246" type="line"/>
			<point x="500" y="262"/>
			<point x="500" y="272"/>
		</contour>
		<contour>
			<point x="273" y="493" type="curve" smooth="yes"/>
			<point x="362" y="493"/>
			<point x="430" y="431"/>
			<point x="437" y="295" type="curve"/>
			<point x="97" y="295" type="line"/>
			<point x="106" y="427"/>
			<point x="186" y="493"/>
		</contour>
	</outline>
</glyph>
<glyph name="g" format="2">
	<advance width="588"/>
	<unicode hex="0067"/>
	<note>
		g
	</note>
	<outline>
		<contour>
			<point x="513" y="134" type="curve" smooth="yes"/>
			<point x="513" y="530" type="line"/>
			<point x="451" y="530" type="line"/>
			<point x="451" y="438" type="line"/>
			<point x="418" y="495" type="line"/>
			<point x="385" y="527"/>
			<point x="334" y="543"/>
			<point x="282" y="543" type="curve" smooth="yes"/>
			<point x="148" y="543"/>
			<point x="30" y="450"/>
			<point x="30" y="258" type="curve" smooth="yes"/>
			<point x="30" y="101"/>
			<point x="118" y="-14"/>
			<point x="266" y="-14" type="curve" smooth="yes"/>
			<point x="327" y="-14"/>
			<point x="379" y="3"/>
			<point x="416" y="40" type="curve"/>
			<point x="451" y="98" type="line"/>
			<point x="451" y="85" type="line" smooth="yes"/>
			<point x="451" y="57"/>
			<point x="451" y="36"/>
			<point x="450" y="7" type="curve" smooth="yes"/>
			<point x="446" y="-98"/>
			<point x="386" y="-165"/>
			<point x="274" y="-165" type="curve" smooth="yes"/>
			<point x="185" y="-165"/>
			<point x="122" y="-123"/>
			<point x="113" y="-45" type="curve" smooth="yes"/>
			<point x="111" y="-33" type="line"/>
			<point x="49" y="-33" type="line"/>
			<point x="50" y="-45" type="line" smooth="yes"/>
			<point x="63" y="-160"/>
			<point x="143" y="-214"/>
			<point x="274" y="-214" type="curve" smooth="yes"/>
			<point x="419" y="-214"/>
			<point x="507" y="-131"/>
			<point x="512" y="10" type="curve" smooth="yes"/>
			<point x="513" y="41"/>
			<point x="513" y="82"/>
		</contour>
		<contour>
			<point x="275" y="35" type="curve" smooth="yes"/>
			<point x="159" y="35"/>
			<point x="98" y="139"/>
			<point x="98" y="266" type="curve" smooth="yes"/>
			<point x="98" y="409"/>
			<point x="176" y="493"/>
			<point x="282" y="493" type="curve" smooth="yes"/>
			<point x="360" y="493"/>
			<point x="451" y="442"/>
			<point x="451" y="292" type="curve" smooth="yes"/>
			<point x="451" y="252" type="line" smooth="yes"/>
			<point x="451" y="92"/>
			<point x="369" y="35"/>
		</contour>
	</outline>
</glyph>
<glyph name="k" format="2">
	<advance width="498"/>
	<unicode hex="006B"/>
	<note>
		k
	</note>
	<outline>
		<contour>
			<point x="183" y="237" type="line"/>
			<point x="403" y="0" type="line"/>
			<point x="489" y="0" type="line"/>
			<point x="228" y="276" type="line"/>
			<point x="487" y="529" type="line"/>
			<point x="406" y="529" type="line"/>
			<point x="135" y="254" type="line"/>
			<point x="135" y="735" type="line"/>
			<point x="73" y="735" type="line"/>
			<point x="73" y="0" type="line"/>
			<point x="135" y="0" type="line"/>
			<point x="135" y="186" type="line"/>
		</contour>
	</outline>
</glyph>
<glyph name="t" format="2">
	<advance width="284"/>
	<unicode hex="0074"/>
	<note>
		t
	</note>
	<outline>
		<contour>
			<point x="153" y="145" type="curve" smooth="yes"/>
			<point x="153" y="477" type="line"/>
			<point x="254" y="477" type="line"/>
			<point x="254" y="525" type="line"/>
			<point x="153" y="525" type="line"/>
			<point x="153" y="642" type="line"/>
			<point x="91" y="642" type="line"/>
			<point x="91" y="525" type="line"/>
			<point x="23" y="525" type="line"/>
			<point x="23" y="477" type="line"/>
			<point x="91" y="477" type="line"/>
			<point x="91" y="144" type="line" smooth="yes"/>
			<point x="91" y="114"/>
			<point x="91" y="94"/>
			<point x="92" y="76" type="curve" smooth="yes"/>
			<point x="97" y="18"/>
			<point x="128" y="-8"/>
			<point x="187" y="-8" type="curve" smooth="yes"/>
			<point x="208" y="-8"/>
			<point x="230" y="-7"/>
			<point x="251" y="-3" type="curve"/>
			<point x="251" y="43" type="line"/>
			<point x="180" y="34"/>
			<point x="158" y="47"/>
			<point x="154" y="98" type="curve" smooth="yes"/>
			<point x="153" y="112"/>
			<point x="153" y="123"/>
		</contour>
	</outline>
</glyph>
<glyph name="v" format="2">
	<advance width="497"/>
	<unicode hex="0076"/>
	<note>
		v
	</note>
	<outline>
		<contour>
			<point x="286" y="0" type="line"/>
			<point x="490" y="529" type="line"/>
			<point x="424" y="529" type="line"/>
			<point x="250" y="46" type="line"/>
			<point x="74" y="529" type="line"/>
			<point x="6" y="529" type="line"/>
			<point x="209" y="0" type="line"/>
		</contour>
	</outline>
</glyph>
<glyph name="w" format="2">
	<advance width="759"/>
	<unicode hex="0077"/>
	<note>
		w
	</note>
	<outline>
		<contour>
			<point x="585" y="0" type="line"/>
			<point x="752" y="529" type="line"/>
			<point x="686" y="529" type="line"/>
			<point x="551" y="62" type="line"/>
			<point x="421" y="528" type="line"/>
			<point x="342" y="528" type="line"/>
			<point x="213" y="57" type="line"/>
			<point x="77" y="529" type="line"/>
			<point x="6" y="529" type="line"/>
			<point x="174" y="0" type="line"/>
			<point x="250" y="0" type="line"/>
			<point x="380" y="466" type="line"/>
			<point x="510" y="0" type="line"/>
		</contour>
	</outline>
</glyph>
<glyph name="y" format="2">
	<advance width="492"/>
	<unicode hex="0079"/>
	<note>
		y
	</note>
	<outline>
		<contour>
			<point x="273" y="-28" type="curve" smooth="yes"/>
			<point x="485" y="529" type="line"/>
			<point x="417" y="529" type="line"/>
			<point x="247" y="46" type="line"/>
			<point x="76" y="529" type="line"/>
			<point x="6" y="529" type="line"/>
			<point x="215" y="-20" type="line"/>
			<point x="204" y="-48" type="line" smooth="yes"/>
			<point x="170" y="-133"/>
			<point x="134" y="-158"/>
			<point x="86" y="-158" type="curve" smooth="yes"/>
			<point x="75" y="-158"/>
			<point x="65" y="-158"/>
			<point x="52" y="-156" type="curve"/>
			<point x="52" y="-207" type="line"/>
			<point x="64" y="-210"/>
			<point x="75" y="-210"/>
			<point x="93" y="-210" type="curve" smooth="yes"/>
			<point x="168" y="-210"/>
			<point x="219" y="-168"/>
		</contour>
	</outline>
</glyph>
<glyph name="z" format="2">
	<advance width="455"/>
	<unicode hex="007A"/>
	<note>
		z
	</note>
	<outline>
		<contour>
			<point x="429" y="0" type="line"/>
			<point x="429" y="50" type="line"/>
			<point x="92" y="50" type="line"/>
			<point x="425" y="472" type="line"/>
			<point x="425" y="523" type="line"/>
			<point x="41" y="523" type="line"/>
			<point x="41" y="473" type="line"/>
			<point x="351" y="473" type="line"/>
			<point x="17" y="48" type="line"/>
			<point x="17" y="0" type="line"/>
		</contour>
	</outline>
</glyph>
<glyph name="braceright" format="2">
	<advance width="300"/>
	<unicode hex="007D"/>
	<note>
		braceright
	</note>
	<outline>
		<contour>
			<point x="231" y="328" type="curve"/>
			<point x="231" y="372" type="line"/>
			<point x="171" y="378"/>
			<point x="150" y="411"/>
			<point x="150" y="455" type="curve" smooth="yes"/>
			<point x="150" y="482"/>
			<point x="152" y="509"/>
			<point x="160" y="565" type="curve" smooth="yes"/>
			<point x="170" y="632"/>
			<point x="172" y="651"/>
			<point x="172" y="672" type="curve" smooth="yes"/>
			<point x="172" y="755"/>
			<point x="120" y="780"/>
			<point x="38" y="780" type="curve" smooth="yes"/>
			<point x="25" y="780" type="line"/>
			<point x="25" y="737" type="line"/>
			<point x="39" y="737" type="line" smooth="yes"/>
			<point x="100" y="737"/>
			<point x="127" y="718"/>
			<point x="127" y="673" type="curve" smooth="yes"/>
			<point x="127" y="650"/>
			<point x="125" y="635"/>
			<point x="117" y="575" type="curve" smooth="yes"/>
			<point x="107" y="507"/>
			<point x="104" y="481"/>
			<point x="104" y="453" type="curve" smooth="yes"/>
			<point x="104" y="400"/>
			<point x="134" y="356"/>
			<point x="193" y="349" type="curve"/>
			<point x="134" y="342"/>
			<point x="104" y="300"/>
			<point x="104" y="247" type="curve" smooth="yes"/>
			<point x="104" y="219"/>
			<point x="107" y="194"/>
			<point x="117" y="125" type="curve" smooth="yes"/>
			<point x="125" y="65"/>
			<point x="127" y="50"/>
			<point x="127" y="27" type="curve" smooth="yes"/>
			<point x="127" y="-18"/>
			<point x="100" y="-37"/>
			<point x="39" y="-37" type="curve" smooth="yes"/>
			<point x="25" y="-37" type="line"/>
			<point x="25" y="-80" type="line"/>
			<point x="38" y="-80" type="line" smooth="yes"/>
			<point x="120" y="-80"/>
			<point x="172" y="-55"/>
			<point x="172" y="28" type="curve" smooth="yes"/>
			<point x="172" y="49"/>
			<point x="170" y="68"/>
			<point x="160" y="135" type="curve" smooth="yes"/>
			<point x="152" y="191"/>
			<point x="150" y="219"/>
			<point x="150" y="245" type="curve" smooth="yes"/>
			<point x="150" y="289"/>
			<point x="171" y="322"/>
		</contour>
	</outline>
</glyph>
<glyph name="asciitilde" format="2">
	<advance width="561"/>
	<unicode hex="007E"/>
	<note>
		asciitilde
	</note>
	<outline>
		<contour>
			<point x="492" y="354" type="curve"/>
			<point x="449" y="354" type="line"/>
			<point x="449" y="301"/>
			<point x="435" y="270"/>
			<point x="394" y="270" type="curve" smooth="yes"/>
			<point x="365" y="270"/>
			<point x="339" y="283"/>
			<point x="291" y="309" type="curve" smooth="yes"/>
			<point x="232" y="341"/>
			<point x="209" y="352"/>
			<point x="170" y="352" type="curve" smooth="yes"/>
			<point x="104" y="352"/>
			<point x="69" y="310"/>
			<point x="69" y="225" type="curve"/>
			<point x="112" y="225" type="line"/>
			<point x="112" y="278"/>
			<point x="126" y="309"/>
			<point x="167" y="309" type="curve" smooth="yes"/>
			<point x="196" y="309"/>
			<point x="223" y="296"/>
			<point x="270" y="270" type="curve" smooth="yes"/>
			<point x="329" y="238"/>
			<point x="352" y="227"/>
			<point x="391" y="227" type="curve" smooth="yes"/>
			<point x="457" y="227"/>
			<point x="492" y="269"/>
		</contour>
	</outline>
</glyph>
<glyph name="currency" format="2">
	<advance width="561"/>
	<unicode hex="00A4"/>
	<note>
		currency
	</note>
	<outline>
		<contour>
			<point x="459" y="301" type="curve" smooth="yes"/>
			<point x="459" y="344"/>
			<point x="445" y="382"/>
			<point x="422" y="412" type="curve"/>
			<point x="481" y="472" type="line"/>
			<point x="450" y="503" type="line"/>
			<point x="390" y="444" type="line"/>
			<point x="360" y="467"/>
			<point x="323" y="481"/>
			<point x="281" y="481" type="curve" smooth="yes"/>
			<point x="239" y="481"/>
			<point x="202" y="468"/>
			<point x="171" y="444" type="curve"/>
			<point x="112" y="503" type="line"/>
			<point x="81" y="472" type="line"/>
			<point x="139" y="413" type="line"/>
			<point x="116" y="382"/>
			<point x="102" y="344"/>
			<point x="102" y="301" type="curve" smooth="yes"/>
			<point x="102" y="259"/>
			<point x="116" y="220"/>
			<point x="139" y="190" type="curve"/>
			<point x="81" y="132" type="line"/>
			<point x="112" y="100" type="line"/>
			<point x="171" y="158" type="line"/>
			<point x="201" y="135"/>
			<point x="239" y="121"/>
			<point x="281" y="121" type="curve" smooth="yes"/>
			<point x="323" y="121"/>
			<point x="361" y="135"/>
			<point x="391" y="158" type="curve"/>
			<point x="450" y="100" type="line"/>
			<point x="481" y="131" type="line"/>
			<point x="422" y="190" type="line"/>
			<point x="445" y="221"/>
			<point x="459" y="259"/>
		</contour>
		<contour>
			<point x="281" y="165" type="curve" smooth="yes"/>
			<point x="205" y="165"/>
			<point x="150" y="223"/>
			<point x="150" y="301" type="curve" smooth="yes"/>
			<point x="150" y="379"/>
			<point x="205" y="437"/>
			<point x="281" y="437" type="curve" smooth="yes"/>
			<point x="356" y="437"/>
			<point x="411" y="379"/>
			<point x="411" y="301" type="curve" smooth="yes"/>
			<point x="411" y="223"/>
			<point x="356" y="165"/>
		</contour>
	</outline>
</glyph>
<glyph name="yen" format="2">
	<advance width="561"/>
	<unicode hex="00A5"/>
	<note>
		yen
	</note>
	<outline>
		<contour>
			<point x="482" y="351" type="line"/>
			<point x="341" y="351" type="line"/>
			<point x="538" y="690" type="line"/>
			<point x="465" y="690" type="line"/>
			<point x="283" y="354" type="line"/>
			<point x="100" y="690" type="line"/>
			<point x="22" y="690" type="line"/>
			<point x="219" y="351" type="line"/>
			<point x="79" y="351" type="line"/>
			<point x="79" y="309" type="line"/>
			<point x="244" y="309" type="line"/>
			<point x="250" y="298" type="line"/>
			<point x="250" y="239" type="line"/>
			<point x="79" y="239" type="line"/>
			<point x="79" y="196" type="line"/>
			<point x="250" y="196" type="line"/>
			<point x="250" y="0" type="line"/>
			<point x="312" y="0" type="line"/>
			<point x="312" y="196" type="line"/>
			<point x="482" y="196" type="line"/>
			<point x="482" y="239" type="line"/>
			<point x="312" y="239" type="line"/>
			<point x="312" y="300" type="line"/>
			<point x="317" y="309" type="line"/>
			<point x="482" y="309" type="line"/>
		</contour>
	</outline>
</glyph>
<glyph name="dieresis" format="2">
	<advance width="300"/>
	<unicode hex="00A8"/>
	<note>
		dieresis
	</note>
	<outline>
		<contour>
			<point x="58" y="669" type="line"/>
			<point x="58" y="597" type="line"/>
			<point x="130" y="597" type="line"/>
			<point x="130" y="669" type="line"/>
		</contour>
		<contour>
			<point x="172" y="669" type="line"/>
			<point x="172" y="597" type="line"/>
			<point x="244" y="597" type="line"/>
			<point x="244" y="669" type="line"/>
		</contour>
	</outline>
</glyph>
<glyph name="copyright" format="2">
	<advance width="838"/>
	<unicode hex="00A9"/>
	<note>
		copyright
	</note>
	<outline>
		<contour>
			<point x="419" y="737" type="curve" smooth="yes"/>
			<point x="209" y="737"/>
			<point x="44" y="570"/>
			<point x="44" y="355" type="curve" smooth="yes"/>
			<point x="44" y="140"/>
			<point x="209" y="-27"/>
			<point x="419" y="-27" type="curve" smooth="yes"/>
			<point x="630" y="-27"/>
			<point x="795" y="140"/>
			<point x="795" y="355" type="curve" smooth="yes"/>
			<point x="795" y="570"/>
			<point x="630" y="737"/>
		</contour>
		<contour>
			<point x="419" y="693" type="curve" smooth="yes"/>
			<point x="603" y="693"/>
			<point x="748" y="545"/>
			<point x="748" y="355" type="curve" smooth="yes"/>
			<point x="748" y="165"/>
			<point x="603" y="18"/>
			<point x="419" y="18" type="curve" smooth="yes"/>
			<point x="235" y="18"/>
			<point x="91" y="165"/>
			<point x="91" y="355" type="curve" smooth="yes"/>
			<point x="91" y="545"/>
			<point x="235" y="693"/>
		</contour>
		<contour>
			<point x="424" y="578" type="curve" smooth="yes"/>
			<point x="307" y="578"/>
			<point x="222" y="493"/>
			<point x="222" y="354" type="curve" smooth="yes"/>
			<point x="222" y="220"/>
			<point x="305" y="133"/>
			<point x="416" y="133" type="curve" smooth="yes"/>
			<point x="524" y="133"/>
			<point x="587" y="192"/>
			<point x="608" y="285" type="curve"/>
			<point x="542" y="285" type="line"/>
			<point x="531" y="224"/>
			<point x="487" y="184"/>
			<point x="422" y="184" type="curve" smooth="yes"/>
			<point x="343" y="184"/>
			<point x="290" y="254"/>
			<point x="290" y="356" type="curve" smooth="yes"/>
			<point x="290" y="454"/>
			<point x="338" y="527"/>
			<point x="424" y="527" type="curve" smooth="yes"/>
			<point x="496" y="527"/>
			<point x="532" y="485"/>
			<point x="543" y="425" type="curve"/>
			<point x="609" y="425" type="line"/>
			<point x="592" y="519"/>
			<point x="524" y="578"/>
		</contour>
	</outline>
</glyph>
<glyph name="guillemotleft" format="2">
	<advance width="536"/>
	<unicode hex="00AB"/>
	<note>
		guillemotleft
	</note>
	<outline>
		<contour>
			<point x="184" y="248" type="line"/>
			<point x="321" y="414" type="line"/>
			<point x="264" y="414" type="line"/>
			<point x="127" y="248" type="line"/>
			<point x="264" y="82" type="line"/>
			<point x="321" y="82" type="line"/>
		</contour>
		<contour>
			<point x="335" y="248" type="line"/>
			<point x="472" y="414" type="line"/>
			<point x="415" y="414" type="line"/>
			<point x="278" y="248" type="line"/>
			<point x="415" y="82" type="line"/>
			<point x="472" y="82" type="line"/>
		</contour>
	</outline>
</glyph>
<glyph name="logicalnot" format="2">
	<advance width="561"/>
	<unicode hex="00AC"/>
	<note>
		logicalnot
	</note>
	<outline>
		<contour>
			<point x="413" y="210" type="line"/>
			<point x="457" y="210" type="line"/>
			<point x="457" y="377" type="line"/>
			<point x="95" y="377" type="line"/>
			<point x="95" y="334" type="line"/>
			<point x="413" y="334" type="line"/>
		</contour>
	</outline>
</glyph>
<glyph name="registered" format="2">
	<advance width="513"/>
	<unicode hex="00AE"/>
	<note>
		registered
	</note>
	<outline>
		<contour>
			<point x="257" y="764" type="curve" smooth="yes"/>
			<point x="134" y="764"/>
			<point x="47" y="677"/>
			<point x="47" y="554" type="curve" smooth="yes"/>
			<point x="47" y="431"/>
			<point x="134" y="344"/>
			<point x="257" y="344" type="curve" smooth="yes"/>
			<point x="380" y="344"/>
			<point x="467" y="431"/>
			<point x="467" y="554" type="curve" smooth="yes"/>
			<point x="467" y="677"/>
			<point x="380" y="764"/>
		</contour>
		<contour>
			<point x="257" y="381" type="curve" smooth="yes"/>
			<point x="156" y="381"/>
			<point x="85" y="453"/>
			<point x="85" y="554" type="curve" smooth="yes"/>
			<point x="85" y="656"/>
			<point x="156" y="727"/>
			<point x="257" y="727" type="curve" smooth="yes"/>
			<point x="357" y="727"/>
			<point x="428" y="656"/>
			<point x="428" y="554" type="curve" smooth="yes"/>
			<point x="428" y="453"/>
			<point x="357" y="381"/>
		</contour>
		<contour>
			<point x="297" y="552" type="curve"/>
			<point x="321" y="559"/>
			<point x="339" y="576"/>
			<point x="339" y="602" type="curve" smooth="yes"/>
			<point x="339" y="638"/>
			<point x="313" y="654"/>
			<point x="276" y="658" type="curve" smooth="yes"/>
			<point x="267" y="659"/>
			<point x="259" y="659"/>
			<point x="251" y="659" type="curve" smooth="yes"/>
			<point x="188" y="659" type="line"/>
			<point x="188" y="455" type="line"/>
			<point x="227" y="455" type="line"/>
			<point x="227" y="528" type="line"/>
			<point x="257" y="528" type="line" smooth="yes"/>
			<point x="274" y="528"/>
			<point x="284" y="521"/>
			<point x="287" y="503" type="curve" smooth="yes"/>
			<point x="289" y="481"/>
			<point x="293" y="467"/>
			<point x="297" y="455" type="curve"/>
			<point x="341" y="455" type="line"/>
			<point x="336" y="466"/>
			<point x="330" y="483"/>
			<point x="326" y="509" type="curve" smooth="yes"/>
			<point x="324" y="530"/>
			<point x="316" y="547"/>
		</contour>
		<contour>
			<point x="250" y="562" type="curve" smooth="yes"/>
			<point x="227" y="562" type="line"/>
			<point x="227" y="627" type="line"/>
			<point x="253" y="627" type="line" smooth="yes"/>
			<point x="261" y="627"/>
			<point x="265" y="627"/>
			<point x="271" y="626" type="curve" smooth="yes"/>
			<point x="285" y="623"/>
			<point x="297" y="614"/>
			<point x="297" y="594" type="curve" smooth="yes"/>
			<point x="297" y="576"/>
			<point x="287" y="566"/>
			<point x="270" y="563" type="curve" smooth="yes"/>
			<point x="264" y="562"/>
			<point x="259" y="562"/>
		</contour>
	</outline>
</glyph>
<glyph name="macron" format="2">
	<advance width="300"/>
	<unicode hex="00AF"/>
	<note>
		macron
	</note>
	<outline>
		<contour>
			<point x="49" y="610" type="line"/>
			<point x="251" y="610" type="line"/>
			<point x="251" y="650" type="line"/>
			<point x="49" y="650" type="line"/>
		</contour>
	</outline>
</glyph>
<glyph name="degree" format="2">
	<advance width="290"/>
	<unicode hex="00B0"/>
	<note>
		degree
	</note>
	<outline>
		<contour>
			<point x="145" y="704" type="curve" smooth="yes"/>
			<point x="78" y="704"/>
			<point x="31" y="658"/>
			<point x="31" y="592" type="curve" smooth="yes"/>
			<point x="31" y="525"/>
			<point x="78" y="480"/>
			<point x="145" y="480" type="curve" smooth="yes"/>
			<point x="211" y="480"/>
			<point x="259" y="525"/>
			<point x="259" y="592" type="curve" smooth="yes"/>
			<point x="259" y="658"/>
			<point x="211" y="704"/>
		</contour>
		<contour>
			<point x="145" y="661" type="curve" smooth="yes"/>
			<point x="184" y="661"/>
			<point x="211" y="633"/>
			<point x="211" y="592" type="curve" smooth="yes"/>
			<point x="211" y="551"/>
			<point x="184" y="522"/>
			<point x="145" y="522" type="curve" smooth="yes"/>
			<point x="106" y="522"/>
			<point x="78" y="551"/>
			<point x="78" y="592" type="curve" smooth="yes"/>
			<point x="78" y="633"/>
			<point x="106" y="661"/>
		</contour>
	</outline>
</glyph>
<glyph name="acute" format="2">
	<advance width="300"/>
	<unicode hex="00B4"/>
	<note>
		acute
	</note>
	<outline>
		<contour>
			<point x="124" y="580" type="line"/>
			<point x="166" y="580" type="line"/>
			<point x="245" y="690" type="line"/>
			<point x="185" y="690" type="line"/>
		</contour>
	</outline>
</glyph>
<glyph name="guillemotright" format="2">
	<advance width="536"/>
	<unicode hex="00BB"/>
	<note>
		guillemotright
	</note>
	<outline>
		<contour>
			<point x="121" y="82" type="line"/>
			<point x="258" y="248" type="line"/>
			<point x="121" y="414" type="line"/>
			<point x="65" y="414" type="line"/>
			<point x="202" y="248" type="line"/>
			<point x="65" y="82" type="line"/>
		</contour>
		<contour>
			<point x="272" y="82" type="line"/>
			<point x="409" y="248" type="line"/>
			<point x="272" y="414" type="line"/>
			<point x="216" y="414" type="line"/>
			<point x="353" y="248" type="line"/>
			<point x="216" y="82" type="line"/>
		</contour>
	</outline>
</glyph>
<glyph name="questiondown" format="2">
	<advance width="484"/>
	<unicode hex="00BF"/>
	<note>
		questiondown
	</note>
	<outline>
		<contour>
			<point x="270" y="-176" type="curve" smooth="yes"/>
			<point x="397" y="-176"/>
			<point x="485" y="-92"/>
			<point x="489" y="34" type="curve"/>
			<point x="424" y="34" type="line"/>
			<point x="418" y="-66"/>
			<point x="361" y="-126"/>
			<point x="272" y="-126" type="curve" smooth="yes"/>
			<point x="189" y="-126"/>
			<point x="137" y="-75"/>
			<point x="137" y="5" type="curve" smooth="yes"/>
			<point x="137" y="67"/>
			<point x="162" y="112"/>
			<point x="228" y="184" type="curve" smooth="yes"/>
			<point x="299" y="259"/>
			<point x="315" y="296"/>
			<point x="319" y="374" type="curve"/>
			<point x="258" y="374" type="line"/>
			<point x="256" y="306"/>
			<point x="241" y="274"/>
			<point x="169" y="203" type="curve" smooth="yes"/>
			<point x="103" y="139"/>
			<point x="68" y="76"/>
			<point x="68" y="5" type="curve" smooth="yes"/>
			<point x="68" y="-96"/>
			<point x="139" y="-176"/>
		</contour>
		<contour>
			<point x="256" y="543" type="line"/>
			<point x="256" y="447" type="line"/>
			<point x="320" y="447" type="line"/>
			<point x="320" y="543" type="line"/>
		</contour>
	</outline>
</glyph>
<glyph name="Agrave" format="2">
	<advance width="630"/>
	<unicode hex="00C0"/>
	<note>
		Agrave
	</note>
	<outline>
		<contour>
			<point x="237" y="830" type="line"/>
			<point x="309" y="736" type="line"/>
			<point x="351" y="736" type="line"/>
			<point x="298" y="830" type="line"/>
		</contour>
		<contour>
			<point x="187" y="253" type="line"/>
			<point x="462" y="253" type="line"/>
			<point x="552" y="0" type="line"/>
			<point x="619" y="0" type="line"/>
			<point x="370" y="690" type="line"/>
			<point x="287" y="690" type="line"/>
			<point x="32" y="0" type="line"/>
			<point x="98" y="0" type="line"/>
		</contour>
		<contour>
			<point x="444" y="305" type="line"/>
			<point x="205" y="305" type="line"/>
			<point x="327" y="640" type="line"/>
		</contour>
	</outline>
</glyph>
<glyph name="Ccedilla" format="2">
	<advance width="691"/>
	<unicode hex="00C7"/>
	<note>
		Ccedilla
	</note>
	<outline>
		<contour>
			<point x="641" y="229" type="line"/>
			<point x="579" y="229" type="line"/>
			<point x="577" y="219" type="line" smooth="yes"/>
			<point x="556" y="113"/>
			<point x="488" y="36"/>
			<point x="360" y="36" type="curve" smooth="yes"/>
			<point x="220" y="36"/>
			<point x="118" y="153"/>
			<point x="118" y="345" type="curve" smooth="yes"/>
			<point x="118" y="533"/>
			<point x="225" y="654"/>
			<point x="367" y="654" type="curve" smooth="yes"/>
			<point x="490" y="654"/>
			<point x="559" y="580"/>
			<point x="580" y="475" type="curve" smooth="yes"/>
			<point x="582" y="465" type="line"/>
			<point x="644" y="465" type="line"/>
			<point x="643" y="475" type="line" smooth="yes"/>
			<point x="625" y="606"/>
			<point x="536" y="704"/>
			<point x="370" y="704" type="curve" smooth="yes"/>
			<point x="181" y="704"/>
			<point x="49" y="554"/>
			<point x="49" y="342" type="curve" smooth="yes"/>
			<point x="49" y="144"/>
			<point x="154" y="2"/>
			<point x="325" y="-13" type="curve"/>
			<point x="292" y="-75" type="line"/>
			<point x="361" y="-70"/>
			<point x="389" y="-90"/>
			<point x="389" y="-126" type="curve" smooth="yes"/>
			<point x="389" y="-158"/>
			<point x="363" y="-176"/>
			<point x="321" y="-176" type="curve" smooth="yes"/>
			<point x="299" y="-176"/>
			<point x="283" y="-173"/>
			<point x="268" y="-165" type="curve"/>
			<point x="268" y="-201" type="line"/>
			<point x="282" y="-207"/>
			<point x="299" y="-210"/>
			<point x="319" y="-210" type="curve" smooth="yes"/>
			<point x="383" y="-210"/>
			<point x="434" y="-182"/>
			<point x="434" y="-125" type="curve" smooth="yes"/>
			<point x="434" y="-77"/>
			<point x="403" y="-50"/>
			<point x="350" y="-44" type="curve"/>
			<point x="367" y="-14" type="line"/>
			<point x="536" y="-10"/>
			<point x="622" y="95"/>
			<point x="640" y="219" type="curve" smooth="yes"/>
		</contour>
	</outline>
</glyph>
<glyph name="Ecircumflex" format="2">
	<advance width="576"/>
	<unicode hex="00CA"/>
	<note>
		Ecircumflex
	</note>
	<outline>
		<contour>
			<point x="231" y="736" type="line"/>
			<point x="280" y="736" type="line"/>
			<point x="319" y="802" type="line"/>
			<point x="358" y="736" type="line"/>
			<point x="409" y="736" type="line"/>
			<point x="342" y="830" type="line"/>
			<point x="297" y="830" type="line"/>
		</contour>
		<contour>
			<point x="546" y="0" type="line"/>
			<point x="546" y="51" type="line"/>
			<point x="161" y="51" type="line"/>
			<point x="161" y="319" type="line"/>
			<point x="510" y="319" type="line"/>
			<point x="510" y="371" type="line"/>
			<point x="161" y="371" type="line"/>
			<point x="161" y="639" type="line"/>
			<point x="536" y="639" type="line"/>
			<point x="536" y="690" type="line"/>
			<point x="99" y="690" type="line"/>
			<point x="99" y="0" type="line"/>
		</contour>
	</outline>
</glyph>
<glyph name="Edieresis" format="2">
	<advance width="576"/>
	<unicode hex="00CB"/>
	<note>
		Edieresis
	</note>
	<outline>
		<contour>
			<point x="546" y="0" type="line"/>
			<point x="546" y="51" type="line"/>
			<point x="161" y="51" type="line"/>
			<point x="161" y="319" type="line"/>
			<point x="510" y="319" type="line"/>
			<point x="510" y="371" type="line"/>
			<point x="161" y="371" type="line"/>
			<point x="161" y="639" type="line"/>
			<point x="536" y="639" type="line"/>
			<point x="536" y="690" type="line"/>
			<point x="99" y="690" type="line"/>
			<point x="99" y="0" type="line"/>
		</contour>
		<contour>
			<point x="226" y="819" type="line"/>
			<point x="226" y="747" type="line"/>
			<point x="298" y="747" type="line"/>
			<point x="298" y="819" type="line"/>
		</contour>
		<contour>
			<point x="340" y="819" type="line"/>
			<point x="340" y="747" type="line"/>
			<point x="412" y="747" type="line"/>
			<point x="412" y="819" type="line"/>
		</contour>
	</outline>
</glyph>
<glyph name="Igrave" format="2">
	<advance width="236"/>
	<unicode hex="00CC"/>
	<note>
		Igrave
	</note>
	<outline>
		<contour>
			<point x="110" y="736" type="line"/>
			<point x="152" y="736" type="line"/>
			<point x="99" y="830" type="line"/>
			<point x="38" y="830" type="line"/>
		</contour>
		<contour>
			<point x="99" y="0" type="line"/>
			<point x="161" y="0" type="line"/>
			<point x="161" y="690" type="line"/>
			<point x="99" y="690" type="line"/>
		</contour>
	</outline>
</glyph>
<glyph name="Iacute" format="2">
	<advance width="236"/>
	<unicode hex="00CD"/>
	<note>
		Iacute
	</note>
	<outline>
		<contour>
			<point x="104" y="736" type="line"/>
			<point x="146" y="736" type="line"/>
			<point x="218" y="830" type="line"/>
			<point x="158" y="830" type="line"/>
		</contour>
		<contour>
			<point x="99" y="0" type="line"/>
			<point x="161" y="0" type="line"/>
			<point x="161" y="690" type="line"/>
			<point x="99" y="690" type="line"/>
		</contour>
	</outline>
</glyph>
<glyph name="Eth" format="2">
	<advance width="695"/>
	<unicode hex="00D0"/>
	<note>
		Eth
	</note>
	<outline>
		<contour>
			<point x="384" y="687" type="curve" smooth="yes"/>
			<point x="353" y="690"/>
			<point x="337" y="690"/>
			<point x="302" y="690" type="curve" smooth="yes"/>
			<point x="96" y="690" type="line"/>
			<point x="96" y="355" type="line"/>
			<point x="36" y="355" type="line"/>
			<point x="36" y="312" type="line"/>
			<point x="96" y="312" type="line"/>
			<point x="96" y="0" type="line"/>
			<point x="299" y="0" type="line" smooth="yes"/>
			<point x="334" y="0"/>
			<point x="352" y="0"/>
			<point x="387" y="4" type="curve" smooth="yes"/>
			<point x="521" y="21"/>
			<point x="657" y="133"/>
			<point x="657" y="351" type="curve" smooth="yes"/>
			<point x="657" y="571"/>
			<point x="524" y="671"/>
		</contour>
		<contour>
			<point x="380" y="56" type="curve" smooth="yes"/>
			<point x="354" y="52"/>
			<point x="330" y="52"/>
			<point x="295" y="52" type="curve" smooth="yes"/>
			<point x="158" y="52" type="line"/>
			<point x="158" y="312" type="line"/>
			<point x="312" y="312" type="line"/>
			<point x="312" y="355" type="line"/>
			<point x="158" y="355" type="line"/>
			<point x="158" y="638" type="line"/>
			<point x="299" y="638" type="line" smooth="yes"/>
			<point x="335" y="638"/>
			<point x="356" y="638"/>
			<point x="378" y="635" type="curve" smooth="yes"/>
			<point x="492" y="619"/>
			<point x="589" y="528"/>
			<point x="589" y="351" type="curve" smooth="yes"/>
			<point x="589" y="172"/>
			<point x="494" y="73"/>
		</contour>
	</outline>
</glyph>
<glyph name="Ocircumflex" format="2">
	<advance width="728"/>
	<unicode hex="00D4"/>
	<note>
		Ocircumflex
	</note>
	<outline>
		<contour>
			<point x="281" y="736" type="line"/>
			<point x="330" y="736" type="line"/>
			<point x="369" y="802" type="line"/>
			<point x="408" y="736" type="line"/>
			<point x="459" y="736" type="line"/>
			<point x="392" y="830" type="line"/>
			<point x="347" y="830" type="line"/>
		</contour>
		<contour>
			<point x="369" y="704" type="curve" smooth="yes"/>
			<point x="168" y="704"/>
			<point x="49" y="555"/>
			<point x="49" y="345" type="curve" smooth="yes"/>
			<point x="49" y="137"/>
			<point x="168" y="-14"/>
			<point x="369" y="-14" type="curve" smooth="yes"/>
			<point x="571" y="-14"/>
			<point x="690" y="137"/>
			<point x="690" y="345" type="curve" smooth="yes"/>
			<point x="690" y="555"/>
			<point x="571" y="704"/>
		</contour>
		<contour>
			<point x="369" y="36" type="curve" smooth="yes"/>
			<point x="221" y="36"/>
			<point x="118" y="152"/>
			<point x="118" y="345" type="curve" smooth="yes"/>
			<point x="118" y="539"/>
			<point x="221" y="654"/>
			<point x="369" y="654" type="curve" smooth="yes"/>
			<point x="518" y="654"/>
			<point x="621" y="539"/>
			<point x="621" y="345" type="curve" smooth="yes"/>
			<point x="621" y="152"/>
			<point x="518" y="36"/>
		</contour>
	</outline>
</glyph>
<glyph name="Odieresis" format="2">
	<advance width="728"/>
	<unicode hex="00D6"/>
	<note>
		Odieresis
	</note>
	<outline>
		<contour>
			<point x="369" y="704" type="curve" smooth="yes"/>
			<point x="168" y="704"/>
			<point x="49" y="555"/>
			<point x="49" y="345" type="curve" smooth="yes"/>
			<point x="49" y="137"/>
			<point x="168" y="-14"/>
			<point x="369" y="-14" type="curve" smooth="yes"/>
			<point x="571" y="-14"/>
			<point x="690" y="137"/>
			<point x="690" y="345" type="curve" smooth="yes"/>
			<point x="690" y="555"/>
			<point x="571" y="704"/>
		</contour>
		<contour>
			<point x="369" y="36" type="curve" smooth="yes"/>
			<point x="221" y="36"/>
			<point x="118" y="152"/>
			<point x="118" y="345" type="curve" smooth="yes"/>
			<point x="118" y="539"/>
			<point x="221" y="654"/>
			<point x="369" y="654" type="curve" smooth="yes"/>
			<point x="518" y="654"/>
			<point x="621" y="539"/>
			<point x="621" y="345" type="curve" smooth="yes"/>
			<point x="621" y="152"/>
			<point x="518" y="36"/>
		</contour>
		<contour>
			<point x="279" y="819" type="line"/>
			<point x="279" y="747" type="line"/>
			<point x="351" y="747" type="line"/>
			<point x="351" y="819" type="line"/>
		</contour>
		<contour>
			<point x="393" y="819" type="line"/>
			<point x="393" y="747" type="line"/>
			<point x="465" y="747" type="line"/>
			<point x="465" y="819" type="line"/>
		</contour>
	</outline>
</glyph>
<glyph name="Thorn" format="2">
	<advance width="634"/>
	<unicode hex="00DE"/>
	<note>
		Thorn
	</note>
	<outline>
		<contour>
			<point x="386" y="586" type="curve" smooth="yes"/>
			<point x="355" y="590"/>
			<point x="328" y="591"/>
			<point x="293" y="591" type="curve" smooth="yes"/>
			<point x="161" y="591" type="line"/>
			<point x="161" y="690" type="line"/>
			<point x="99" y="690" type="line"/>
			<point x="99" y="0" type="line"/>
			<point x="161" y="0" type="line"/>
			<point x="161" y="211" type="line"/>
			<point x="293" y="211" type="line" smooth="yes"/>
			<point x="328" y="211"/>
			<point x="355" y="211"/>
			<point x="386" y="215" type="curve" smooth="yes"/>
			<point x="484" y="228"/>
			<point x="558" y="290"/>
			<point x="558" y="404" type="curve" smooth="yes"/>
			<point x="558" y="516"/>
			<point x="484" y="574"/>
		</contour>
		<contour>
			<point x="377" y="269" type="curve" smooth="yes"/>
			<point x="353" y="265"/>
			<point x="326" y="264"/>
			<point x="293" y="264" type="curve" smooth="yes"/>
			<point x="161" y="264" type="line"/>
			<point x="161" y="538" type="line"/>
			<point x="293" y="538" type="line" smooth="yes"/>
			<point x="326" y="538"/>
			<point x="353" y="537"/>
			<point x="377" y="533" type="curve" smooth="yes"/>
			<point x="439" y="522"/>
			<point x="491" y="487"/>
			<point x="491" y="402" type="curve" smooth="yes"/>
			<point x="491" y="316"/>
			<point x="439" y="279"/>
		</contour>
	</outline>
</glyph>
<glyph name="aacute" format="2">
	<advance width="517"/>
	<unicode hex="00E1"/>
	<note>
		aacute
	</note>
	<outline>
		<contour>
			<point x="235" y="580" type="line"/>
			<point x="277" y="580" type="line"/>
			<point x="356" y="690" type="line"/>
			<point x="296" y="690" type="line"/>
		</contour>
		<contour>
			<point x="381" y="96" type="line"/>
			<point x="390" y="0" type="line"/>
			<point x="452" y="0" type="line"/>
			<point x="445" y="63"/>
			<point x="442" y="101"/>
			<point x="442" y="148" type="curve" smooth="yes"/>
			<point x="442" y="333" type="line" smooth="yes"/>
			<point x="442" y="358"/>
			<point x="442" y="380"/>
			<point x="440" y="403" type="curve" smooth="yes"/>
			<point x="432" y="490"/>
			<point x="377" y="543"/>
			<point x="260" y="543" type="curve" smooth="yes"/>
			<point x="148" y="543"/>
			<point x="69" y="476"/>
			<point x="62" y="372" type="curve"/>
			<point x="127" y="372" type="line"/>
			<point x="135" y="454"/>
			<point x="187" y="493"/>
			<point x="260" y="493" type="curve" smooth="yes"/>
			<point x="336" y="493"/>
			<point x="373" y="458"/>
			<point x="378" y="397" type="curve" smooth="yes"/>
			<point x="380" y="376"/>
			<point x="380" y="356"/>
			<point x="380" y="332" type="curve" smooth="yes"/>
			<point x="380" y="313" type="line"/>
			<point x="346" y="313" type="line" smooth="yes"/>
			<point x="155" y="313"/>
			<point x="40" y="254"/>
			<point x="40" y="133" type="curve" smooth="yes"/>
			<point x="40" y="37"/>
			<point x="110" y="-14"/>
			<point x="208" y="-14" type="curve" smooth="yes"/>
			<point x="266" y="-14"/>
			<point x="318" y="3"/>
			<point x="355" y="40" type="curve"/>
		</contour>
		<contour>
			<point x="227" y="35" type="curve" smooth="yes"/>
			<point x="150" y="35"/>
			<point x="108" y="71"/>
			<point x="108" y="138" type="curve" smooth="yes"/>
			<point x="108" y="240"/>
			<point x="231" y="275"/>
			<point x="380" y="265" type="curve"/>
			<point x="380" y="204" type="line" smooth="yes"/>
			<point x="380" y="105"/>
			<point x="319" y="35"/>
		</contour>
	</outline>
</glyph>
<glyph name="atilde" format="2">
	<advance width="517"/>
	<unicode hex="00E3"/>
	<note>
		atilde
	</note>
	<outline>
		<contour>
			<point x="209" y="632" type="curve" smooth="yes"/>
			<point x="218" y="632"/>
			<point x="230" y="628"/>
			<point x="254" y="620" type="curve" smooth="yes"/>
			<point x="281" y="611"/>
			<point x="296" y="607"/>
			<point x="314" y="607" type="curve" smooth="yes"/>
			<point x="343" y="607"/>
			<point x="360" y="622"/>
			<point x="360" y="667" type="curve"/>
			<point x="329" y="667" type="line"/>
			<point x="329" y="652"/>
			<point x="323" y="647"/>
			<point x="313" y="647" type="curve" smooth="yes"/>
			<point x="304" y="647"/>
			<point x="292" y="650"/>
			<point x="268" y="658" type="curve" smooth="yes"/>
			<point x="241" y="667"/>
			<point x="226" y="671"/>
			<point x="208" y="671" type="curve" smooth="yes"/>
			<point x="179" y="671"/>
			<point x="162" y="656"/>
			<point x="162" y="611" type="curve"/>
			<point x="193" y="611" type="line"/>
			<point x="193" y="626"/>
			<point x="199" y="632"/>
		</contour>
		<contour>
			<point x="381" y="96" type="line"/>
			<point x="390" y="0" type="line"/>
			<point x="452" y="0" type="line"/>
			<point x="445" y="63"/>
			<point x="442" y="101"/>
			<point x="442" y="148" type="curve" smooth="yes"/>
			<point x="442" y="333" type="line" smooth="yes"/>
			<point x="442" y="358"/>
			<point x="442" y="380"/>
			<point x="440" y="403" type="curve" smooth="yes"/>
			<point x="432" y="490"/>
			<point x="377" y="543"/>
			<point x="260" y="543" type="curve" smooth="yes"/>
			<point x="148" y="543"/>
			<point x="69" y="476"/>
			<point x="62" y="372" type="curve"/>
			<point x="127" y="372" type="line"/>
			<point x="135" y="454"/>
			<point x="187" y="493"/>
			<point x="260" y="493" type="curve" smooth="yes"/>
			<point x="336" y="493"/>
			<point x="373" y="458"/>
			<point x="378" y="397" type="curve" smooth="yes"/>
			<point x="380" y="376"/>
			<point x="380" y="356"/>
			<point x="380" y="332" type="curve" smooth="yes"/>
			<point x="380" y="313" type="line"/>
			<point x="346" y="313" type="line" smooth="yes"/>
			<point x="155" y="313"/>
			<point x="40" y="254"/>
			<point x="40" y="133" type="curve" smooth="yes"/>
			<point x="40" y="37"/>
			<point x="110" y="-14"/>
			<point x="208" y="-14" type="curve" smooth="yes"/>
			<point x="266" y="-14"/>
			<point x="318" y="3"/>
			<point x="355" y="40" type="curve"/>
		</contour>
		<contour>
			<point x="227" y="35" type="curve" smooth="yes"/>
			<point x="150" y="35"/>
			<point x="108" y="71"/>
			<point x="108" y="138" type="curve" smooth="yes"/>
			<point x="108" y="240"/>
			<point x="231" y="275"/>
			<point x="380" y="265" type="curve"/>
			<point x="380" y="204" type="line" smooth="yes"/>
			<point x="380" y="105"/>
			<point x="319" y="35"/>
		</contour>
	</outline>
</glyph>
<glyph name="igrave" format="2">
	<advance width="210"/>
	<unicode hex="00EC"/>
	<note>
		igrave
	</note>
	<outline>
		<contour>
			<point x="80" y="580" type="line"/>
			<point x="123" y="580" type="line"/>
			<point x="62" y="690" type="line"/>
			<point x="1" y="690" type="line"/>
		</contour>
		<contour>
			<point x="73" y="0" type="line"/>
			<point x="135" y="0" type="line"/>
			<point x="135" y="529" type="line"/>
			<point x="73" y="529" type="line"/>
		</contour>
	</outline>
</glyph>
<glyph name="iacute" format="2">
	<advance width="210"/>
	<unicode hex="00ED"/>
	<note>
		iacute
	</note>
	<outline>
		<contour>
			<point x="78" y="580" type="line"/>
			<point x="120" y="580" type="line"/>
			<point x="199" y="690" type="line"/>
			<point x="139" y="690" type="line"/>
		</contour>
		<contour>
			<point x="73" y="0" type="line"/>
			<point x="135" y="0" type="line"/>
			<point x="135" y="529" type="line"/>
			<point x="73" y="529" type="line"/>
		</contour>
	</outline>
</glyph>
<glyph name="idieresis" format="2">
	<advance width="210"/>
	<unicode hex="00EF"/>
	<note>
		idieresis
	</note>
	<outline>
		<contour>
			<point x="73" y="0" type="line"/>
			<point x="135" y="0" type="line"/>
			<point x="135" y="529" type="line"/>
			<point x="73" y="529" type="line"/>
		</contour>
		<contour>
			<point x="10" y="670" type="line"/>
			<point x="10" y="598" type="line"/>
			<point x="82" y="598" type="line"/>
			<point x="82" y="670" type="line"/>
		</contour>
		<contour>
			<point x="124" y="670" type="line"/>
			<point x="124" y="598" type="line"/>
			<point x="196" y="598" type="line"/>
			<point x="196" y="670" type="line"/>
		</contour>
	</outline>
</glyph>
<glyph name="eth" format="2">
	<advance width="561"/>
	<unicode hex="00F0"/>
	<note>
		eth
	</note>
	<outline>
		<contour>
			<point x="418" y="653" type="curve"/>
			<point x="470" y="674" type="line"/>
			<point x="454" y="714" type="line"/>
			<point x="385" y="685" type="line"/>
			<point x="354" y="710"/>
			<point x="319" y="730"/>
			<point x="277" y="745" type="curve"/>
			<point x="238" y="703" type="line"/>
			<point x="272" y="693"/>
			<point x="301" y="679"/>
			<point x="327" y="662" type="curve"/>
			<point x="199" y="609" type="line"/>
			<point x="215" y="569" type="line"/>
			<point x="364" y="630" type="line"/>
			<point x="406" y="587"/>
			<point x="431" y="527"/>
			<point x="438" y="447" type="curve"/>
			<point x="392" y="509" type="line"/>
			<point x="354" y="534"/>
			<point x="318" y="544"/>
			<point x="269" y="544" type="curve" smooth="yes"/>
			<point x="134" y="544"/>
			<point x="30" y="431"/>
			<point x="30" y="257" type="curve" smooth="yes"/>
			<point x="30" y="102"/>
			<point x="111" y="-14"/>
			<point x="266" y="-14" type="curve" smooth="yes"/>
			<point x="403" y="-14"/>
			<point x="514" y="77"/>
			<point x="514" y="307" type="curve" smooth="yes"/>
			<point x="514" y="469"/>
			<point x="484" y="579"/>
		</contour>
		<contour>
			<point x="447" y="297" type="curve" smooth="yes"/>
			<point x="447" y="271" type="line" smooth="yes"/>
			<point x="447" y="116"/>
			<point x="374" y="35"/>
			<point x="271" y="35" type="curve" smooth="yes"/>
			<point x="165" y="35"/>
			<point x="98" y="120"/>
			<point x="98" y="264" type="curve" smooth="yes"/>
			<point x="98" y="407"/>
			<point x="174" y="495"/>
			<point x="275" y="495" type="curve" smooth="yes"/>
			<point x="364" y="495"/>
			<point x="447" y="430"/>
		</contour>
	</outline>
</glyph>
<glyph name="ocircumflex" format="2">
	<advance width="574"/>
	<unicode hex="00F4"/>
	<note>
		ocircumflex
	</note>
	<outline>
		<contour>
			<point x="199" y="580" type="line"/>
			<point x="247" y="580" type="line"/>
			<point x="287" y="655" type="line"/>
			<point x="328" y="580" type="line"/>
			<point x="377" y="580" type="line"/>
			<point x="310" y="690" type="line"/>
			<point x="265" y="690" type="line"/>
		</contour>
		<contour>
			<point x="287" y="543" type="curve" smooth="yes"/>
			<point x="119" y="543"/>
			<point x="30" y="420"/>
			<point x="30" y="264" type="curve" smooth="yes"/>
			<point x="30" y="109"/>
			<point x="119" y="-14"/>
			<point x="287" y="-14" type="curve" smooth="yes"/>
			<point x="455" y="-14"/>
			<point x="544" y="109"/>
			<point x="544" y="264" type="curve" smooth="yes"/>
			<point x="544" y="420"/>
			<point x="455" y="543"/>
		</contour>
		<contour>
			<point x="287" y="35" type="curve" smooth="yes"/>
			<point x="177" y="35"/>
			<point x="98" y="120"/>
			<point x="98" y="264" type="curve" smooth="yes"/>
			<point x="98" y="408"/>
			<point x="177" y="493"/>
			<point x="287" y="493" type="curve" smooth="yes"/>
			<point x="397" y="493"/>
			<point x="476" y="408"/>
			<point x="476" y="264" type="curve" smooth="yes"/>
			<point x="476" y="120"/>
			<point x="397" y="35"/>
		</contour>
	</outline>
</glyph>
<glyph name="Abreve" format="2">
	<advance width="630"/>
	<unicode hex="0102"/>
	<note>
		Abreve
	</note>
	<outline>
		<contour>
			<point x="328" y="722" type="curve" smooth="yes"/>
			<point x="394" y="722"/>
			<point x="428" y="762"/>
			<point x="428" y="830" type="curve"/>
			<point x="388" y="830" type="line"/>
			<point x="387" y="787"/>
			<point x="363" y="764"/>
			<point x="328" y="764" type="curve" smooth="yes"/>
			<point x="293" y="764"/>
			<point x="269" y="787"/>
			<point x="268" y="830" type="curve"/>
			<point x="228" y="830" type="line"/>
			<point x="228" y="762"/>
			<point x="261" y="722"/>
		</contour>
		<contour>
			<point x="187" y="253" type="line"/>
			<point x="462" y="253" type="line"/>
			<point x="552" y="0" type="line"/>
			<point x="619" y="0" type="line"/>
			<point x="370" y="690" type="line"/>
			<point x="287" y="690" type="line"/>
			<point x="32" y="0" type="line"/>
			<point x="98" y="0" type="line"/>
		</contour>
		<contour>
			<point x="444" y="305" type="line"/>
			<point x="205" y="305" type="line"/>
			<point x="327" y="640" type="line"/>
		</contour>
	</outline>
</glyph>
<glyph name="Aogonek" format="2">
	<advance width="630"/>
	<unicode hex="0104"/>
	<note>
		Aogonek
	</note>
	<outline>
		<contour>
			<point x="597" y="0" type="curve"/>
			<point x="619" y="0" type="line"/>
			<point x="370" y="690" type="line"/>
			<point x="287" y="690" type="line"/>
			<point x="32" y="0" type="line"/>
			<point x="98" y="0" type="line"/>
			<point x="187" y="253" type="line"/>
			<point x="462" y="253" type="line"/>
			<point x="548" y="10" type="line"/>
			<point x="485" y="-16"/>
			<point x="433" y="-71"/>
			<point x="433" y="-144" type="curve" smooth="yes"/>
			<point x="433" y="-204"/>
			<point x="469" y="-223"/>
			<point x="515" y="-223" type="curve" smooth="yes"/>
			<point x="547" y="-223"/>
			<point x="574" y="-215"/>
			<point x="597" y="-197" type="curve"/>
			<point x="597" y="-158" type="line"/>
			<point x="577" y="-175"/>
			<point x="559" y="-182"/>
			<point x="538" y="-182" type="curve" smooth="yes"/>
			<point x="509" y="-182"/>
			<point x="493" y="-168"/>
			<point x="493" y="-131" type="curve" smooth="yes"/>
			<point x="493" y="-67"/>
			<point x="539" y="-17"/>
		</contour>
		<contour>
			<point x="444" y="305" type="line"/>
			<point x="205" y="305" type="line"/>
			<point x="327" y="640" type="line"/>
		</contour>
	</outline>
</glyph>
<glyph name="ccaron" format="2">
	<advance width="525"/>
	<unicode hex="010D"/>
	<note>
		ccaron
	</note>
	<outline>
		<contour>
			<point x="180" y="690" type="line"/>
			<point x="246" y="580" type="line"/>
			<point x="291" y="580" type="line"/>
			<point x="358" y="690" type="line"/>
			<point x="310" y="690" type="line"/>
			<point x="269" y="615" type="line"/>
			<point x="229" y="690" type="line"/>
		</contour>
		<contour>
			<point x="269" y="35" type="curve" smooth="yes"/>
			<point x="180" y="35"/>
			<point x="98" y="106"/>
			<point x="98" y="269" type="curve" smooth="yes"/>
			<point x="98" y="422"/>
			<point x="185" y="494"/>
			<point x="274" y="494" type="curve" smooth="yes"/>
			<point x="359" y="494"/>
			<point x="412" y="445"/>
			<point x="430" y="356" type="curve"/>
			<point x="495" y="356" type="line"/>
			<point x="479" y="468"/>
			<point x="398" y="543"/>
			<point x="276" y="543" type="curve" smooth="yes"/>
			<point x="143" y="543"/>
			<point x="30" y="439"/>
			<point x="30" y="264" type="curve" smooth="yes"/>
			<point x="30" y="77"/>
			<point x="133" y="-14"/>
			<point x="265" y="-14" type="curve" smooth="yes"/>
			<point x="379" y="-14"/>
			<point x="466" y="48"/>
			<point x="490" y="165" type="curve"/>
			<point x="426" y="165" type="line"/>
			<point x="407" y="80"/>
			<point x="347" y="35"/>
		</contour>
	</outline>
</glyph>
<glyph name="dcaron" format="2">
	<advance width="588"/>
	<unicode hex="010F"/>
	<note>
		dcaron
	</note>
	<outline>
		<contour>
			<point x="513" y="735" type="line"/>
			<point x="451" y="735" type="line"/>
			<point x="451" y="438" type="line"/>
			<point x="418" y="495" type="line"/>
			<point x="385" y="527"/>
			<point x="334" y="543"/>
			<point x="282" y="543" type="curve" smooth="yes"/>
			<point x="148" y="543"/>
			<point x="30" y="450"/>
			<point x="30" y="258" type="curve" smooth="yes"/>
			<point x="30" y="101"/>
			<point x="118" y="-14"/>
			<point x="266" y="-14" type="curve" smooth="yes"/>
			<point x="327" y="-14"/>
			<point x="379" y="3"/>
			<point x="416" y="40" type="curve"/>
			<point x="451" y="98" type="line"/>
			<point x="451" y="0" type="line"/>
			<point x="513" y="0" type="line"/>
		</contour>
		<contour>
			<point x="641" y="726" type="line"/>
			<point x="641" y="735" type="line"/>
			<point x="589" y="735" type="line"/>
			<point x="540" y="599" type="line"/>
			<point x="586" y="599" type="line"/>
		</contour>
		<contour>
			<point x="275" y="35" type="curve" smooth="yes"/>
			<point x="159" y="35"/>
			<point x="98" y="139"/>
			<point x="98" y="266" type="curve" smooth="yes"/>
			<point x="98" y="409"/>
			<point x="176" y="493"/>
			<point x="282" y="493" type="curve" smooth="yes"/>
			<point x="360" y="493"/>
			<point x="451" y="442"/>
			<point x="451" y="292" type="curve" smooth="yes"/>
			<point x="451" y="252" type="line" smooth="yes"/>
			<point x="451" y="92"/>
			<point x="369" y="35"/>
		</contour>
	</outline>
</glyph>
<glyph name="Emacron" format="2">
	<advance width="576"/>
	<unicode hex="0112"/>
	<note>
		Emacron
	</note>
	<outline>
		<contour>
			<point x="218" y="763" type="line"/>
			<point x="420" y="763" type="line"/>
			<point x="420" y="803" type="line"/>
			<point x="218" y="803" type="line"/>
		</contour>
		<contour>
			<point x="546" y="0" type="line"/>
			<point x="546" y="51" type="line"/>
			<point x="161" y="51" type="line"/>
			<point x="161" y="319" type="line"/>
			<point x="510" y="319" type="line"/>
			<point x="510" y="371" type="line"/>
			<point x="161" y="371" type="line"/>
			<point x="161" y="639" type="line"/>
			<point x="536" y="639" type="line"/>
			<point x="536" y="690" type="line"/>
			<point x="99" y="690" type="line"/>
			<point x="99" y="0" type="line"/>
		</contour>
	</outline>
</glyph>
<glyph name="Eogonek" format="2">
	<advance width="576"/>
	<unicode hex="0118"/>
	<note>
		Eogonek
	</note>
	<outline>
		<contour>
			<point x="443" y="-131" type="curve" smooth="yes"/>
			<point x="443" y="-67"/>
			<point x="489" y="-17"/>
			<point x="547" y="0" type="curve"/>
			<point x="546" y="0" type="line"/>
			<point x="546" y="51" type="line"/>
			<point x="161" y="51" type="line"/>
			<point x="161" y="319" type="line"/>
			<point x="510" y="319" type="line"/>
			<point x="510" y="371" type="line"/>
			<point x="161" y="371" type="line"/>
			<point x="161" y="639" type="line"/>
			<point x="536" y="639" type="line"/>
			<point x="536" y="690" type="line"/>
			<point x="99" y="690" type="line"/>
			<point x="99" y="0" type="line"/>
			<point x="477" y="0" type="line"/>
			<point x="423" y="-29"/>
			<point x="383" y="-79"/>
			<point x="383" y="-144" type="curve" smooth="yes"/>
			<point x="383" y="-204"/>
			<point x="419" y="-223"/>
			<point x="465" y="-223" type="curve" smooth="yes"/>
			<point x="497" y="-223"/>
			<point x="524" y="-215"/>
			<point x="547" y="-197" type="curve"/>
			<point x="547" y="-158" type="line"/>
			<point x="527" y="-175"/>
			<point x="509" y="-182"/>
			<point x="488" y="-182" type="curve" smooth="yes"/>
			<point x="459" y="-182"/>
			<point x="443" y="-168"/>
		</contour>
	</outline>
</glyph>
<glyph name="eogonek" format="2">
	<advance width="539"/>
	<unicode hex="0119"/>
	<note>
		eogonek
	</note>
	<outline>
		<contour>
			<point x="500" y="279" type="curve" smooth="yes"/>
			<point x="500" y="425"/>
			<point x="423" y="543"/>
			<point x="275" y="543" type="curve" smooth="yes"/>
			<point x="136" y="543"/>
			<point x="30" y="434"/>
			<point x="30" y="264" type="curve" smooth="yes"/>
			<point x="30" y="82"/>
			<point x="129" y="-10"/>
			<point x="257" y="-14" type="curve"/>
			<point x="216" y="-44"/>
			<point x="187" y="-89"/>
			<point x="187" y="-144" type="curve" smooth="yes"/>
			<point x="187" y="-204"/>
			<point x="223" y="-223"/>
			<point x="269" y="-223" type="curve" smooth="yes"/>
			<point x="301" y="-223"/>
			<point x="328" y="-215"/>
			<point x="351" y="-197" type="curve"/>
			<point x="351" y="-158" type="line"/>
			<point x="331" y="-175"/>
			<point x="313" y="-182"/>
			<point x="292" y="-182" type="curve" smooth="yes"/>
			<point x="263" y="-182"/>
			<point x="247" y="-168"/>
			<point x="247" y="-131" type="curve" smooth="yes"/>
			<point x="247" y="-74"/>
			<point x="283" y="-25"/>
			<point x="332" y="-6" type="curve"/>
			<point x="410" y="14"/>
			<point x="473" y="71"/>
			<point x="493" y="167" type="curve"/>
			<point x="428" y="167" type="line"/>
			<point x="409" y="80"/>
			<point x="343" y="35"/>
			<point x="269" y="35" type="curve" smooth="yes"/>
			<point x="183" y="35"/>
			<point x="104" y="90"/>
			<point x="97" y="246" type="curve"/>
			<point x="498" y="246" type="line"/>
			<point x="500" y="262"/>
			<point x="500" y="272"/>
		</contour>
		<contour>
			<point x="273" y="493" type="curve" smooth="yes"/>
			<point x="362" y="493"/>
			<point x="430" y="431"/>
			<point x="437" y="295" type="curve"/>
			<point x="97" y="295" type="line"/>
			<point x="106" y="427"/>
			<point x="186" y="493"/>
		</contour>
	</outline>
</glyph>
<glyph name="uni0122" format="2">
	<advance width="704"/>
	<unicode hex="0122"/>
	<note>
		Gcommaaccent
	</note>
	<outline>
		<contour>
			<point x="642" y="323" type="line"/>
			<point x="392" y="323" type="line"/>
			<point x="392" y="272" type="line"/>
			<point x="580" y="272" type="line"/>
			<point x="580" y="116"/>
			<point x="471" y="36"/>
			<point x="361" y="36" type="curve" smooth="yes"/>
			<point x="220" y="36"/>
			<point x="118" y="153"/>
			<point x="118" y="345" type="curve" smooth="yes"/>
			<point x="118" y="533"/>
			<point x="226" y="654"/>
			<point x="371" y="654" type="curve" smooth="yes"/>
			<point x="494" y="654"/>
			<point x="563" y="580"/>
			<point x="584" y="475" type="curve" smooth="yes"/>
			<point x="586" y="465" type="line"/>
			<point x="648" y="465" type="line"/>
			<point x="647" y="475" type="line" smooth="yes"/>
			<point x="628" y="606"/>
			<point x="539" y="704"/>
			<point x="373" y="704" type="curve" smooth="yes"/>
			<point x="182" y="704"/>
			<point x="49" y="554"/>
			<point x="49" y="342" type="curve" smooth="yes"/>
			<point x="49" y="132"/>
			<point x="167" y="-14"/>
			<point x="357" y="-14" type="curve" smooth="yes"/>
			<point x="440" y="-14"/>
			<point x="513" y="16"/>
			<point x="559" y="80" type="curve"/>
			<point x="586" y="142" type="line"/>
			<point x="586" y="0" type="line"/>
			<point x="642" y="0" type="line"/>
		</contour>
		<contour>
			<point x="393" y="-51" type="line"/>
			<point x="341" y="-51" type="line"/>
			<point x="292" y="-187" type="line"/>
			<point x="338" y="-187" type="line"/>
			<point x="393" y="-60" type="line"/>
		</contour>
	</outline>
</glyph>
<glyph name="Idotaccent" format="2">
	<advance width="236"/>
	<unicode hex="0130"/>
	<note>
		Idotaccent
	</note>
	<outline>
		<contour>
			<point x="129" y="819" type="curve" smooth="yes"/>
			<point x="109" y="819"/>
			<point x="93" y="803"/>
			<point x="93" y="783" type="curve" smooth="yes"/>
			<point x="93" y="763"/>
			<point x="109" y="747"/>
			<point x="129" y="747" type="curve" smooth="yes"/>
			<point x="149" y="747"/>
			<point x="165" y="763"/>
			<point x="165" y="783" type="curve" smooth="yes"/>
			<point x="165" y="803"/>
			<point x="149" y="819"/>
		</contour>
		<contour>
			<point x="99" y="0" type="line"/>
			<point x="161" y="0" type="line"/>
			<point x="161" y="690" type="line"/>
			<point x="99" y="690" type="line"/>
		</contour>
	</outline>
</glyph>
<glyph name="dotlessi" format="2">
	<advance width="210"/>
	<unicode hex="0131"/>
	<note>
		dotlessi
	</note>
	<outline>
		<contour>
			<point x="73" y="0" type="line"/>
			<point x="135" y="0" type="line"/>
			<point x="135" y="529" type="line"/>
			<point x="73" y="529" type="line"/>
		</contour>
	</outline>
</glyph>
<glyph name="ij" format="2">
	<advance width="414"/>
	<unicode hex="0133"/>
	<note>
		ij
	</note>
	<outline>
		<contour>
			<point x="73" y="0" type="line"/>
			<point x="135" y="0" type="line"/>
			<point x="135" y="529" type="line"/>
			<point x="73" y="529" type="line"/>
		</contour>
		<contour>
			<point x="339" y="-56" type="curve" smooth="yes"/>
			<point x="339" y="529" type="line"/>
			<point x="277" y="529" type="line"/>
			<point x="277" y="-63" type="line" smooth="yes"/>
			<point x="277" y="-78"/>
			<point x="277" y="-91"/>
			<point x="276" y="-105" type="curve" smooth="yes"/>
			<point x="272" y="-149"/>
			<point x="245" y="-163"/>
			<point x="190" y="-156" type="curve"/>
			<point x="190" y="-207" type="line"/>
			<point x="203" y="-210"/>
			<point x="215" y="-210"/>
			<point x="229" y="-210" type="curve" smooth="yes"/>
			<point x="296" y="-210"/>
			<point x="331" y="-178"/>
			<point x="337" y="-116" type="curve" smooth="yes"/>
			<point x="339" y="-98"/>
			<point x="339" y="-76"/>
		</contour>
		<contour>
			<point x="69" y="679" type="line"/>
			<point x="69" y="607" type="line"/>
			<point x="141" y="607" type="line"/>
			<point x="141" y="679" type="line"/>
		</contour>
		<contour>
			<point x="272" y="679" type="line"/>
			<point x="272" y="607" type="line"/>
			<point x="344" y="607" type="line"/>
			<point x="344" y="679" type="line"/>
		</contour>
	</outline>
</glyph>
<glyph name="uni013C" format="2">
	<advance width="219"/>
	<unicode hex="013C"/>
	<note>
		lcommaaccent
	</note>
	<outline>
		<contour>
			<point x="131" y="140" type="curve" smooth="yes"/>
			<point x="131" y="735" type="line"/>
			<point x="69" y="735" type="line"/>
			<point x="69" y="138" type="line" smooth="yes"/>
			<point x="69" y="106"/>
			<point x="69" y="85"/>
			<point x="70" y="67" type="curve" smooth="yes"/>
			<point x="73" y="10"/>
			<point x="104" y="-4"/>
			<point x="145" y="-4" type="curve" smooth="yes"/>
			<point x="161" y="-4"/>
			<point x="178" y="-4"/>
			<point x="194" y="-1" type="curve"/>
			<point x="194" y="45" type="line"/>
			<point x="149" y="40"/>
			<point x="134" y="49"/>
			<point x="132" y="83" type="curve" smooth="yes"/>
			<point x="131" y="99"/>
			<point x="131" y="117"/>
		</contour>
		<contour>
			<point x="92" y="-187" type="line"/>
			<point x="147" y="-60" type="line"/>
			<point x="147" y="-51" type="line"/>
			<point x="95" y="-51" type="line"/>
			<point x="46" y="-187" type="line"/>
		</contour>
	</outline>
</glyph>
<glyph name="Lcaron" format="2">
	<advance width="562"/>
	<unicode hex="013D"/>
	<note>
		Lcaron
	</note>
	<outline>
		<contour>
			<point x="546" y="0" type="line"/>
			<point x="546" y="51" type="line"/>
			<point x="161" y="51" type="line"/>
			<point x="161" y="690" type="line"/>
			<point x="99" y="690" type="line"/>
			<point x="99" y="0" type="line"/>
		</contour>
	</outline>
</glyph>
<glyph name="Lslash" format="2">
	<advance width="587"/>
	<unicode hex="0141"/>
	<note>
		Lslash
	</note>
	<outline>
		<contour>
			<point x="572" y="0" type="line"/>
			<point x="572" y="51" type="line"/>
			<point x="186" y="51" type="line"/>
			<point x="186" y="334" type="line"/>
			<point x="334" y="422" type="line"/>
			<point x="334" y="473" type="line"/>
			<point x="186" y="385" type="line"/>
			<point x="186" y="690" type="line"/>
			<point x="124" y="690" type="line"/>
			<point x="124" y="348" type="line"/>
			<point x="14" y="283" type="line"/>
			<point x="14" y="232" type="line"/>
			<point x="124" y="297" type="line"/>
			<point x="124" y="0" type="line"/>
		</contour>
	</outline>
</glyph>
<glyph name="Nacute" format="2">
	<advance width="688"/>
	<unicode hex="0143"/>
	<note>
		Nacute
	</note>
	<outline>
		<contour>
			<point x="330" y="736" type="line"/>
			<point x="372" y="736" type="line"/>
			<point x="444" y="830" type="line"/>
			<point x="384" y="830" type="line"/>
		</contour>
		<contour>
			<point x="517" y="0" type="line"/>
			<point x="612" y="0" type="line"/>
			<point x="611" y="690" type="line"/>
			<point x="550" y="690" type="line"/>
			<point x="550" y="334" type="line" smooth="yes"/>
			<point x="550" y="248"/>
			<point x="551" y="146"/>
			<point x="553" y="60" type="curve"/>
			<point x="193" y="690" type="line"/>
			<point x="99" y="690" type="line"/>
			<point x="99" y="0" type="line"/>
			<point x="161" y="0" type="line"/>
			<point x="161" y="356" type="line" smooth="yes"/>
			<point x="161" y="442"/>
			<point x="160" y="545"/>
			<point x="158" y="630" type="curve"/>
		</contour>
	</outline>
</glyph>
<glyph name="uni0145" format="2">
	<advance width="688"/>
	<unicode hex="0145"/>
	<note>
		Ncommaaccent
	</note>
	<outline>
		<contour>
			<point x="517" y="0" type="line"/>
			<point x="612" y="0" type="line"/>
			<point x="611" y="690" type="line"/>
			<point x="550" y="690" type="line"/>
			<point x="550" y="334" type="line" smooth="yes"/>
			<point x="550" y="248"/>
			<point x="551" y="146"/>
			<point x="553" y="60" type="curve"/>
			<point x="193" y="690" type="line"/>
			<point x="99" y="690" type="line"/>
			<point x="99" y="0" type="line"/>
			<point x="161" y="0" type="line"/>
			<point x="161" y="356" type="line" smooth="yes"/>
			<point x="161" y="442"/>
			<point x="160" y="545"/>
			<point x="158" y="630" type="curve"/>
		</contour>
		<contour>
			<point x="332" y="-187" type="line"/>
			<point x="387" y="-60" type="line"/>
			<point x="387" y="-51" type="line"/>
			<point x="335" y="-51" type="line"/>
			<point x="286" y="-187" type="line"/>
		</contour>
	</outline>
</glyph>
<glyph name="Eng" format="2">
	<advance width="688"/>
	<unicode hex="014A"/>
	<note>
		Eng
	</note>
	<outline>
		<contour>
			<point x="612" y="-67" type="curve" smooth="yes"/>
			<point x="612" y="690" type="line"/>
			<point x="550" y="690" type="line"/>
			<point x="550" y="346" type="line" smooth="yes"/>
			<point x="550" y="261"/>
			<point x="551" y="171"/>
			<point x="553" y="85" type="curve"/>
			<point x="193" y="690" type="line"/>
			<point x="99" y="690" type="line"/>
			<point x="99" y="0" type="line"/>
			<point x="161" y="0" type="line"/>
			<point x="161" y="356" type="line" smooth="yes"/>
			<point x="161" y="442"/>
			<point x="160" y="540"/>
			<point x="158" y="625" type="curve"/>
			<point x="550" y="-27" type="line"/>
			<point x="550" y="-83" type="line" smooth="yes"/>
			<point x="550" y="-146"/>
			<point x="524" y="-171"/>
			<point x="462" y="-171" type="curve"/>
			<point x="462" y="-223" type="line"/>
			<point x="550" y="-222"/>
			<point x="603" y="-193"/>
			<point x="611" y="-108" type="curve" smooth="yes"/>
			<point x="612" y="-94"/>
			<point x="612" y="-85"/>
		</contour>
	</outline>
</glyph>
<glyph name="Omacron" format="2">
	<advance width="728"/>
	<unicode hex="014C"/>
	<note>
		Omacron
	</note>
	<outline>
		<contour>
			<point x="268" y="763" type="line"/>
			<point x="470" y="763" type="line"/>
			<point x="470" y="803" type="line"/>
			<point x="268" y="803" type="line"/>
		</contour>
		<contour>
			<point x="369" y="704" type="curve" smooth="yes"/>
			<point x="168" y="704"/>
			<point x="49" y="555"/>
			<point x="49" y="345" type="curve" smooth="yes"/>
			<point x="49" y="137"/>
			<point x="168" y="-14"/>
			<point x="369" y="-14" type="curve" smooth="yes"/>
			<point x="571" y="-14"/>
			<point x="690" y="137"/>
			<point x="690" y="345" type="curve" smooth="yes"/>
			<point x="690" y="555"/>
			<point x="571" y="704"/>
		</contour>
		<contour>
			<point x="369" y="36" type="curve" smooth="yes"/>
			<point x="221" y="36"/>
			<point x="118" y="152"/>
			<point x="118" y="345" type="curve" smooth="yes"/>
			<point x="118" y="539"/>
			<point x="221" y="654"/>
			<point x="369" y="654" type="curve" smooth="yes"/>
			<point x="518" y="654"/>
			<point x="621" y="539"/>
			<point x="621" y="345" type="curve" smooth="yes"/>
			<point x="621" y="152"/>
			<point x="518" y="36"/>
		</contour>
	</outline>
</glyph>
<glyph name="omacron" format="2">
	<advance width="574"/>
	<unicode hex="014D"/>
	<note>
		omacron
	</note>
	<outline>
		<contour>
			<point x="186" y="610" type="line"/>
			<point x="388" y="610" type="line"/>
			<point x="388" y="650" type="line"/>
			<point x="186" y="650" type="line"/>
		</contour>
		<contour>
			<point x="287" y="543" type="curve" smooth="yes"/>
			<point x="119" y="543"/>
			<point x="30" y="420"/>
			<point x="30" y="264" type="curve" smooth="yes"/>
			<point x="30" y="109"/>
			<point x="119" y="-14"/>
			<point x="287" y="-14" type="curve" smooth="yes"/>
			<point x="455" y="-14"/>
			<point x="544" y="109"/>
			<point x="544" y="264" type="curve" smooth="yes"/>
			<point x="544" y="420"/>
			<point x="455" y="543"/>
		</contour>
		<contour>
			<point x="287" y="35" type="curve" smooth="yes"/>
			<point x="177" y="35"/>
			<point x="98" y="120"/>
			<point x="98" y="264" type="curve" smooth="yes"/>
			<point x="98" y="408"/>
			<point x="177" y="493"/>
			<point x="287" y="493" type="curve" smooth="yes"/>
			<point x="397" y="493"/>
			<point x="476" y="408"/>
			<point x="476" y="264" type="curve" smooth="yes"/>
			<point x="476" y="120"/>
			<point x="397" y="35"/>
		</contour>
	</outline>
</glyph>
<glyph name="Ohungarumlaut" format="2">
	<advance width="728"/>
	<unicode hex="0150"/>
	<note>
		Ohungarumlaut
	</note>
	<outline>
		<contour>
			<point x="284" y="736" type="line"/>
			<point x="326" y="736" type="line"/>
			<point x="398" y="830" type="line"/>
			<point x="337" y="830" type="line"/>
		</contour>
		<contour>
			<point x="438" y="830" type="line"/>
			<point x="385" y="736" type="line"/>
			<point x="427" y="736" type="line"/>
			<point x="499" y="830" type="line"/>
		</contour>
		<contour>
			<point x="369" y="704" type="curve" smooth="yes"/>
			<point x="168" y="704"/>
			<point x="49" y="555"/>
			<point x="49" y="345" type="curve" smooth="yes"/>
			<point x="49" y="137"/>
			<point x="168" y="-14"/>
			<point x="369" y="-14" type="curve" smooth="yes"/>
			<point x="571" y="-14"/>
			<point x="690" y="137"/>
			<point x="690" y="345" type="curve" smooth="yes"/>
			<point x="690" y="555"/>
			<point x="571" y="704"/>
		</contour>
		<contour>
			<point x="369" y="36" type="curve" smooth="yes"/>
			<point x="221" y="36"/>
			<point x="118" y="152"/>
			<point x="118" y="345" type="curve" smooth="yes"/>
			<point x="118" y="539"/>
			<point x="221" y="654"/>
			<point x="369" y="654" type="curve" smooth="yes"/>
			<point x="518" y="654"/>
			<point x="621" y="539"/>
			<point x="621" y="345" type="curve" smooth="yes"/>
			<point x="621" y="152"/>
			<point x="518" y="36"/>
		</contour>
	</outline>
</glyph>
<glyph name="OE" format="2">
	<advance width="1098"/>
	<unicode hex="0152"/>
	<note>
		OE
	</note>
	<outline>
		<contour>
			<point x="1069" y="0" type="line"/>
			<point x="1069" y="51" type="line"/>
			<point x="683" y="51" type="line"/>
			<point x="683" y="319" type="line"/>
			<point x="1033" y="319" type="line"/>
			<point x="1033" y="371" type="line"/>
			<point x="683" y="371" type="line"/>
			<point x="683" y="639" type="line"/>
			<point x="1059" y="639" type="line"/>
			<point x="1059" y="690" type="line"/>
			<point x="621" y="690" type="line"/>
			<point x="621" y="524" type="line"/>
			<point x="593" y="599" type="line"/>
			<point x="532" y="675"/>
			<point x="470" y="704"/>
			<point x="363" y="704" type="curve" smooth="yes"/>
			<point x="168" y="704"/>
			<point x="49" y="548"/>
			<point x="49" y="345" type="curve" smooth="yes"/>
			<point x="49" y="143"/>
			<point x="168" y="-14"/>
			<point x="363" y="-14" type="curve" smooth="yes"/>
			<point x="460" y="-14"/>
			<point x="535" y="16"/>
			<point x="593" y="91" type="curve"/>
			<point x="621" y="166" type="line"/>
			<point x="621" y="0" type="line"/>
		</contour>
		<contour>
			<point x="369" y="36" type="curve" smooth="yes"/>
			<point x="221" y="36"/>
			<point x="118" y="157"/>
			<point x="118" y="345" type="curve" smooth="yes"/>
			<point x="118" y="535"/>
			<point x="221" y="654"/>
			<point x="369" y="654" type="curve" smooth="yes"/>
			<point x="521" y="654"/>
			<point x="621" y="535"/>
			<point x="621" y="345" type="curve" smooth="yes"/>
			<point x="621" y="157"/>
			<point x="521" y="36"/>
		</contour>
	</outline>
</glyph>
<glyph name="racute" format="2">
	<advance width="303"/>
	<unicode hex="0155"/>
	<note>
		racute
	</note>
	<outline>
		<contour>
			<point x="137" y="580" type="line"/>
			<point x="179" y="580" type="line"/>
			<point x="258" y="690" type="line"/>
			<point x="198" y="690" type="line"/>
		</contour>
		<contour>
			<point x="264" y="541" type="curve" smooth="yes"/>
			<point x="230" y="541"/>
			<point x="197" y="526"/>
			<point x="173" y="501" type="curve"/>
			<point x="135" y="433" type="line"/>
			<point x="135" y="529" type="line"/>
			<point x="73" y="529" type="line"/>
			<point x="73" y="0" type="line"/>
			<point x="135" y="0" type="line"/>
			<point x="135" y="297" type="line" smooth="yes"/>
			<point x="135" y="438"/>
			<point x="203" y="495"/>
			<point x="295" y="488" type="curve"/>
			<point x="295" y="537" type="line"/>
			<point x="286" y="540"/>
			<point x="275" y="541"/>
		</contour>
	</outline>
</glyph>
<glyph name="Scedilla" format="2">
	<advance width="576"/>
	<unicode hex="015E"/>
	<note>
		Scedilla
	</note>
	<outline>
		<contour>
			<point x="535" y="178" type="curve" smooth="yes"/>
			<point x="535" y="292"/>
			<point x="461" y="348"/>
			<point x="313" y="386" type="curve" smooth="yes"/>
			<point x="195" y="416"/>
			<point x="146" y="447"/>
			<point x="146" y="531" type="curve" smooth="yes"/>
			<point x="146" y="613"/>
			<point x="219" y="654"/>
			<point x="298" y="654" type="curve" smooth="yes"/>
			<point x="389" y="654"/>
			<point x="449" y="599"/>
			<point x="461" y="505" type="curve"/>
			<point x="526" y="505" type="line"/>
			<point x="513" y="617"/>
			<point x="441" y="704"/>
			<point x="303" y="704" type="curve" smooth="yes"/>
			<point x="181" y="704"/>
			<point x="79" y="630"/>
			<point x="79" y="518" type="curve" smooth="yes"/>
			<point x="79" y="407"/>
			<point x="157" y="361"/>
			<point x="288" y="327" type="curve" smooth="yes"/>
			<point x="417" y="295"/>
			<point x="469" y="257"/>
			<point x="469" y="168" type="curve" smooth="yes"/>
			<point x="469" y="88"/>
			<point x="396" y="36"/>
			<point x="305" y="36" type="curve" smooth="yes"/>
			<point x="206" y="36"/>
			<point x="130" y="91"/>
			<point x="113" y="190" type="curve"/>
			<point x="47" y="190" type="line"/>
			<point x="61" y="68"/>
			<point x="147" y="-2"/>
			<point x="269" y="-13" type="curve"/>
			<point x="236" y="-75" type="line"/>
			<point x="305" y="-70"/>
			<point x="333" y="-90"/>
			<point x="333" y="-126" type="curve" smooth="yes"/>
			<point x="333" y="-158"/>
			<point x="307" y="-176"/>
			<point x="265" y="-176" type="curve" smooth="yes"/>
			<point x="243" y="-176"/>
			<point x="227" y="-173"/>
			<point x="212" y="-165" type="curve"/>
			<point x="212" y="-201" type="line"/>
			<point x="226" y="-207"/>
			<point x="243" y="-210"/>
			<point x="263" y="-210" type="curve" smooth="yes"/>
			<point x="327" y="-210"/>
			<point x="378" y="-182"/>
			<point x="378" y="-125" type="curve" smooth="yes"/>
			<point x="378" y="-77"/>
			<point x="347" y="-50"/>
			<point x="294" y="-44" type="curve"/>
			<point x="311" y="-14" type="line"/>
			<point x="439" y="-11"/>
			<point x="535" y="66"/>
		</contour>
	</outline>
</glyph>
<glyph name="scedilla" format="2">
	<advance width="450"/>
	<unicode hex="015F"/>
	<note>
		scedilla
	</note>
	<outline>
		<contour>
			<point x="417" y="132" type="curve" smooth="yes"/>
			<point x="417" y="221"/>
			<point x="359" y="265"/>
			<point x="237" y="295" type="curve" smooth="yes"/>
			<point x="161" y="314"/>
			<point x="111" y="338"/>
			<point x="111" y="399" type="curve" smooth="yes"/>
			<point x="111" y="457"/>
			<point x="154" y="493"/>
			<point x="218" y="493" type="curve" smooth="yes"/>
			<point x="289" y="493"/>
			<point x="332" y="454"/>
			<point x="347" y="381" type="curve"/>
			<point x="412" y="381" type="line"/>
			<point x="400" y="474"/>
			<point x="338" y="543"/>
			<point x="223" y="543" type="curve" smooth="yes"/>
			<point x="119" y="543"/>
			<point x="47" y="483"/>
			<point x="47" y="392" type="curve" smooth="yes"/>
			<point x="47" y="301"/>
			<point x="122" y="264"/>
			<point x="213" y="240" type="curve" smooth="yes"/>
			<point x="316" y="215"/>
			<point x="354" y="186"/>
			<point x="354" y="127" type="curve" smooth="yes"/>
			<point x="354" y="66"/>
			<point x="299" y="35"/>
			<point x="232" y="35" type="curve" smooth="yes"/>
			<point x="161" y="35"/>
			<point x="104" y="66"/>
			<point x="89" y="156" type="curve"/>
			<point x="25" y="156" type="line"/>
			<point x="39" y="44"/>
			<point x="112" y="-7"/>
			<point x="208" y="-13" type="curve"/>
			<point x="175" y="-75" type="line"/>
			<point x="244" y="-70"/>
			<point x="272" y="-90"/>
			<point x="272" y="-126" type="curve" smooth="yes"/>
			<point x="272" y="-158"/>
			<point x="246" y="-176"/>
			<point x="204" y="-176" type="curve" smooth="yes"/>
			<point x="182" y="-176"/>
			<point x="166" y="-173"/>
			<point x="151" y="-165" type="curve"/>
			<point x="151" y="-201" type="line"/>
			<point x="165" y="-207"/>
			<point x="182" y="-210"/>
			<point x="202" y="-210" type="curve" smooth="yes"/>
			<point x="266" y="-210"/>
			<point x="317" y="-182"/>
			<point x="317" y="-125" type="curve" smooth="yes"/>
			<point x="317" y="-77"/>
			<point x="286" y="-50"/>
			<point x="233" y="-44" type="curve"/>
			<point x="250" y="-13" type="line"/>
			<point x="348" y="-7"/>
			<point x="417" y="45"/>
		</contour>
	</outline>
</glyph>
<glyph name="Scaron" format="2">
	<advance width="576"/>
	<unicode hex="0160"/>
	<note>
		Scaron
	</note>
	<outline>
		<contour>
			<point x="207" y="830" type="line"/>
			<point x="273" y="736" type="line"/>
			<point x="318" y="736" type="line"/>
			<point x="385" y="830" type="line"/>
			<point x="335" y="830" type="line"/>
			<point x="296" y="764" type="line"/>
			<point x="257" y="830" type="line"/>
		</contour>
		<contour>
			<point x="313" y="386" type="curve" smooth="yes"/>
			<point x="195" y="416"/>
			<point x="146" y="447"/>
			<point x="146" y="531" type="curve" smooth="yes"/>
			<point x="146" y="613"/>
			<point x="219" y="654"/>
			<point x="298" y="654" type="curve" smooth="yes"/>
			<point x="389" y="654"/>
			<point x="449" y="599"/>
			<point x="461" y="505" type="curve"/>
			<point x="526" y="505" type="line"/>
			<point x="513" y="617"/>
			<point x="441" y="704"/>
			<point x="303" y="704" type="curve" smooth="yes"/>
			<point x="181" y="704"/>
			<point x="79" y="630"/>
			<point x="79" y="518" type="curve" smooth="yes"/>
			<point x="79" y="407"/>
			<point x="157" y="361"/>
			<point x="288" y="327" type="curve" smooth="yes"/>
			<point x="417" y="295"/>
			<point x="469" y="257"/>
			<point x="469" y="168" type="curve" smooth="yes"/>
			<point x="469" y="88"/>
			<point x="396" y="36"/>
			<point x="305" y="36" type="curve" smooth="yes"/>
			<point x="206" y="36"/>
			<point x="130" y="91"/>
			<point x="113" y="190" type="curve"/>
			<point x="47" y="190" type="line"/>
			<point x="62" y="57"/>
			<point x="163" y="-14"/>
			<point x="303" y="-14" type="curve" smooth="yes"/>
			<point x="435" y="-14"/>
			<point x="535" y="64"/>
			<point x="535" y="178" type="curve" smooth="yes"/>
			<point x="535" y="292"/>
			<point x="461" y="348"/>
		</contour>
	</outline>
</glyph>
<glyph name="uni0162" format="2">
	<advance width="600"/>
	<unicode hex="0162"/>
	<note>
		Tcedilla
	</note>
	<outline>
		<contour>
			<point x="316" y="-44" type="curve"/>
			<point x="341" y="0" type="line"/>
			<point x="348" y="0" type="line"/>
			<point x="348" y="639" type="line"/>
			<point x="601" y="639" type="line"/>
			<point x="601" y="690" type="line"/>
			<point x="33" y="690" type="line"/>
			<point x="33" y="639" type="line"/>
			<point x="286" y="639" type="line"/>
			<point x="286" y="0" type="line"/>
			<point x="298" y="0" type="line"/>
			<point x="258" y="-75" type="line"/>
			<point x="327" y="-70"/>
			<point x="355" y="-90"/>
			<point x="355" y="-126" type="curve" smooth="yes"/>
			<point x="355" y="-158"/>
			<point x="329" y="-176"/>
			<point x="287" y="-176" type="curve" smooth="yes"/>
			<point x="265" y="-176"/>
			<point x="249" y="-173"/>
			<point x="234" y="-165" type="curve"/>
			<point x="234" y="-201" type="line"/>
			<point x="248" y="-207"/>
			<point x="265" y="-210"/>
			<point x="285" y="-210" type="curve" smooth="yes"/>
			<point x="349" y="-210"/>
			<point x="400" y="-182"/>
			<point x="400" y="-125" type="curve" smooth="yes"/>
			<point x="400" y="-77"/>
			<point x="369" y="-50"/>
		</contour>
	</outline>
</glyph>
<glyph name="uni0163" format="2">
	<advance width="284"/>
	<unicode hex="0163"/>
	<note>
		tcedilla
	</note>
	<outline>
		<contour>
			<point x="153" y="145" type="curve" smooth="yes"/>
			<point x="153" y="477" type="line"/>
			<point x="254" y="477" type="line"/>
			<point x="254" y="525" type="line"/>
			<point x="153" y="525" type="line"/>
			<point x="153" y="642" type="line"/>
			<point x="91" y="642" type="line"/>
			<point x="91" y="525" type="line"/>
			<point x="23" y="525" type="line"/>
			<point x="23" y="477" type="line"/>
			<point x="91" y="477" type="line"/>
			<point x="91" y="144" type="line" smooth="yes"/>
			<point x="91" y="114"/>
			<point x="91" y="94"/>
			<point x="92" y="76" type="curve" smooth="yes"/>
			<point x="96" y="33"/>
			<point x="114" y="7"/>
			<point x="147" y="-3" type="curve"/>
			<point x="109" y="-75" type="line"/>
			<point x="178" y="-70"/>
			<point x="206" y="-90"/>
			<point x="206" y="-126" type="curve" smooth="yes"/>
			<point x="206" y="-158"/>
			<point x="180" y="-176"/>
			<point x="138" y="-176" type="curve" smooth="yes"/>
			<point x="116" y="-176"/>
			<point x="100" y="-173"/>
			<point x="85" y="-165" type="curve"/>
			<point x="85" y="-201" type="line"/>
			<point x="99" y="-207"/>
			<point x="116" y="-210"/>
			<point x="136" y="-210" type="curve" smooth="yes"/>
			<point x="200" y="-210"/>
			<point x="251" y="-182"/>
			<point x="251" y="-125" type="curve" smooth="yes"/>
			<point x="251" y="-77"/>
			<point x="220" y="-50"/>
			<point x="167" y="-44" type="curve"/>
			<point x="187" y="-8" type="line"/>
			<point x="208" y="-8"/>
			<point x="230" y="-7"/>
			<point x="251" y="-3" type="curve"/>
			<point x="251" y="43" type="line"/>
			<point x="180" y="34"/>
			<point x="158" y="47"/>
			<point x="154" y="98" type="curve" smooth="yes"/>
			<point x="153" y="112"/>
			<point x="153" y="123"/>
		</contour>
	</outline>
</glyph>
<glyph name="Tcaron" format="2">
	<advance width="600"/>
	<unicode hex="0164"/>
	<note>
		Tcaron
	</note>
	<outline>
		<contour>
			<point x="229" y="830" type="line"/>
			<point x="295" y="736" type="line"/>
			<point x="340" y="736" type="line"/>
			<point x="407" y="830" type="line"/>
			<point x="357" y="830" type="line"/>
			<point x="318" y="764" type="line"/>
			<point x="279" y="830" type="line"/>
		</contour>
		<contour>
			<point x="348" y="639" type="line"/>
			<point x="601" y="639" type="line"/>
			<point x="601" y="690" type="line"/>
			<point x="33" y="690" type="line"/>
			<point x="33" y="639" type="line"/>
			<point x="286" y="639" type="line"/>
			<point x="286" y="0" type="line"/>
			<point x="348" y="0" type="line"/>
		</contour>
	</outline>
</glyph>
<glyph name="tcaron" format="2">
	<advance width="272"/>
	<unicode hex="0165"/>
	<note>
		tcaron
	</note>
	<outline>
		<contour>
			<point x="298" y="725" type="line"/>
			<point x="298" y="735" type="line"/>
			<point x="246" y="735" type="line"/>
			<point x="197" y="599" type="line"/>
			<point x="243" y="599" type="line"/>
		</contour>
		<contour>
			<point x="254" y="525" type="line"/>
			<point x="153" y="525" type="line"/>
			<point x="153" y="642" type="line"/>
			<point x="91" y="642" type="line"/>
			<point x="91" y="525" type="line"/>
			<point x="23" y="525" type="line"/>
			<point x="23" y="477" type="line"/>
			<point x="91" y="477" type="line"/>
			<point x="91" y="144" type="line" smooth="yes"/>
			<point x="91" y="114"/>
			<point x="91" y="94"/>
			<point x="92" y="76" type="curve" smooth="yes"/>
			<point x="97" y="18"/>
			<point x="128" y="-8"/>
			<point x="187" y="-8" type="curve" smooth="yes"/>
			<point x="208" y="-8"/>
			<point x="230" y="-7"/>
			<point x="251" y="-3" type="curve"/>
			<point x="251" y="43" type="line"/>
			<point x="180" y="34"/>
			<point x="158" y="47"/>
			<point x="154" y="98" type="curve" smooth="yes"/>
			<point x="153" y="112"/>
			<point x="153" y="123"/>
			<point x="153" y="145" type="curve" smooth="yes"/>
			<point x="153" y="477" type="line"/>
			<point x="254" y="477" type="line"/>
		</contour>
	</outline>
</glyph>
<glyph name="tbar" format="2">
	<advance width="284"/>
	<unicode hex="0167"/>
	<note>
		tbar
	</note>
	<outline>
		<contour>
			<point x="153" y="349" type="line"/>
			<point x="153" y="477" type="line"/>
			<point x="254" y="477" type="line"/>
			<point x="254" y="525" type="line"/>
			<point x="153" y="525" type="line"/>
			<point x="153" y="642" type="line"/>
			<point x="91" y="642" type="line"/>
			<point x="91" y="525" type="line"/>
			<point x="23" y="525" type="line"/>
			<point x="23" y="477" type="line"/>
			<point x="91" y="477" type="line"/>
			<point x="91" y="349" type="line"/>
			<point x="26" y="349" type="line"/>
			<point x="26" y="309" type="line"/>
			<point x="91" y="309" type="line"/>
			<point x="91" y="144" type="line" smooth="yes"/>
			<point x="91" y="114"/>
			<point x="91" y="94"/>
			<point x="92" y="76" type="curve" smooth="yes"/>
			<point x="97" y="18"/>
			<point x="128" y="-8"/>
			<point x="187" y="-8" type="curve" smooth="yes"/>
			<point x="208" y="-8"/>
			<point x="230" y="-7"/>
			<point x="251" y="-3" type="curve"/>
			<point x="251" y="43" type="line"/>
			<point x="180" y="34"/>
			<point x="158" y="47"/>
			<point x="154" y="98" type="curve" smooth="yes"/>
			<point x="153" y="112"/>
			<point x="153" y="123"/>
			<point x="153" y="145" type="curve" smooth="yes"/>
			<point x="153" y="309" type="line"/>
			<point x="228" y="309" type="line"/>
			<point x="228" y="349" type="line"/>
		</contour>
	</outline>
</glyph>
<glyph name="Uogonek" format="2">
	<advance width="651"/>
	<unicode hex="0172"/>
	<note>
		Uogonek
	</note>
	<outline>
		<contour>
			<point x="583" y="247" type="curve" smooth="yes"/>
			<point x="583" y="690" type="line"/>
			<point x="521" y="690" type="line"/>
			<point x="521" y="250" type="line" smooth="yes"/>
			<point x="521" y="228"/>
			<point x="520" y="208"/>
			<point x="518" y="189" type="curve" smooth="yes"/>
			<point x="510" y="102"/>
			<point x="453" y="36"/>
			<point x="338" y="36" type="curve" smooth="yes"/>
			<point x="222" y="36"/>
			<point x="165" y="102"/>
			<point x="157" y="189" type="curve" smooth="yes"/>
			<point x="155" y="208"/>
			<point x="155" y="228"/>
			<point x="155" y="250" type="curve" smooth="yes"/>
			<point x="155" y="690" type="line"/>
			<point x="93" y="690" type="line"/>
			<point x="93" y="247" type="line" smooth="yes"/>
			<point x="93" y="227"/>
			<point x="93" y="207"/>
			<point x="95" y="183" type="curve" smooth="yes"/>
			<point x="104" y="71"/>
			<point x="180" y="-14"/>
			<point x="338" y="-14" type="curve" smooth="yes"/>
			<point x="345" y="-14" type="line"/>
			<point x="303" y="-44"/>
			<point x="274" y="-89"/>
			<point x="274" y="-144" type="curve" smooth="yes"/>
			<point x="274" y="-204"/>
			<point x="310" y="-223"/>
			<point x="356" y="-223" type="curve" smooth="yes"/>
			<point x="388" y="-223"/>
			<point x="415" y="-215"/>
			<point x="438" y="-197" type="curve"/>
			<point x="438" y="-158" type="line"/>
			<point x="418" y="-175"/>
			<point x="400" y="-182"/>
			<point x="379" y="-182" type="curve" smooth="yes"/>
			<point x="350" y="-182"/>
			<point x="334" y="-168"/>
			<point x="334" y="-131" type="curve" smooth="yes"/>
			<point x="334" y="-67"/>
			<point x="380" y="-17"/>
			<point x="438" y="0" type="curve" smooth="yes"/>
			<point x="528" y="29"/>
			<point x="574" y="98"/>
			<point x="580" y="183" type="curve" smooth="yes"/>
			<point x="582" y="207"/>
			<point x="583" y="227"/>
		</contour>
	</outline>
</glyph>
<glyph name="uogonek" format="2">
	<advance width="567"/>
	<unicode hex="0173"/>
	<note>
		uogonek
	</note>
	<outline>
		<contour>
			<point x="492" y="0" type="line"/>
			<point x="492" y="529" type="line"/>
			<point x="430" y="529" type="line"/>
			<point x="430" y="266" type="line" smooth="yes"/>
			<point x="430" y="100"/>
			<point x="355" y="36"/>
			<point x="267" y="36" type="curve" smooth="yes"/>
			<point x="185" y="36"/>
			<point x="139" y="85"/>
			<point x="131" y="155" type="curve" smooth="yes"/>
			<point x="128" y="182"/>
			<point x="127" y="209"/>
			<point x="127" y="234" type="curve" smooth="yes"/>
			<point x="127" y="529" type="line"/>
			<point x="65" y="529" type="line"/>
			<point x="65" y="220" type="line" smooth="yes"/>
			<point x="65" y="177"/>
			<point x="66" y="158"/>
			<point x="69" y="131" type="curve" smooth="yes"/>
			<point x="81" y="47"/>
			<point x="145" y="-14"/>
			<point x="253" y="-14" type="curve" smooth="yes"/>
			<point x="311" y="-14"/>
			<point x="359" y="2"/>
			<point x="401" y="43" type="curve"/>
			<point x="430" y="102" type="line"/>
			<point x="430" y="12" type="line"/>
			<point x="364" y="-11"/>
			<point x="310" y="-69"/>
			<point x="310" y="-144" type="curve" smooth="yes"/>
			<point x="310" y="-204"/>
			<point x="346" y="-223"/>
			<point x="392" y="-223" type="curve" smooth="yes"/>
			<point x="424" y="-223"/>
			<point x="451" y="-215"/>
			<point x="474" y="-197" type="curve"/>
			<point x="474" y="-158" type="line"/>
			<point x="454" y="-175"/>
			<point x="436" y="-182"/>
			<point x="415" y="-182" type="curve" smooth="yes"/>
			<point x="386" y="-182"/>
			<point x="370" y="-168"/>
			<point x="370" y="-131" type="curve" smooth="yes"/>
			<point x="370" y="-67"/>
			<point x="415" y="-13"/>
			<point x="474" y="0" type="curve"/>
		</contour>
	</outline>
</glyph>
<glyph name="wcircumflex" format="2">
	<advance width="759"/>
	<unicode hex="0175"/>
	<note>
		wcircumflex
	</note>
	<outline>
		<contour>
			<point x="293" y="580" type="line"/>
			<point x="341" y="580" type="line"/>
			<point x="381" y="655" type="line"/>
			<point x="422" y="580" type="line"/>
			<point x="471" y="580" type="line"/>
			<point x="404" y="690" type="line"/>
			<point x="359" y="690" type="line"/>
		</contour>
		<contour>
			<point x="585" y="0" type="line"/>
			<point x="752" y="529" type="line"/>
			<point x="686" y="529" type="line"/>
			<point x="551" y="62" type="line"/>
			<point x="421" y="528" type="line"/>
			<point x="342" y="528" type="line"/>
			<point x="213" y="57" type="line"/>
			<point x="77" y="529" type="line"/>
			<point x="6" y="529" type="line"/>
			<point x="174" y="0" type="line"/>
			<point x="250" y="0" type="line"/>
			<point x="380" y="466" type="line"/>
			<point x="510" y="0" type="line"/>
		</contour>
	</outline>
</glyph>
<glyph name="Zacute" format="2">
	<advance width="571"/>
	<unicode hex="0179"/>
	<note>
		Zacute
	</note>
	<outline>
		<contour>
			<point x="269" y="736" type="line"/>
			<point x="311" y="736" type="line"/>
			<point x="383" y="830" type="line"/>
			<point x="323" y="830" type="line"/>
		</contour>
		<contour>
			<point x="548" y="0" type="line"/>
			<point x="548" y="52" type="line"/>
			<point x="116" y="52" type="line"/>
			<point x="542" y="639" type="line"/>
			<point x="542" y="690" type="line"/>
			<point x="70" y="690" type="line"/>
			<point x="70" y="638" type="line"/>
			<point x="470" y="638" type="line"/>
			<point x="42" y="48" type="line"/>
			<point x="42" y="0" type="line"/>
		</contour>
	</outline>
</glyph>
<glyph name="Zdotaccent" format="2">
	<advance width="571"/>
	<unicode hex="017B"/>
	<note>
		Zdotaccent
	</note>
	<outline>
		<contour>
			<point x="294" y="747" type="curve" smooth="yes"/>
			<point x="314" y="747"/>
			<point x="330" y="763"/>
			<point x="330" y="783" type="curve" smooth="yes"/>
			<point x="330" y="803"/>
			<point x="314" y="819"/>
			<point x="294" y="819" type="curve" smooth="yes"/>
			<point x="274" y="819"/>
			<point x="258" y="803"/>
			<point x="258" y="783" type="curve" smooth="yes"/>
			<point x="258" y="763"/>
			<point x="274" y="747"/>
		</contour>
		<contour>
			<point x="548" y="0" type="line"/>
			<point x="548" y="52" type="line"/>
			<point x="116" y="52" type="line"/>
			<point x="542" y="639" type="line"/>
			<point x="542" y="690" type="line"/>
			<point x="70" y="690" type="line"/>
			<point x="70" y="638" type="line"/>
			<point x="470" y="638" type="line"/>
			<point x="42" y="48" type="line"/>
			<point x="42" y="0" type="line"/>
		</contour>
	</outline>
</glyph>
<glyph name="uni0218" format="2">
	<advance width="576"/>
	<unicode hex="0218"/>
	<note>
		Scommaaccent
	</note>
	<outline>
		<contour>
			<point x="303" y="704" type="curve" smooth="yes"/>
			<point x="181" y="704"/>
			<point x="79" y="630"/>
			<point x="79" y="518" type="curve" smooth="yes"/>
			<point x="79" y="407"/>
			<point x="157" y="361"/>
			<point x="288" y="327" type="curve" smooth="yes"/>
			<point x="417" y="295"/>
			<point x="469" y="257"/>
			<point x="469" y="168" type="curve" smooth="yes"/>
			<point x="469" y="88"/>
			<point x="396" y="36"/>
			<point x="305" y="36" type="curve" smooth="yes"/>
			<point x="206" y="36"/>
			<point x="130" y="91"/>
			<point x="113" y="190" type="curve"/>
			<point x="47" y="190" type="line"/>
			<point x="62" y="57"/>
			<point x="163" y="-14"/>
			<point x="303" y="-14" type="curve" smooth="yes"/>
			<point x="435" y="-14"/>
			<point x="535" y="64"/>
			<point x="535" y="178" type="curve" smooth="yes"/>
			<point x="535" y="292"/>
			<point x="461" y="348"/>
			<point x="313" y="386" type="curve" smooth="yes"/>
			<point x="195" y="416"/>
			<point x="146" y="447"/>
			<point x="146" y="531" type="curve" smooth="yes"/>
			<point x="146" y="613"/>
			<point x="219" y="654"/>
			<point x="298" y="654" type="curve" smooth="yes"/>
			<point x="389" y="654"/>
			<point x="449" y="599"/>
			<point x="461" y="505" type="curve"/>
			<point x="526" y="505" type="line"/>
			<point x="513" y="617"/>
			<point x="441" y="704"/>
		</contour>
		<contour>
			<point x="272" y="-187" type="line"/>
			<point x="327" y="-60" type="line"/>
			<point x="327" y="-51" type="line"/>
			<point x="275" y="-51" type="line"/>
			<point x="226" y="-187" type="line"/>
		</contour>
	</outline>
</glyph>
<glyph name="uni0219" format="2">
	<advance width="450"/>
	<unicode hex="0219"/>
	<note>
		scommaaccent
	</note>
	<outline>
		<contour>
			<point x="223" y="543" type="curve" smooth="yes"/>
			<point x="119" y="543"/>
			<point x="47" y="483"/>
			<point x="47" y="392" type="curve" smooth="yes"/>
			<point x="47" y="301"/>
			<point x="122" y="264"/>
			<point x="213" y="240" type="curve" smooth="yes"/>
			<point x="316" y="215"/>
			<point x="354" y="186"/>
			<point x="354" y="127" type="curve" smooth="yes"/>
			<point x="354" y="66"/>
			<point x="299" y="35"/>
			<point x="232" y="35" type="curve" smooth="yes"/>
			<point x="161" y="35"/>
			<point x="104" y="66"/>
			<point x="89" y="156" type="curve"/>
			<point x="25" y="156" type="line"/>
			<point x="40" y="36"/>
			<point x="123" y="-14"/>
			<point x="228" y="-14" type="curve" smooth="yes"/>
			<point x="337" y="-14"/>
			<point x="417" y="38"/>
			<point x="417" y="132" type="curve" smooth="yes"/>
			<point x="417" y="221"/>
			<point x="359" y="265"/>
			<point x="237" y="295" type="curve" smooth="yes"/>
			<point x="161" y="314"/>
			<point x="111" y="338"/>
			<point x="111" y="399" type="curve" smooth="yes"/>
			<point x="111" y="457"/>
			<point x="154" y="493"/>
			<point x="218" y="493" type="curve" smooth="yes"/>
			<point x="289" y="493"/>
			<point x="332" y="454"/>
			<point x="347" y="381" type="curve"/>
			<point x="412" y="381" type="line"/>
			<point x="400" y="474"/>
			<point x="338" y="543"/>
		</contour>
		<contour>
			<point x="207" y="-187" type="line"/>
			<point x="262" y="-60" type="line"/>
			<point x="262" y="-51" type="line"/>
			<point x="210" y="-51" type="line"/>
			<point x="161" y="-187" type="line"/>
		</contour>
	</outline>
</glyph>
<glyph name="circumflex" format="2">
	<advance width="300"/>
	<unicode hex="02C6"/>
	<note>
		circumflex
	</note>
	<outline>
		<contour>
			<point x="150" y="655" type="line"/>
			<point x="191" y="580" type="line"/>
			<point x="240" y="580" type="line"/>
			<point x="173" y="690" type="line"/>
			<point x="128" y="690" type="line"/>
			<point x="62" y="580" type="line"/>
			<point x="110" y="580" type="line"/>
		</contour>
	</outline>
</glyph>
<glyph name="breve" format="2">
	<advance width="300"/>
	<unicode hex="02D8"/>
	<note>
		breve
	</note>
	<outline>
		<contour>
			<point x="248" y="690" type="curve"/>
			<point x="208" y="690" type="line"/>
			<point x="207" y="634"/>
			<point x="185" y="610"/>
			<point x="150" y="610" type="curve" smooth="yes"/>
			<point x="115" y="610"/>
			<point x="93" y="634"/>
			<point x="92" y="690" type="curve"/>
			<point x="52" y="690" type="line"/>
			<point x="52" y="611"/>
			<point x="82" y="568"/>
			<point x="150" y="568" type="curve" smooth="yes"/>
			<point x="217" y="568"/>
			<point x="248" y="611"/>
		</contour>
	</outline>
</glyph>
<glyph name="dotaccent" format="2">
	<advance width="300"/>
	<unicode hex="02D9"/>
	<note>
		dotaccent
	</note>
	<outline>
		<contour>
			<point x="150" y="685" type="curve" smooth="yes"/>
			<point x="127" y="685"/>
			<point x="108" y="667"/>
			<point x="108" y="643" type="curve" smooth="yes"/>
			<point x="108" y="620"/>
			<point x="127" y="601"/>
			<point x="150" y="601" type="curve" smooth="yes"/>
			<point x="174" y="601"/>
			<point x="192" y="620"/>
			<point x="192" y="643" type="curve" smooth="yes"/>
			<point x="192" y="667"/>
			<point x="174" y="685"/>
		</contour>
	</outline>
</glyph>
<glyph name="ogonek" format="2">
	<advance width="300"/>
	<unicode hex="02DB"/>
	<note>
		ogonek
	</note>
	<outline>
		<contour>
			<point x="194" y="0" type="curve"/>
			<point x="150" y="12" type="line"/>
			<point x="84" y="-11"/>
			<point x="30" y="-69"/>
			<point x="30" y="-144" type="curve" smooth="yes"/>
			<point x="30" y="-204"/>
			<point x="66" y="-223"/>
			<point x="112" y="-223" type="curve" smooth="yes"/>
			<point x="144" y="-223"/>
			<point x="171" y="-215"/>
			<point x="194" y="-197" type="curve"/>
			<point x="194" y="-158" type="line"/>
			<point x="174" y="-175"/>
			<point x="156" y="-182"/>
			<point x="135" y="-182" type="curve" smooth="yes"/>
			<point x="106" y="-182"/>
			<point x="90" y="-168"/>
			<point x="90" y="-131" type="curve" smooth="yes"/>
			<point x="90" y="-67"/>
			<point x="135" y="-13"/>
		</contour>
	</outline>
</glyph>
<glyph name="hungarumlaut" format="2">
	<advance width="300"/>
	<unicode hex="02DD"/>
	<note>
		hungarumlaut
	</note>
	<outline>
		<contour>
			<point x="70" y="580" type="line"/>
			<point x="112" y="580" type="line"/>
			<point x="191" y="690" type="line"/>
			<point x="130" y="690" type="line"/>
		</contour>
		<contour>
			<point x="184" y="580" type="line"/>
			<point x="226" y="580" type="line"/>
			<point x="305" y="690" type="line"/>
			<point x="244" y="690" type="line"/>
		</contour>
	</outline>
</glyph>
<glyph name="uni1B00" format="2">
	<advance width="1295"/>
	<unicode hex="1B00"/>
	<outline>
		<contour>
			<point x="500" y="279" type="curve" smooth="yes"/>
			<point x="500" y="425"/>
			<point x="423" y="543"/>
			<point x="275" y="543" type="curve" smooth="yes"/>
			<point x="136" y="543"/>
			<point x="30" y="434"/>
			<point x="30" y="264" type="curve" smooth="yes"/>
			<point x="30" y="78"/>
			<point x="133" y="-14"/>
			<point x="265" y="-14" type="curve" smooth="yes"/>
			<point x="371" y="-14"/>
			<point x="468" y="44"/>
			<point x="493" y="167" type="curve"/>
			<point x="428" y="167" type="line"/>
			<point x="409" y="80"/>
			<point x="343" y="35"/>
			<point x="269" y="35" type="curve" smooth="yes"/>
			<point x="183" y="35"/>
			<point x="104" y="90"/>
			<point x="97" y="246" type="curve"/>
			<point x="498" y="246" type="line"/>
			<point x="500" y="262"/>
			<point x="500" y="272"/>
		</contour>
		<contour>
			<point x="97" y="295" type="line"/>
			<point x="106" y="427"/>
			<point x="186" y="493"/>
			<point x="273" y="493" type="curve" smooth="yes"/>
			<point x="362" y="493"/>
			<point x="430" y="431"/>
			<point x="437" y="295" type="curve"/>
		</contour>
		<contour>
			<point x="168" y="610" type="line"/>
			<point x="370" y="610" type="line"/>
			<point x="370" y="650" type="line"/>
			<point x="168" y="650" type="line"/>
		</contour>
		<contour>
			<point x="562" y="477" type="line"/>
			<point x="630" y="477" type="line"/>
			<point x="630" y="144" type="line" smooth="yes"/>
			<point x="630" y="114"/>
			<point x="630" y="94"/>
			<point x="631" y="76" type="curve" smooth="yes"/>
			<point x="636" y="18"/>
			<point x="667" y="-8"/>
			<point x="726" y="-8" type="curve" smooth="yes"/>
			<point x="747" y="-8"/>
			<point x="769" y="-7"/>
			<point x="790" y="-3" type="curve"/>
			<point x="790" y="43" type="line"/>
			<point x="719" y="34"/>
			<point x="697" y="47"/>
			<point x="693" y="98" type="curve" smooth="yes"/>
			<point x="692" y="112"/>
			<point x="692" y="123"/>
			<point x="692" y="145" type="curve" smooth="yes"/>
			<point x="692" y="477" type="line"/>
			<point x="1254" y="477" type="line"/>
			<point x="1256" y="493"/>
			<point x="1256" y="503"/>
			<point x="1256" y="510" type="curve" smooth="yes"/>
			<point x="1256" y="656"/>
			<point x="1179" y="774"/>
			<point x="1031" y="774" type="curve" smooth="yes"/>
			<point x="900" y="774"/>
			<point x="799" y="678"/>
			<point x="787" y="525" type="curve"/>
			<point x="692" y="525" type="line"/>
			<point x="692" y="642" type="line"/>
			<point x="630" y="642" type="line"/>
			<point x="630" y="525" type="line"/>
			<point x="562" y="525" type="line"/>
		</contour>
		<contour>
			<point x="853" y="525" type="line"/>
			<point x="862" y="657"/>
			<point x="942" y="723"/>
			<point x="1029" y="723" type="curve" smooth="yes"/>
			<point x="1118" y="723"/>
			<point x="1186" y="661"/>
			<point x="1193" y="525" type="curve"/>
		</contour>
	</outline>
</glyph>
<glyph name="Wgrave" format="2">
	<advance width="904"/>
	<unicode hex="1E80"/>
	<note>
		Wgrave
	</note>
	<outline>
		<contour>
			<point x="369" y="830" type="line"/>
			<point x="441" y="736" type="line"/>
			<point x="483" y="736" type="line"/>
			<point x="430" y="830" type="line"/>
		</contour>
		<contour>
			<point x="711" y="0" type="line"/>
			<point x="900" y="690" type="line"/>
			<point x="835" y="690" type="line"/>
			<point x="673" y="56" type="line"/>
			<point x="506" y="680" type="line"/>
			<point x="423" y="680" type="line"/>
			<point x="249" y="56" type="line"/>
			<point x="96" y="690" type="line"/>
			<point x="26" y="690" type="line"/>
			<point x="205" y="0" type="line"/>
			<point x="287" y="0" type="line"/>
			<point x="463" y="618" type="line"/>
			<point x="630" y="0" type="line"/>
		</contour>
	</outline>
</glyph>
<glyph name="wdieresis" format="2">
	<advance width="759"/>
	<unicode hex="1E85"/>
	<note>
		wdieresis
	</note>
	<outline>
		<contour>
			<point x="585" y="0" type="line"/>
			<point x="752" y="529" type="line"/>
			<point x="686" y="529" type="line"/>
			<point x="551" y="62" type="line"/>
			<point x="421" y="528" type="line"/>
			<point x="342" y="528" type="line"/>
			<point x="213" y="57" type="line"/>
			<point x="77" y="529" type="line"/>
			<point x="6" y="529" type="line"/>
			<point x="174" y="0" type="line"/>
			<point x="250" y="0" type="line"/>
			<point x="380" y="466" type="line"/>
			<point x="510" y="0" type="line"/>
		</contour>
		<contour>
			<point x="288" y="664" type="line"/>
			<point x="288" y="592" type="line"/>
			<point x="360" y="592" type="line"/>
			<point x="360" y="664" type="line"/>
		</contour>
		<contour>
			<point x="402" y="664" type="line"/>
			<point x="402" y="592" type="line"/>
			<point x="474" y="592" type="line"/>
			<point x="474" y="664" type="line"/>
		</contour>
	</outline>
</glyph>
<glyph name="emdash" format="2">
	<advance width="1000"/>
	<unicode hex="2014"/>
	<note>
		emdash
	</note>
	<outline>
		<contour>
			<point x="70" y="270" type="line"/>
			<point x="930" y="270" type="line"/>
			<point x="930" y="313" type="line"/>
			<point x="70" y="313" type="line"/>
		</contour>
	</outline>
</glyph>
<glyph name="quoteleft" format="2">
	<advance width="197"/>
	<unicode hex="2018"/>
	<note>
		quoteleft
	</note>
	<outline>
		<contour>
			<point x="126" y="735" type="line"/>
			<point x="39" y="495" type="line"/>
			<point x="39" y="487" type="line"/>
			<point x="106" y="487" type="line"/>
			<point x="181" y="735" type="line"/>
		</contour>
	</outline>
</glyph>
<glyph name="quotedblleft" format="2">
	<advance width="337"/>
	<unicode hex="201C"/>
	<note>
		quotedblleft
	</note>
	<outline>
		<contour>
			<point x="125" y="735" type="line"/>
			<point x="39" y="495" type="line"/>
			<point x="39" y="487" type="line"/>
			<point x="106" y="487" type="line"/>
			<point x="181" y="735" type="line"/>
		</contour>
		<contour>
			<point x="265" y="735" type="line"/>
			<point x="179" y="495" type="line"/>
			<point x="179" y="487" type="line"/>
			<point x="246" y="487" type="line"/>
			<point x="321" y="735" type="line"/>
		</contour>
	</outline>
</glyph>
<glyph name="dagger" format="2">
	<advance width="550"/>
	<unicode hex="2020"/>
	<note>
		dagger
	</note>
	<outline>
		<contour>
			<point x="304" y="390" type="line"/>
			<point x="487" y="385" type="line"/>
			<point x="487" y="442" type="line"/>
			<point x="304" y="437" type="line"/>
			<point x="312" y="690" type="line"/>
			<point x="238" y="690" type="line"/>
			<point x="246" y="437" type="line"/>
			<point x="64" y="442" type="line"/>
			<point x="64" y="385" type="line"/>
			<point x="246" y="390" type="line"/>
			<point x="239" y="-160" type="line"/>
			<point x="312" y="-160" type="line"/>
		</contour>
	</outline>
</glyph>
<glyph name="daggerdbl" format="2">
	<advance width="550"/>
	<unicode hex="2021"/>
	<note>
		daggerdbl
	</note>
	<outline>
		<contour>
			<point x="304" y="139" type="line"/>
			<point x="304" y="390" type="line"/>
			<point x="487" y="385" type="line"/>
			<point x="487" y="442" type="line"/>
			<point x="304" y="437" type="line"/>
			<point x="312" y="690" type="line"/>
			<point x="238" y="690" type="line"/>
			<point x="246" y="437" type="line"/>
			<point x="64" y="442" type="line"/>
			<point x="64" y="385" type="line"/>
			<point x="246" y="390" type="line"/>
			<point x="246" y="139" type="line"/>
			<point x="64" y="144" type="line"/>
			<point x="64" y="87" type="line"/>
			<point x="246" y="92" type="line"/>
			<point x="239" y="-160" type="line"/>
			<point x="312" y="-160" type="line"/>
			<point x="304" y="92" type="line"/>
			<point x="487" y="87" type="line"/>
			<point x="487" y="144" type="line"/>
		</contour>
	</outline>
</glyph>
<glyph name="ellipsis" format="2">
	<advance width="519"/>
	<unicode hex="2026"/>
	<note>
		ellipsis
	</note>
	<outline>
		<contour>
			<point x="39" y="81" type="line"/>
			<point x="39" y="-15" type="line"/>
			<point x="134" y="-15" type="line"/>
			<point x="134" y="81" type="line"/>
		</contour>
		<contour>
			<point x="200" y="81" type="line"/>
			<point x="200" y="-15" type="line"/>
			<point x="295" y="-15" type="line"/>
			<point x="295" y="81" type="line"/>
		</contour>
		<contour>
			<point x="363" y="81" type="line"/>
			<point x="363" y="-15" type="line"/>
			<point x="458" y="-15" type="line"/>
			<point x="458" y="81" type="line"/>
		</contour>
	</outline>
</glyph>
<glyph name="guilsinglleft" format="2">
	<advance width="385"/>
	<unicode hex="2039"/>
	<note>
		guilsinglleft
	</note>
	<outline>
		<contour>
			<point x="184" y="248" type="line"/>
			<point x="321" y="414" type="line"/>
			<point x="264" y="414" type="line"/>
			<point x="127" y="248" type="line"/>
			<point x="264" y="82" type="line"/>
			<point x="321" y="82" type="line"/>
		</contour>
	</outline>
</glyph>
<glyph name="guilsinglright" format="2">
	<advance width="385"/>
	<unicode hex="203A"/>
	<note>
		guilsinglright
	</note>
	<outline>
		<contour>
			<point x="121" y="82" type="line"/>
			<point x="258" y="248" type="line"/>
			<point x="121" y="414" type="line"/>
			<point x="65" y="414" type="line"/>
			<point x="202" y="248" type="line"/>
			<point x="65" y="82" type="line"/>
		</contour>
	</outline>
</glyph>
<glyph name="fraction" format="2">
	<advance width="174"/>
	<unicode hex="2044"/>
	<note>
		fraction
	</note>
	<outline>
		<contour>
			<point x="-169" y="0" type="line"/>
			<point x="-105" y="0" type="line"/>
			<point x="343" y="690" type="line"/>
			<point x="279" y="690" type="line"/>
		</contour>
	</outline>
</glyph>
<glyph name="partialdiff" format="2">
	<advance width="561"/>
	<unicode hex="2202"/>
	<note>
		partialdiff
	</note>
	<outline>
		<contour>
			<point x="255" y="758" type="curve" smooth="yes"/>
			<point x="183" y="758"/>
			<point x="131" y="740"/>
			<point x="78" y="695" type="curve"/>
			<point x="106" y="656" type="line"/>
			<point x="150" y="693"/>
			<point x="189" y="709"/>
			<point x="251" y="709" type="curve" smooth="yes"/>
			<point x="385" y="709"/>
			<point x="429" y="566"/>
			<point x="436" y="399" type="curve"/>
			<point x="408" y="447"/>
			<point x="352" y="479"/>
			<point x="282" y="479" type="curve" smooth="yes"/>
			<point x="131" y="479"/>
			<point x="46" y="367"/>
			<point x="46" y="225" type="curve" smooth="yes"/>
			<point x="46" y="73"/>
			<point x="143" y="-14"/>
			<point x="263" y="-14" type="curve" smooth="yes"/>
			<point x="413" y="-14"/>
			<point x="505" y="95"/>
			<point x="505" y="341" type="curve" smooth="yes"/>
			<point x="505" y="560"/>
			<point x="451" y="758"/>
		</contour>
		<contour>
			<point x="268" y="35" type="curve" smooth="yes"/>
			<point x="182" y="35"/>
			<point x="114" y="101"/>
			<point x="114" y="228" type="curve" smooth="yes"/>
			<point x="114" y="347"/>
			<point x="174" y="430"/>
			<point x="284" y="430" type="curve" smooth="yes"/>
			<point x="349" y="430"/>
			<point x="405" y="400"/>
			<point x="439" y="328" type="curve"/>
			<point x="435" y="138"/>
			<point x="382" y="35"/>
		</contour>
	</outline>
</glyph>
<glyph name="product" format="2">
	<advance width="561"/>
	<unicode hex="220F"/>
	<note>
		product
	</note>
	<outline>
		<contour>
			<point x="467" y="638" type="line"/>
			<point x="526" y="638" type="line"/>
			<point x="526" y="690" type="line"/>
			<point x="36" y="690" type="line"/>
			<point x="36" y="638" type="line"/>
			<point x="95" y="638" type="line"/>
			<point x="95" y="-110" type="line"/>
			<point x="157" y="-110" type="line"/>
			<point x="157" y="638" type="line"/>
			<point x="405" y="638" type="line"/>
			<point x="405" y="-110" type="line"/>
			<point x="467" y="-110" type="line"/>
		</contour>
	</outline>
</glyph>
<glyph name="minus" format="2">
	<advance width="561"/>
	<unicode hex="2212"/>
	<note>
		minus
	</note>
	<outline>
		<contour>
			<point x="74" y="297" type="line"/>
			<point x="487" y="297" type="line"/>
			<point x="487" y="340" type="line"/>
			<point x="74" y="340" type="line"/>
		</contour>
	</outline>
</glyph>
<glyph name="infinity" format="2">
	<advance width="989"/>
	<unicode hex="221E"/>
	<note>
		infinity
	</note>
	<outline>
		<contour>
			<point x="720" y="544" type="curve" smooth="yes"/>
			<point x="611" y="544"/>
			<point x="540" y="484"/>
			<point x="496" y="365" type="curve"/>
			<point x="452" y="485"/>
			<point x="373" y="544"/>
			<point x="269" y="544" type="curve" smooth="yes"/>
			<point x="111" y="544"/>
			<point x="30" y="421"/>
			<point x="30" y="265" type="curve" smooth="yes"/>
			<point x="30" y="109"/>
			<point x="111" y="-14"/>
			<point x="269" y="-14" type="curve" smooth="yes"/>
			<point x="378" y="-14"/>
			<point x="448" y="45"/>
			<point x="493" y="167" type="curve"/>
			<point x="537" y="45"/>
			<point x="616" y="-14"/>
			<point x="720" y="-14" type="curve" smooth="yes"/>
			<point x="878" y="-14"/>
			<point x="959" y="109"/>
			<point x="959" y="265" type="curve" smooth="yes"/>
			<point x="959" y="421"/>
			<point x="878" y="544"/>
		</contour>
		<contour>
			<point x="269" y="35" type="curve" smooth="yes"/>
			<point x="176" y="35"/>
			<point x="98" y="121"/>
			<point x="98" y="265" type="curve" smooth="yes"/>
			<point x="98" y="409"/>
			<point x="176" y="495"/>
			<point x="269" y="495" type="curve" smooth="yes"/>
			<point x="352" y="495"/>
			<point x="427" y="434"/>
			<point x="455" y="265" type="curve"/>
			<point x="437" y="96"/>
			<point x="352" y="35"/>
		</contour>
		<contour>
			<point x="720" y="35" type="curve" smooth="yes"/>
			<point x="637" y="35"/>
			<point x="562" y="96"/>
			<point x="534" y="265" type="curve"/>
			<point x="552" y="434"/>
			<point x="637" y="495"/>
			<point x="720" y="495" type="curve" smooth="yes"/>
			<point x="814" y="495"/>
			<point x="891" y="409"/>
			<point x="891" y="265" type="curve" smooth="yes"/>
			<point x="891" y="121"/>
			<point x="814" y="35"/>
		</contour>
	</outline>
</glyph>
<glyph name="integral" format="2">
	<advance width="561"/>
	<unicode hex="222B"/>
	<note>
		integral
	</note>
	<outline>
		<contour>
			<point x="323" y="754" type="curve" smooth="yes"/>
			<point x="259" y="754"/>
			<point x="205" y="699"/>
			<point x="205" y="580" type="curve" smooth="yes"/>
			<point x="205" y="514"/>
			<point x="218" y="445"/>
			<point x="253" y="292" type="curve" smooth="yes"/>
			<point x="294" y="118"/>
			<point x="299" y="67"/>
			<point x="299" y="14" type="curve" smooth="yes"/>
			<point x="299" y="-75"/>
			<point x="269" y="-117"/>
			<point x="228" y="-117" type="curve" smooth="yes"/>
			<point x="207" y="-117"/>
			<point x="191" y="-113"/>
			<point x="173" y="-96" type="curve"/>
			<point x="158" y="-136" type="line"/>
			<point x="180" y="-154"/>
			<point x="202" y="-160"/>
			<point x="230" y="-160" type="curve" smooth="yes"/>
			<point x="293" y="-160"/>
			<point x="347" y="-105"/>
			<point x="347" y="14" type="curve" smooth="yes"/>
			<point x="347" y="80"/>
			<point x="334" y="149"/>
			<point x="299" y="303" type="curve" smooth="yes"/>
			<point x="258" y="476"/>
			<point x="253" y="528"/>
			<point x="253" y="580" type="curve" smooth="yes"/>
			<point x="253" y="669"/>
			<point x="283" y="711"/>
			<point x="324" y="711" type="curve" smooth="yes"/>
			<point x="345" y="711"/>
			<point x="361" y="707"/>
			<point x="380" y="690" type="curve"/>
			<point x="394" y="730" type="line"/>
			<point x="372" y="748"/>
			<point x="350" y="754"/>
		</contour>
	</outline>
</glyph>
<glyph name="approxequal" format="2">
	<advance width="561"/>
	<unicode hex="2248"/>
	<note>
		approxequal
	</note>
	<outline>
		<contour>
			<point x="177" y="439" type="curve" smooth="yes"/>
			<point x="126" y="439"/>
			<point x="90" y="417"/>
			<point x="59" y="367" type="curve"/>
			<point x="92" y="339" type="line"/>
			<point x="116" y="377"/>
			<point x="138" y="393"/>
			<point x="174" y="393" type="curve" smooth="yes"/>
			<point x="204" y="393"/>
			<point x="228" y="381"/>
			<point x="270" y="359" type="curve" smooth="yes"/>
			<point x="321" y="332"/>
			<point x="346" y="319"/>
			<point x="383" y="319" type="curve" smooth="yes"/>
			<point x="436" y="319"/>
			<point x="471" y="344"/>
			<point x="502" y="394" type="curve"/>
			<point x="469" y="419" type="line"/>
			<point x="445" y="381"/>
			<point x="424" y="365"/>
			<point x="387" y="365" type="curve" smooth="yes"/>
			<point x="357" y="365"/>
			<point x="333" y="377"/>
			<point x="291" y="400" type="curve" smooth="yes"/>
			<point x="240" y="427"/>
			<point x="215" y="439"/>
		</contour>
		<contour>
			<point x="177" y="272" type="curve" smooth="yes"/>
			<point x="126" y="272"/>
			<point x="90" y="250"/>
			<point x="59" y="199" type="curve"/>
			<point x="92" y="172" type="line"/>
			<point x="116" y="210"/>
			<point x="138" y="226"/>
			<point x="174" y="226" type="curve" smooth="yes"/>
			<point x="204" y="226"/>
			<point x="228" y="214"/>
			<point x="270" y="191" type="curve" smooth="yes"/>
			<point x="321" y="164"/>
			<point x="346" y="152"/>
			<point x="383" y="152" type="curve" smooth="yes"/>
			<point x="436" y="152"/>
			<point x="471" y="176"/>
			<point x="502" y="227" type="curve"/>
			<point x="469" y="252" type="line"/>
			<point x="445" y="214"/>
			<point x="424" y="198"/>
			<point x="387" y="198" type="curve" smooth="yes"/>
			<point x="357" y="198"/>
			<point x="333" y="210"/>
			<point x="291" y="232" type="curve" smooth="yes"/>
			<point x="240" y="259"/>
			<point x="215" y="272"/>
		</contour>
	</outline>
</glyph>
<glyph name="lessequal" format="2">
	<advance width="561"/>
	<unicode hex="2264"/>
	<note>
		lessequal
	</note>
	<outline>
		<contour>
			<point x="132" y="295" type="line"/>
			<point x="496" y="442" type="line"/>
			<point x="496" y="493" type="line"/>
			<point x="83" y="321" type="line"/>
			<point x="83" y="271" type="line"/>
			<point x="496" y="98" type="line"/>
			<point x="496" y="151" type="line"/>
		</contour>
		<contour>
			<point x="496" y="43" type="line"/>
			<point x="83" y="43" type="line"/>
			<point x="83" y="0" type="line"/>
			<point x="496" y="0" type="line"/>
		</contour>
	</outline>
</glyph>
<glyph name="greaterequal" format="2">
	<advance width="561"/>
	<unicode hex="2265"/>
	<note>
		greaterequal
	</note>
	<outline>
		<contour>
			<point x="478" y="271" type="line"/>
			<point x="478" y="321" type="line"/>
			<point x="66" y="493" type="line"/>
			<point x="66" y="440" type="line"/>
			<point x="429" y="296" type="line"/>
			<point x="66" y="150" type="line"/>
			<point x="66" y="98" type="line"/>
		</contour>
		<contour>
			<point x="478" y="43" type="line"/>
			<point x="66" y="43" type="line"/>
			<point x="66" y="0" type="line"/>
			<point x="478" y="0" type="line"/>
		</contour>
	</outline>
</glyph>
<glyph name="A_O" format="2">
	<advance width="1138"/>
	<unicode hex="F1030"/>
	<outline>
		<contour>
			<point x="187" y="253" type="line"/>
			<point x="467" y="253" type="line"/>
			<point x="498" y="94"/>
			<point x="609" y="-14"/>
			<point x="779" y="-14" type="curve" smooth="yes"/>
			<point x="981" y="-14"/>
			<point x="1100" y="137"/>
			<point x="1100" y="345" type="curve" smooth="yes"/>
			<point x="1100" y="555"/>
			<point x="981" y="704"/>
			<point x="779" y="704" type="curve" smooth="yes"/>
			<point x="603" y="704"/>
			<point x="489" y="589"/>
			<point x="464" y="419" type="curve"/>
			<point x="370" y="690" type="line"/>
			<point x="287" y="690" type="line"/>
			<point x="32" y="0" type="line"/>
			<point x="98" y="0" type="line"/>
		</contour>
		<contour>
			<point x="205" y="305" type="line"/>
			<point x="327" y="640" type="line"/>
			<point x="444" y="305" type="line"/>
		</contour>
		<contour>
			<point x="528" y="345" type="curve" smooth="yes"/>
			<point x="528" y="539"/>
			<point x="631" y="654"/>
			<point x="779" y="654" type="curve" smooth="yes"/>
			<point x="928" y="654"/>
			<point x="1031" y="539"/>
			<point x="1031" y="345" type="curve" smooth="yes"/>
			<point x="1031" y="152"/>
			<point x="928" y="36"/>
			<point x="779" y="36" type="curve" smooth="yes"/>
			<point x="631" y="36"/>
			<point x="528" y="152"/>
		</contour>
	</outline>
</glyph>
<glyph name="a_o" format="2">
	<advance width="924"/>
	<unicode hex="F1130"/>
	<outline>
		<contour>
			<point x="355" y="40" type="curve"/>
			<point x="412" y="118" type="line"/>
			<point x="451" y="38"/>
			<point x="527" y="-14"/>
			<point x="637" y="-14" type="curve" smooth="yes"/>
			<point x="805" y="-14"/>
			<point x="894" y="109"/>
			<point x="894" y="264" type="curve" smooth="yes"/>
			<point x="894" y="420"/>
			<point x="805" y="543"/>
			<point x="637" y="543" type="curve" smooth="yes"/>
			<point x="544" y="543"/>
			<point x="475" y="505"/>
			<point x="432" y="444" type="curve"/>
			<point x="411" y="507"/>
			<point x="357" y="543"/>
			<point x="260" y="543" type="curve" smooth="yes"/>
			<point x="148" y="543"/>
			<point x="69" y="476"/>
			<point x="62" y="372" type="curve"/>
			<point x="127" y="372" type="line"/>
			<point x="135" y="454"/>
			<point x="187" y="493"/>
			<point x="260" y="493" type="curve" smooth="yes"/>
			<point x="336" y="493"/>
			<point x="373" y="458"/>
			<point x="378" y="397" type="curve" smooth="yes"/>
			<point x="380" y="376"/>
			<point x="380" y="356"/>
			<point x="380" y="332" type="curve" smooth="yes"/>
			<point x="380" y="313" type="line"/>
			<point x="346" y="313" type="line" smooth="yes"/>
			<point x="155" y="313"/>
			<point x="40" y="254"/>
			<point x="40" y="133" type="curve" smooth="yes"/>
			<point x="40" y="37"/>
			<point x="110" y="-14"/>
			<point x="208" y="-14" type="curve" smooth="yes"/>
			<point x="266" y="-14"/>
			<point x="318" y="3"/>
		</contour>
		<contour>
			<point x="108" y="138" type="curve" smooth="yes"/>
			<point x="108" y="240"/>
			<point x="231" y="275"/>
			<point x="380" y="265" type="curve"/>
			<point x="380" y="204" type="line" smooth="yes"/>
			<point x="380" y="105"/>
			<point x="319" y="35"/>
			<point x="227" y="35" type="curve" smooth="yes"/>
			<point x="150" y="35"/>
			<point x="108" y="71"/>
		</contour>
		<contour>
			<point x="448" y="264" type="curve" smooth="yes"/>
			<point x="448" y="408"/>
			<point x="527" y="493"/>
			<point x="637" y="493" type="curve" smooth="yes"/>
			<point x="747" y="493"/>
			<point x="826" y="408"/>
			<point x="826" y="264" type="curve" smooth="yes"/>
			<point x="826" y="120"/>
			<point x="747" y="35"/>
			<point x="637" y="35" type="curve" smooth="yes"/>
			<point x="527" y="35"/>
			<point x="448" y="120"/>
		</contour>
	</outline>
</glyph>
<glyph name="C_Q" format="2">
	<advance width="1243"/>
	<unicode hex="F1440"/>
	<outline>
		<contour>
			<point x="370" y="704" type="curve" smooth="yes"/>
			<point x="181" y="704"/>
			<point x="49" y="554"/>
			<point x="49" y="342" type="curve" smooth="yes"/>
			<point x="49" y="132"/>
			<point x="167" y="-14"/>
			<point x="356" y="-14" type="curve" smooth="yes"/>
			<point x="490" y="-14"/>
			<point x="577" y="47"/>
			<point x="617" y="132" type="curve"/>
			<point x="670" y="41"/>
			<point x="762" y="-14"/>
			<point x="886" y="-14" type="curve" smooth="yes"/>
			<point x="913" y="-14"/>
			<point x="935" y="-12"/>
			<point x="957" y="-7" type="curve" smooth="yes"/>
			<point x="985" y="-1"/>
			<point x="1002" y="2"/>
			<point x="1028" y="2" type="curve" smooth="yes"/>
			<point x="1069" y="2"/>
			<point x="1103" y="-8"/>
			<point x="1165" y="-52" type="curve"/>
			<point x="1201" y="-9" type="line"/>
			<point x="1157" y="28"/>
			<point x="1117" y="50"/>
			<point x="1067" y="55" type="curve"/>
			<point x="1166" y="121"/>
			<point x="1207" y="229"/>
			<point x="1207" y="345" type="curve" smooth="yes"/>
			<point x="1207" y="555"/>
			<point x="1088" y="704"/>
			<point x="886" y="704" type="curve" smooth="yes"/>
			<point x="765" y="704"/>
			<point x="675" y="649"/>
			<point x="621" y="560" type="curve"/>
			<point x="583" y="646"/>
			<point x="498" y="704"/>
		</contour>
		<contour>
			<point x="118" y="345" type="curve" smooth="yes"/>
			<point x="118" y="533"/>
			<point x="225" y="654"/>
			<point x="367" y="654" type="curve" smooth="yes"/>
			<point x="490" y="654"/>
			<point x="559" y="580"/>
			<point x="580" y="475" type="curve" smooth="yes"/>
			<point x="582" y="465" type="line"/>
			<point x="644" y="465" type="line"/>
			<point x="678" y="584"/>
			<point x="772" y="654"/>
			<point x="886" y="654" type="curve" smooth="yes"/>
			<point x="1035" y="654"/>
			<point x="1138" y="539"/>
			<point x="1138" y="345" type="curve" smooth="yes"/>
			<point x="1138" y="152"/>
			<point x="1035" y="36"/>
			<point x="886" y="36" type="curve" smooth="yes"/>
			<point x="769" y="36"/>
			<point x="673" y="103"/>
			<point x="641" y="229" type="curve"/>
			<point x="579" y="229" type="line"/>
			<point x="577" y="219" type="line" smooth="yes"/>
			<point x="556" y="113"/>
			<point x="488" y="36"/>
			<point x="360" y="36" type="curve" smooth="yes"/>
			<point x="220" y="36"/>
			<point x="118" y="153"/>
		</contour>
	</outline>
</glyph>
<glyph name="c_q" format="2">
	<advance width="975"/>
	<unicode hex="F1540"/>
	<outline>
		<contour>
			<point x="276" y="543" type="curve" smooth="yes"/>
			<point x="143" y="543"/>
			<point x="30" y="439"/>
			<point x="30" y="264" type="curve" smooth="yes"/>
			<point x="30" y="77"/>
			<point x="133" y="-14"/>
			<point x="265" y="-14" type="curve" smooth="yes"/>
			<point x="350" y="-14"/>
			<point x="419" y="20"/>
			<point x="460" y="86" type="curve"/>
			<point x="500" y="23"/>
			<point x="566" y="-14"/>
			<point x="652" y="-14" type="curve" smooth="yes"/>
			<point x="713" y="-14"/>
			<point x="765" y="3"/>
			<point x="802" y="40" type="curve"/>
			<point x="837" y="98" type="line"/>
			<point x="837" y="-196" type="line"/>
			<point x="899" y="-196" type="line"/>
			<point x="899" y="532" type="line"/>
			<point x="837" y="532" type="line"/>
			<point x="837" y="438" type="line"/>
			<point x="804" y="495" type="line"/>
			<point x="771" y="527"/>
			<point x="720" y="543"/>
			<point x="668" y="543" type="curve" smooth="yes"/>
			<point x="588" y="543"/>
			<point x="514" y="508"/>
			<point x="468" y="439" type="curve"/>
			<point x="431" y="504"/>
			<point x="365" y="543"/>
		</contour>
		<contour>
			<point x="98" y="269" type="curve" smooth="yes"/>
			<point x="98" y="422"/>
			<point x="185" y="494"/>
			<point x="274" y="494" type="curve" smooth="yes"/>
			<point x="359" y="494"/>
			<point x="412" y="445"/>
			<point x="430" y="356" type="curve"/>
			<point x="495" y="356" type="line"/>
			<point x="522" y="441"/>
			<point x="588" y="493"/>
			<point x="668" y="493" type="curve" smooth="yes"/>
			<point x="746" y="493"/>
			<point x="837" y="442"/>
			<point x="837" y="292" type="curve" smooth="yes"/>
			<point x="837" y="252" type="line" smooth="yes"/>
			<point x="837" y="92"/>
			<point x="755" y="35"/>
			<point x="661" y="35" type="curve" smooth="yes"/>
			<point x="577" y="35"/>
			<point x="514" y="86"/>
			<point x="490" y="165" type="curve"/>
			<point x="426" y="165" type="line"/>
			<point x="407" y="80"/>
			<point x="347" y="35"/>
			<point x="269" y="35" type="curve" smooth="yes"/>
			<point x="180" y="35"/>
			<point x="98" y="106"/>
		</contour>
	</outline>
</glyph>
<glyph name="D_E" format="2">
	<advance width="925"/>
	<unicode hex="F1610"/>
	<outline>
		<contour>
			<point x="383" y="56" type="curve" smooth="yes"/>
			<point x="356" y="52"/>
			<point x="332" y="52"/>
			<point x="298" y="52" type="curve" smooth="yes"/>
			<point x="161" y="52" type="line"/>
			<point x="161" y="638" type="line"/>
			<point x="301" y="638" type="line" smooth="yes"/>
			<point x="337" y="638"/>
			<point x="359" y="638"/>
			<point x="381" y="635" type="curve" smooth="yes"/>
			<point x="495" y="619"/>
			<point x="592" y="528"/>
			<point x="592" y="351" type="curve" smooth="yes"/>
			<point x="592" y="172"/>
			<point x="497" y="73"/>
		</contour>
		<contour>
			<point x="99" y="0" type="line"/>
			<point x="895" y="0" type="line"/>
			<point x="895" y="51" type="line"/>
			<point x="516" y="51" type="line"/>
			<point x="592" y="101"/>
			<point x="651" y="189"/>
			<point x="659" y="319" type="curve"/>
			<point x="859" y="319" type="line"/>
			<point x="859" y="371" type="line"/>
			<point x="660" y="371" type="line"/>
			<point x="655" y="504"/>
			<point x="599" y="590"/>
			<point x="524" y="639" type="curve"/>
			<point x="885" y="639" type="line"/>
			<point x="885" y="690" type="line"/>
			<point x="99" y="690" type="line"/>
		</contour>
	</outline>
</glyph>
<glyph name="E_A" format="2">
	<advance width="870"/>
	<unicode hex="F1810"/>
	<outline>
		<contour>
			<point x="546" y="0" type="line"/>
			<point x="546" y="51" type="line"/>
			<point x="161" y="51" type="line"/>
			<point x="161" y="319" type="line"/>
			<point x="702" y="319" type="line"/>
			<point x="792" y="66" type="line"/>
			<point x="859" y="66" type="line"/>
			<point x="610" y="756" type="line"/>
			<point x="527" y="756" type="line"/>
			<point x="503" y="690" type="line"/>
			<point x="99" y="690" type="line"/>
			<point x="99" y="0" type="line"/>
		</contour>
		<contour>
			<point x="161" y="371" type="line"/>
			<point x="161" y="639" type="line"/>
			<point x="484" y="639" type="line"/>
			<point x="385" y="371" type="line"/>
		</contour>
		<contour>
			<point x="445" y="371" type="line"/>
			<point x="567" y="706" type="line"/>
			<point x="684" y="371" type="line"/>
		</contour>
	</outline>
</glyph>
<glyph name="Eacute_E" format="2">
	<advance width="889"/>
	<unicode hex="F1820"/>
	<outline>
		<contour>
			<point x="294" y="736" type="line"/>
			<point x="336" y="736" type="line"/>
			<point x="408" y="830" type="line"/>
			<point x="348" y="830" type="line"/>
		</contour>
		<contour>
			<point x="99" y="0" type="line"/>
			<point x="859" y="0" type="line"/>
			<point x="859" y="51" type="line"/>
			<point x="474" y="51" type="line"/>
			<point x="474" y="319" type="line"/>
			<point x="823" y="319" type="line"/>
			<point x="823" y="371" type="line"/>
			<point x="474" y="371" type="line"/>
			<point x="474" y="639" type="line"/>
			<point x="849" y="639" type="line"/>
			<point x="849" y="690" type="line"/>
			<point x="99" y="690" type="line"/>
		</contour>
		<contour>
			<point x="161" y="51" type="line"/>
			<point x="161" y="319" type="line"/>
			<point x="412" y="319" type="line"/>
			<point x="412" y="51" type="line"/>
		</contour>
		<contour>
			<point x="161" y="371" type="line"/>
			<point x="161" y="639" type="line"/>
			<point x="412" y="639" type="line"/>
			<point x="412" y="371" type="line"/>
		</contour>
	</outline>
</glyph>
<glyph name="E_T_E" format="2">
	<advance width="1339"/>
	<unicode hex="F1A00"/>
	<outline>
		<contour>
			<point x="546" y="0" type="line"/>
			<point x="546" y="51" type="line"/>
			<point x="161" y="51" type="line"/>
			<point x="161" y="319" type="line"/>
			<point x="510" y="319" type="line"/>
			<point x="510" y="371" type="line"/>
			<point x="161" y="371" type="line"/>
			<point x="161" y="639" type="line"/>
			<point x="536" y="639" type="line"/>
			<point x="536" y="690" type="line"/>
			<point x="99" y="690" type="line"/>
			<point x="99" y="0" type="line"/>
		</contour>
		<contour>
			<point x="609" y="639" type="line"/>
			<point x="862" y="639" type="line"/>
			<point x="862" y="-318" type="line"/>
			<point x="1309" y="-318" type="line"/>
			<point x="1309" y="-267" type="line"/>
			<point x="924" y="-267" type="line"/>
			<point x="924" y="1" type="line"/>
			<point x="1273" y="1" type="line"/>
			<point x="1273" y="53" type="line"/>
			<point x="924" y="53" type="line"/>
			<point x="924" y="321" type="line"/>
			<point x="1299" y="321" type="line"/>
			<point x="1299" y="372" type="line"/>
			<point x="924" y="372" type="line"/>
			<point x="924" y="639" type="line"/>
			<point x="1177" y="639" type="line"/>
			<point x="1177" y="690" type="line"/>
			<point x="609" y="690" type="line"/>
		</contour>
		<contour>
			<point x="218" y="763" type="line"/>
			<point x="420" y="763" type="line"/>
			<point x="420" y="803" type="line"/>
			<point x="218" y="803" type="line"/>
		</contour>
	</outline>
</glyph>
<glyph name="f_f_e" format="2">
	<advance width="813"/>
	<unicode hex="F2130"/>
	<outline>
		<contour>
			<point x="144" y="641" type="curve" smooth="yes"/>
			<point x="150" y="688"/>
			<point x="190" y="711"/>
			<point x="260" y="697" type="curve"/>
			<point x="260" y="749" type="line"/>
			<point x="242" y="752"/>
			<point x="225" y="754"/>
			<point x="204" y="754" type="curve" smooth="yes"/>
			<point x="139" y="754"/>
			<point x="90" y="716"/>
			<point x="82" y="643" type="curve" smooth="yes"/>
			<point x="80" y="624"/>
			<point x="80" y="602"/>
			<point x="80" y="584" type="curve" smooth="yes"/>
			<point x="80" y="525" type="line"/>
			<point x="23" y="525" type="line"/>
			<point x="23" y="475" type="line"/>
			<point x="80" y="475" type="line"/>
			<point x="80" y="0" type="line"/>
			<point x="142" y="0" type="line"/>
			<point x="142" y="475" type="line"/>
			<point x="303" y="475" type="line"/>
			<point x="303" y="0" type="line"/>
			<point x="365" y="0" type="line"/>
			<point x="365" y="228" type="line"/>
			<point x="772" y="228" type="line"/>
			<point x="774" y="244"/>
			<point x="774" y="254"/>
			<point x="774" y="261" type="curve" smooth="yes"/>
			<point x="774" y="407"/>
			<point x="697" y="525"/>
			<point x="549" y="525" type="curve" smooth="yes"/>
			<point x="365" y="525" type="line"/>
			<point x="365" y="589" type="line" smooth="yes"/>
			<point x="365" y="604"/>
			<point x="365" y="624"/>
			<point x="367" y="641" type="curve" smooth="yes"/>
			<point x="373" y="688"/>
			<point x="413" y="711"/>
			<point x="483" y="697" type="curve"/>
			<point x="483" y="749" type="line"/>
			<point x="465" y="752"/>
			<point x="448" y="754"/>
			<point x="427" y="754" type="curve" smooth="yes"/>
			<point x="362" y="754"/>
			<point x="313" y="716"/>
			<point x="305" y="643" type="curve" smooth="yes"/>
			<point x="303" y="624"/>
			<point x="303" y="602"/>
			<point x="303" y="584" type="curve" smooth="yes"/>
			<point x="303" y="525" type="line"/>
			<point x="142" y="525" type="line"/>
			<point x="142" y="589" type="line" smooth="yes"/>
			<point x="142" y="604"/>
			<point x="142" y="624"/>
		</contour>
		<contour>
			<point x="365" y="438" type="curve"/>
			<point x="365" y="475" type="line"/>
			<point x="402" y="475" type="line"/>
			<point x="388" y="464"/>
			<point x="376" y="452"/>
		</contour>
		<contour>
			<point x="371" y="277" type="line"/>
			<point x="380" y="409"/>
			<point x="460" y="475"/>
			<point x="547" y="475" type="curve" smooth="yes"/>
			<point x="636" y="475"/>
			<point x="704" y="413"/>
			<point x="711" y="277" type="curve"/>
		</contour>
	</outline>
</glyph>
<glyph name="f_v" format="2">
	<advance width="546"/>
	<unicode hex="F2150"/>
	<outline>
		<contour>
			<point x="144" y="641" type="curve" smooth="yes"/>
			<point x="150" y="688"/>
			<point x="190" y="711"/>
			<point x="260" y="697" type="curve"/>
			<point x="260" y="749" type="line"/>
			<point x="242" y="752"/>
			<point x="225" y="754"/>
			<point x="204" y="754" type="curve" smooth="yes"/>
			<point x="139" y="754"/>
			<point x="90" y="716"/>
			<point x="82" y="643" type="curve" smooth="yes"/>
			<point x="80" y="624"/>
			<point x="80" y="602"/>
			<point x="80" y="584" type="curve" smooth="yes"/>
			<point x="80" y="525" type="line"/>
			<point x="23" y="525" type="line"/>
			<point x="23" y="475" type="line"/>
			<point x="77" y="475" type="line"/>
			<point x="258" y="0" type="line"/>
			<point x="335" y="0" type="line"/>
			<point x="539" y="529" type="line"/>
			<point x="473" y="529" type="line"/>
			<point x="299" y="46" type="line"/>
			<point x="144" y="475" type="line"/>
			<point x="250" y="475" type="line"/>
			<point x="250" y="525" type="line"/>
			<point x="142" y="525" type="line"/>
			<point x="142" y="589" type="line" smooth="yes"/>
			<point x="142" y="604"/>
			<point x="142" y="624"/>
		</contour>
	</outline>
</glyph>
<glyph name="I_E" format="2">
	<advance width="819"/>
	<unicode hex="F2610"/>
	<outline>
		<contour>
			<point x="789" y="0" type="line"/>
			<point x="789" y="51" type="line"/>
			<point x="404" y="51" type="line"/>
			<point x="404" y="319" type="line"/>
			<point x="753" y="319" type="line"/>
			<point x="753" y="371" type="line"/>
			<point x="404" y="371" type="line"/>
			<point x="404" y="639" type="line"/>
			<point x="779" y="639" type="line"/>
			<point x="779" y="690" type="line"/>
			<point x="342" y="690" type="line"/>
			<point x="342" y="0" type="line"/>
		</contour>
		<contour>
			<point x="104" y="161" type="line"/>
			<point x="166" y="161" type="line"/>
			<point x="166" y="690" type="line"/>
			<point x="104" y="690" type="line"/>
		</contour>
		<contour>
			<point x="99" y="838" type="line"/>
			<point x="99" y="766" type="line"/>
			<point x="171" y="766" type="line"/>
			<point x="171" y="838" type="line"/>
		</contour>
	</outline>
</glyph>
<glyph name="i_e" format="2">
	<advance width="582"/>
	<unicode hex="F2710"/>
	<outline>
		<contour>
			<point x="73" y="0" type="line"/>
			<point x="135" y="0" type="line"/>
			<point x="135" y="246" type="line"/>
			<point x="541" y="246" type="line"/>
			<point x="543" y="262"/>
			<point x="543" y="272"/>
			<point x="543" y="279" type="curve" smooth="yes"/>
			<point x="543" y="425"/>
			<point x="466" y="543"/>
			<point x="318" y="543" type="curve" smooth="yes"/>
			<point x="244" y="543"/>
			<point x="179" y="512"/>
			<point x="135" y="457" type="curve"/>
			<point x="135" y="529" type="line"/>
			<point x="73" y="529" type="line"/>
		</contour>
		<contour>
			<point x="68" y="605" type="line"/>
			<point x="140" y="605" type="line"/>
			<point x="140" y="677" type="line"/>
			<point x="68" y="677" type="line"/>
		</contour>
		<contour>
			<point x="140" y="295" type="line"/>
			<point x="149" y="427"/>
			<point x="229" y="493"/>
			<point x="316" y="493" type="curve" smooth="yes"/>
			<point x="405" y="493"/>
			<point x="473" y="431"/>
			<point x="480" y="295" type="curve"/>
		</contour>
	</outline>
</glyph>
<glyph name="L_E" format="2">
	<advance width="787"/>
	<unicode hex="F3210"/>
	<outline>
		<contour>
			<point x="99" y="0" type="line"/>
			<point x="757" y="0" type="line"/>
			<point x="757" y="51" type="line"/>
			<point x="372" y="51" type="line"/>
			<point x="372" y="319" type="line"/>
			<point x="721" y="319" type="line"/>
			<point x="721" y="371" type="line"/>
			<point x="372" y="371" type="line"/>
			<point x="372" y="639" type="line"/>
			<point x="747" y="639" type="line"/>
			<point x="747" y="690" type="line"/>
			<point x="310" y="690" type="line"/>
			<point x="310" y="51" type="line"/>
			<point x="161" y="51" type="line"/>
			<point x="161" y="690" type="line"/>
			<point x="99" y="690" type="line"/>
		</contour>
	</outline>
</glyph>
<glyph name="L_U" format="2">
	<advance width="1051"/>
	<unicode hex="F3250"/>
	<outline>
		<contour>
			<point x="983" y="31" type="curve" smooth="yes"/>
			<point x="983" y="474" type="line"/>
			<point x="921" y="474" type="line"/>
			<point x="921" y="34" type="line" smooth="yes"/>
			<point x="921" y="12"/>
			<point x="920" y="-8"/>
			<point x="918" y="-27" type="curve" smooth="yes"/>
			<point x="910" y="-114"/>
			<point x="853" y="-180"/>
			<point x="738" y="-180" type="curve" smooth="yes"/>
			<point x="622" y="-180"/>
			<point x="565" y="-114"/>
			<point x="557" y="-27" type="curve" smooth="yes"/>
			<point x="555" y="-8"/>
			<point x="555" y="12"/>
			<point x="555" y="34" type="curve" smooth="yes"/>
			<point x="555" y="263" type="line"/>
			<point x="493" y="263" type="line"/>
			<point x="493" y="51" type="line"/>
			<point x="161" y="51" type="line"/>
			<point x="161" y="690" type="line"/>
			<point x="99" y="690" type="line"/>
			<point x="99" y="0" type="line"/>
			<point x="493" y="0" type="line"/>
			<point x="494" y="-10"/>
			<point x="494" y="-21"/>
			<point x="495" y="-33" type="curve" smooth="yes"/>
			<point x="504" y="-145"/>
			<point x="580" y="-230"/>
			<point x="738" y="-230" type="curve" smooth="yes"/>
			<point x="895" y="-230"/>
			<point x="972" y="-145"/>
			<point x="980" y="-33" type="curve" smooth="yes"/>
			<point x="982" y="-9"/>
			<point x="983" y="11"/>
		</contour>
	</outline>
</glyph>
<glyph name="l_l_e" format="2">
	<advance width="798"/>
	<unicode hex="F3330"/>
	<outline>
		<contour>
			<point x="131" y="140" type="curve" smooth="yes"/>
			<point x="131" y="735" type="line"/>
			<point x="69" y="735" type="line"/>
			<point x="69" y="138" type="line" smooth="yes"/>
			<point x="69" y="106"/>
			<point x="69" y="85"/>
			<point x="70" y="67" type="curve" smooth="yes"/>
			<point x="73" y="10"/>
			<point x="104" y="-4"/>
			<point x="145" y="-4" type="curve" smooth="yes"/>
			<point x="161" y="-4"/>
			<point x="178" y="-4"/>
			<point x="194" y="-1" type="curve"/>
			<point x="194" y="45" type="line"/>
			<point x="149" y="40"/>
			<point x="134" y="49"/>
			<point x="132" y="83" type="curve" smooth="yes"/>
			<point x="131" y="99"/>
			<point x="131" y="117"/>
		</contour>
		<contour>
			<point x="350" y="140" type="curve" smooth="yes"/>
			<point x="350" y="246" type="line"/>
			<point x="757" y="246" type="line"/>
			<point x="759" y="262"/>
			<point x="759" y="272"/>
			<point x="759" y="279" type="curve" smooth="yes"/>
			<point x="759" y="425"/>
			<point x="682" y="543"/>
			<point x="534" y="543" type="curve" smooth="yes"/>
			<point x="459" y="543"/>
			<point x="394" y="512"/>
			<point x="350" y="456" type="curve"/>
			<point x="350" y="735" type="line"/>
			<point x="288" y="735" type="line"/>
			<point x="288" y="138" type="line" smooth="yes"/>
			<point x="288" y="106"/>
			<point x="288" y="85"/>
			<point x="289" y="67" type="curve" smooth="yes"/>
			<point x="292" y="10"/>
			<point x="323" y="-4"/>
			<point x="364" y="-4" type="curve" smooth="yes"/>
			<point x="380" y="-4"/>
			<point x="397" y="-4"/>
			<point x="413" y="-1" type="curve"/>
			<point x="413" y="45" type="line"/>
			<point x="368" y="40"/>
			<point x="353" y="49"/>
			<point x="351" y="83" type="curve" smooth="yes"/>
			<point x="350" y="99"/>
			<point x="350" y="117"/>
		</contour>
		<contour>
			<point x="356" y="295" type="line"/>
			<point x="365" y="427"/>
			<point x="445" y="493"/>
			<point x="532" y="493" type="curve" smooth="yes"/>
			<point x="621" y="493"/>
			<point x="689" y="431"/>
			<point x="696" y="295" type="curve"/>
		</contour>
	</outline>
</glyph>
<glyph name="m_p" format="2">
	<advance width="1220"/>
	<unicode hex="F3510"/>
	<outline>
		<contour>
			<point x="954" y="543" type="curve" smooth="yes"/>
			<point x="893" y="543"/>
			<point x="841" y="525"/>
			<point x="804" y="489" type="curve"/>
			<point x="769" y="431" type="line"/>
			<point x="761" y="417" type="line"/>
			<point x="745" y="492"/>
			<point x="693" y="543"/>
			<point x="604" y="543" type="curve" smooth="yes"/>
			<point x="554" y="543"/>
			<point x="512" y="529"/>
			<point x="482" y="497" type="curve"/>
			<point x="441" y="430" type="line"/>
			<point x="423" y="498"/>
			<point x="371" y="543"/>
			<point x="287" y="543" type="curve" smooth="yes"/>
			<point x="237" y="543"/>
			<point x="196" y="529"/>
			<point x="165" y="497" type="curve"/>
			<point x="135" y="438" type="line"/>
			<point x="135" y="529" type="line"/>
			<point x="73" y="529" type="line"/>
			<point x="73" y="0" type="line"/>
			<point x="135" y="0" type="line"/>
			<point x="135" y="277" type="line" smooth="yes"/>
			<point x="135" y="434"/>
			<point x="193" y="493"/>
			<point x="268" y="493" type="curve" smooth="yes"/>
			<point x="338" y="493"/>
			<point x="377" y="452"/>
			<point x="386" y="381" type="curve" smooth="yes"/>
			<point x="389" y="354"/>
			<point x="390" y="327"/>
			<point x="390" y="284" type="curve" smooth="yes"/>
			<point x="390" y="0" type="line"/>
			<point x="452" y="0" type="line"/>
			<point x="452" y="277" type="line" smooth="yes"/>
			<point x="452" y="434"/>
			<point x="510" y="493"/>
			<point x="585" y="493" type="curve" smooth="yes"/>
			<point x="655" y="493"/>
			<point x="694" y="452"/>
			<point x="703" y="381" type="curve" smooth="yes"/>
			<point x="705" y="367"/>
			<point x="706" y="353"/>
			<point x="706" y="337" type="curve" smooth="yes"/>
			<point x="707" y="-196" type="line"/>
			<point x="769" y="-196" type="line"/>
			<point x="769" y="90" type="line"/>
			<point x="802" y="33" type="line"/>
			<point x="835" y="2"/>
			<point x="886" y="-14"/>
			<point x="938" y="-14" type="curve" smooth="yes"/>
			<point x="1072" y="-14"/>
			<point x="1190" y="79"/>
			<point x="1190" y="271" type="curve" smooth="yes"/>
			<point x="1190" y="428"/>
			<point x="1102" y="543"/>
		</contour>
		<contour>
			<point x="769" y="237" type="curve" smooth="yes"/>
			<point x="769" y="277" type="line" smooth="yes"/>
			<point x="769" y="437"/>
			<point x="851" y="493"/>
			<point x="945" y="493" type="curve" smooth="yes"/>
			<point x="1061" y="493"/>
			<point x="1122" y="390"/>
			<point x="1122" y="263" type="curve" smooth="yes"/>
			<point x="1122" y="120"/>
			<point x="1044" y="35"/>
			<point x="938" y="35" type="curve" smooth="yes"/>
			<point x="860" y="35"/>
			<point x="769" y="86"/>
		</contour>
	</outline>
</glyph>
<glyph name="N_A" format="2">
	<advance width="914"/>
	<unicode hex="F3610"/>
	<outline>
		<contour>
			<point x="517" y="0" type="line"/>
			<point x="612" y="0" type="line"/>
			<point x="612" y="253" type="line"/>
			<point x="746" y="253" type="line"/>
			<point x="836" y="0" type="line"/>
			<point x="903" y="0" type="line"/>
			<point x="654" y="690" type="line"/>
			<point x="550" y="690" type="line"/>
			<point x="550" y="334" type="line" smooth="yes"/>
			<point x="550" y="248"/>
			<point x="551" y="146"/>
			<point x="553" y="60" type="curve"/>
			<point x="193" y="690" type="line"/>
			<point x="99" y="690" type="line"/>
			<point x="99" y="0" type="line"/>
			<point x="161" y="0" type="line"/>
			<point x="161" y="356" type="line" smooth="yes"/>
			<point x="161" y="442"/>
			<point x="160" y="545"/>
			<point x="158" y="630" type="curve"/>
		</contour>
		<contour>
			<point x="611" y="640" type="line"/>
			<point x="728" y="305" type="line"/>
			<point x="612" y="305" type="line"/>
		</contour>
	</outline>
</glyph>
<glyph name="N_E" format="2">
	<advance width="1027"/>
	<unicode hex="F3620"/>
	<outline>
		<contour>
			<point x="517" y="0" type="line"/>
			<point x="612" y="0" type="line"/>
			<point x="997" y="0" type="line"/>
			<point x="997" y="52" type="line"/>
			<point x="612" y="52" type="line"/>
			<point x="612" y="320" type="line"/>
			<point x="961" y="320" type="line"/>
			<point x="961" y="372" type="line"/>
			<point x="612" y="372" type="line"/>
			<point x="612" y="640" type="line"/>
			<point x="987" y="640" type="line"/>
			<point x="987" y="691" type="line"/>
			<point x="550" y="691" type="line"/>
			<point x="550" y="65" type="line"/>
			<point x="193" y="690" type="line"/>
			<point x="99" y="690" type="line"/>
			<point x="99" y="0" type="line"/>
			<point x="161" y="0" type="line"/>
			<point x="161" y="356" type="line" smooth="yes"/>
			<point x="161" y="442"/>
			<point x="160" y="545"/>
			<point x="158" y="630" type="curve"/>
		</contour>
	</outline>
</glyph>
<glyph name="n_a" format="2">
	<advance width="889"/>
	<unicode hex="F3710"/>
	<outline>
		<contour>
			<point x="753" y="96" type="line"/>
			<point x="762" y="0" type="line"/>
			<point x="824" y="0" type="line"/>
			<point x="817" y="63"/>
			<point x="814" y="101"/>
			<point x="814" y="148" type="curve" smooth="yes"/>
			<point x="814" y="333" type="line" smooth="yes"/>
			<point x="814" y="358"/>
			<point x="814" y="380"/>
			<point x="812" y="403" type="curve" smooth="yes"/>
			<point x="804" y="490"/>
			<point x="749" y="543"/>
			<point x="632" y="543" type="curve" smooth="yes"/>
			<point x="561" y="543"/>
			<point x="504" y="516"/>
			<point x="470" y="470" type="curve"/>
			<point x="439" y="516"/>
			<point x="386" y="543"/>
			<point x="312" y="543" type="curve" smooth="yes"/>
			<point x="253" y="543"/>
			<point x="206" y="527"/>
			<point x="163" y="484" type="curve"/>
			<point x="135" y="427" type="line"/>
			<point x="135" y="529" type="line"/>
			<point x="73" y="529" type="line"/>
			<point x="73" y="0" type="line"/>
			<point x="135" y="0" type="line"/>
			<point x="135" y="263" type="line" smooth="yes"/>
			<point x="135" y="428"/>
			<point x="212" y="492"/>
			<point x="300" y="492" type="curve" smooth="yes"/>
			<point x="389" y="492"/>
			<point x="429" y="441"/>
			<point x="436" y="369" type="curve" smooth="yes"/>
			<point x="438" y="342"/>
			<point x="438" y="319"/>
			<point x="438" y="289" type="curve" smooth="yes"/>
			<point x="438" y="220" type="line"/>
			<point x="421" y="196"/>
			<point x="412" y="167"/>
			<point x="412" y="133" type="curve" smooth="yes"/>
			<point x="412" y="37"/>
			<point x="482" y="-14"/>
			<point x="580" y="-14" type="curve" smooth="yes"/>
			<point x="638" y="-14"/>
			<point x="690" y="3"/>
			<point x="727" y="40" type="curve"/>
		</contour>
		<contour>
			<point x="480" y="138" type="curve" smooth="yes"/>
			<point x="480" y="240"/>
			<point x="603" y="275"/>
			<point x="752" y="265" type="curve"/>
			<point x="752" y="204" type="line" smooth="yes"/>
			<point x="752" y="105"/>
			<point x="691" y="35"/>
			<point x="599" y="35" type="curve" smooth="yes"/>
			<point x="522" y="35"/>
			<point x="480" y="71"/>
		</contour>
		<contour>
			<point x="499" y="372" type="curve"/>
			<point x="507" y="454"/>
			<point x="559" y="493"/>
			<point x="632" y="493" type="curve" smooth="yes"/>
			<point x="708" y="493"/>
			<point x="745" y="458"/>
			<point x="750" y="397" type="curve" smooth="yes"/>
			<point x="752" y="376"/>
			<point x="752" y="356"/>
			<point x="752" y="332" type="curve" smooth="yes"/>
			<point x="752" y="313" type="line"/>
			<point x="718" y="313" type="line" smooth="yes"/>
			<point x="626" y="313"/>
			<point x="552" y="299"/>
			<point x="500" y="272" type="curve"/>
			<point x="500" y="296" type="line" smooth="yes"/>
			<point x="500" y="332"/>
			<point x="500" y="351"/>
		</contour>
	</outline>
</glyph>
<glyph name="n_e" format="2">
	<advance width="948"/>
	<unicode hex="F3720"/>
	<outline>
		<contour>
			<point x="909" y="279" type="curve" smooth="yes"/>
			<point x="909" y="425"/>
			<point x="832" y="543"/>
			<point x="684" y="543" type="curve" smooth="yes"/>
			<point x="601" y="543"/>
			<point x="530" y="504"/>
			<point x="486" y="437" type="curve"/>
			<point x="461" y="503"/>
			<point x="402" y="543"/>
			<point x="312" y="543" type="curve" smooth="yes"/>
			<point x="253" y="543"/>
			<point x="206" y="527"/>
			<point x="163" y="484" type="curve"/>
			<point x="135" y="427" type="line"/>
			<point x="135" y="529" type="line"/>
			<point x="73" y="529" type="line"/>
			<point x="73" y="0" type="line"/>
			<point x="135" y="0" type="line"/>
			<point x="135" y="263" type="line" smooth="yes"/>
			<point x="135" y="428"/>
			<point x="212" y="492"/>
			<point x="300" y="492" type="curve" smooth="yes"/>
			<point x="389" y="492"/>
			<point x="429" y="441"/>
			<point x="436" y="369" type="curve" smooth="yes"/>
			<point x="438" y="342"/>
			<point x="438" y="319"/>
			<point x="438" y="289" type="curve" smooth="yes"/>
			<point x="438" y="0" type="line"/>
			<point x="500" y="0" type="line"/>
			<point x="500" y="246" type="line"/>
			<point x="907" y="246" type="line"/>
			<point x="909" y="262"/>
			<point x="909" y="272"/>
		</contour>
		<contour>
			<point x="506" y="295" type="line"/>
			<point x="515" y="427"/>
			<point x="595" y="493"/>
			<point x="682" y="493" type="curve" smooth="yes"/>
			<point x="771" y="493"/>
			<point x="839" y="431"/>
			<point x="846" y="295" type="curve"/>
		</contour>
	</outline>
</glyph>
<glyph name="O_F" format="2">
	<advance width="1083"/>
	<unicode hex="F3810"/>
	<outline>
		<contour>
			<point x="369" y="704" type="curve" smooth="yes"/>
			<point x="168" y="704"/>
			<point x="49" y="555"/>
			<point x="49" y="345" type="curve" smooth="yes"/>
			<point x="49" y="137"/>
			<point x="168" y="-14"/>
			<point x="369" y="-14" type="curve" smooth="yes"/>
			<point x="562" y="-14"/>
			<point x="680" y="125"/>
			<point x="689" y="319" type="curve"/>
			<point x="1029" y="319" type="line"/>
			<point x="1029" y="371" type="line"/>
			<point x="690" y="371" type="line"/>
			<point x="690" y="639" type="line"/>
			<point x="1065" y="639" type="line"/>
			<point x="1065" y="690" type="line"/>
			<point x="628" y="690" type="line"/>
			<point x="628" y="573" type="line"/>
			<point x="574" y="655"/>
			<point x="485" y="704"/>
		</contour>
		<contour>
			<point x="118" y="345" type="curve" smooth="yes"/>
			<point x="118" y="539"/>
			<point x="221" y="654"/>
			<point x="369" y="654" type="curve" smooth="yes"/>
			<point x="518" y="654"/>
			<point x="621" y="539"/>
			<point x="621" y="345" type="curve" smooth="yes"/>
			<point x="621" y="152"/>
			<point x="518" y="36"/>
			<point x="369" y="36" type="curve" smooth="yes"/>
			<point x="221" y="36"/>
			<point x="118" y="152"/>
		</contour>
	</outline>
</glyph>
<glyph name="o_t_e" format="2">
	<advance width="1129"/>
	<unicode hex="F3950"/>
	<outline>
		<contour>
			<point x="287" y="543" type="curve" smooth="yes"/>
			<point x="119" y="543"/>
			<point x="30" y="420"/>
			<point x="30" y="264" type="curve" smooth="yes"/>
			<point x="30" y="109"/>
			<point x="119" y="-14"/>
			<point x="287" y="-14" type="curve" smooth="yes"/>
			<point x="374" y="-14"/>
			<point x="440" y="19"/>
			<point x="483" y="73" type="curve"/>
			<point x="489" y="17"/>
			<point x="520" y="-8"/>
			<point x="578" y="-8" type="curve" smooth="yes"/>
			<point x="599" y="-8"/>
			<point x="621" y="-7"/>
			<point x="642" y="-3" type="curve"/>
			<point x="642" y="43" type="line"/>
			<point x="571" y="34"/>
			<point x="549" y="47"/>
			<point x="545" y="98" type="curve" smooth="yes"/>
			<point x="544" y="112"/>
			<point x="544" y="123"/>
			<point x="544" y="145" type="curve" smooth="yes"/>
			<point x="544" y="477" type="line"/>
			<point x="1088" y="477" type="line"/>
			<point x="1090" y="493"/>
			<point x="1090" y="503"/>
			<point x="1090" y="510" type="curve" smooth="yes"/>
			<point x="1090" y="656"/>
			<point x="1013" y="774"/>
			<point x="865" y="774" type="curve" smooth="yes"/>
			<point x="734" y="774"/>
			<point x="633" y="678"/>
			<point x="621" y="525" type="curve"/>
			<point x="544" y="525" type="line"/>
			<point x="544" y="642" type="line"/>
			<point x="482" y="642" type="line"/>
			<point x="482" y="525" type="line"/>
			<point x="389" y="525" type="line"/>
			<point x="359" y="537"/>
			<point x="325" y="543"/>
		</contour>
		<contour>
			<point x="98" y="264" type="curve" smooth="yes"/>
			<point x="98" y="408"/>
			<point x="177" y="493"/>
			<point x="287" y="493" type="curve" smooth="yes"/>
			<point x="397" y="493"/>
			<point x="476" y="408"/>
			<point x="476" y="264" type="curve" smooth="yes"/>
			<point x="476" y="120"/>
			<point x="397" y="35"/>
			<point x="287" y="35" type="curve" smooth="yes"/>
			<point x="177" y="35"/>
			<point x="98" y="120"/>
		</contour>
		<contour>
			<point x="464" y="477" type="curve"/>
			<point x="482" y="477" type="line"/>
			<point x="482" y="458" type="line"/>
			<point x="476" y="465"/>
			<point x="471" y="471"/>
		</contour>
		<contour>
			<point x="687" y="526" type="line"/>
			<point x="696" y="658"/>
			<point x="776" y="724"/>
			<point x="863" y="724" type="curve" smooth="yes"/>
			<point x="952" y="724"/>
			<point x="1020" y="662"/>
			<point x="1027" y="526" type="curve"/>
		</contour>
	</outline>
</glyph>
<glyph name="o_idieresis" format="2">
	<advance width="619"/>
	<unicode hex="F3970"/>
	<outline>
		<contour>
			<point x="287" y="543" type="curve" smooth="yes"/>
			<point x="119" y="543"/>
			<point x="30" y="420"/>
			<point x="30" y="264" type="curve" smooth="yes"/>
			<point x="30" y="109"/>
			<point x="119" y="-14"/>
			<point x="287" y="-14" type="curve" smooth="yes"/>
			<point x="455" y="-14"/>
			<point x="544" y="109"/>
			<point x="544" y="264" type="curve" smooth="yes"/>
			<point x="544" y="529" type="line"/>
			<point x="482" y="529" type="line"/>
			<point x="482" y="458" type="line"/>
			<point x="439" y="511"/>
			<point x="373" y="543"/>
		</contour>
		<contour>
			<point x="98" y="264" type="curve" smooth="yes"/>
			<point x="98" y="408"/>
			<point x="177" y="493"/>
			<point x="287" y="493" type="curve" smooth="yes"/>
			<point x="397" y="493"/>
			<point x="476" y="408"/>
			<point x="476" y="264" type="curve" smooth="yes"/>
			<point x="476" y="120"/>
			<point x="397" y="35"/>
			<point x="287" y="35" type="curve" smooth="yes"/>
			<point x="177" y="35"/>
			<point x="98" y="120"/>
		</contour>
		<contour>
			<point x="419" y="598" type="line"/>
			<point x="491" y="598" type="line"/>
			<point x="491" y="670" type="line"/>
			<point x="419" y="670" type="line"/>
		</contour>
		<contour>
			<point x="533" y="598" type="line"/>
			<point x="605" y="598" type="line"/>
			<point x="605" y="670" type="line"/>
			<point x="533" y="670" type="line"/>
		</contour>
	</outline>
</glyph>
<glyph name="R_E" format="2">
	<advance width="827"/>
	<unicode hex="F4410"/>
	<outline>
		<contour>
			<point x="531" y="184" type="curve" smooth="yes"/>
			<point x="526" y="239"/>
			<point x="507" y="289"/>
			<point x="473" y="320" type="curve"/>
			<point x="761" y="319" type="line"/>
			<point x="761" y="371" type="line"/>
			<point x="500" y="372" type="line"/>
			<point x="539" y="400"/>
			<point x="566" y="445"/>
			<point x="566" y="507" type="curve" smooth="yes"/>
			<point x="566" y="566"/>
			<point x="546" y="609"/>
			<point x="513" y="639" type="curve"/>
			<point x="787" y="639" type="line"/>
			<point x="787" y="690" type="line"/>
			<point x="99" y="690" type="line"/>
			<point x="99" y="0" type="line"/>
			<point x="161" y="0" type="line"/>
			<point x="161" y="312" type="line"/>
			<point x="302" y="312" type="line" smooth="yes"/>
			<point x="318" y="312"/>
			<point x="338" y="312"/>
			<point x="356" y="311" type="curve" smooth="yes"/>
			<point x="430" y="307"/>
			<point x="460" y="250"/>
			<point x="469" y="177" type="curve" smooth="yes"/>
			<point x="479" y="87"/>
			<point x="491" y="44"/>
			<point x="508" y="0" type="curve"/>
			<point x="577" y="0" type="line"/>
			<point x="577" y="0"/>
			<point x="577" y="1"/>
			<point x="576" y="1" type="curve" smooth="yes"/>
			<point x="797" y="0" type="line"/>
			<point x="797" y="51" type="line"/>
			<point x="554" y="52" type="line"/>
			<point x="544" y="84"/>
			<point x="537" y="126"/>
		</contour>
		<contour>
			<point x="161" y="364" type="line"/>
			<point x="161" y="638" type="line"/>
			<point x="302" y="638" type="line" smooth="yes"/>
			<point x="335" y="638"/>
			<point x="357" y="637"/>
			<point x="381" y="634" type="curve" smooth="yes"/>
			<point x="456" y="623"/>
			<point x="499" y="583"/>
			<point x="499" y="502" type="curve" smooth="yes"/>
			<point x="499" y="421"/>
			<point x="449" y="372"/>
			<point x="373" y="366" type="curve" smooth="yes"/>
			<point x="350" y="364"/>
			<point x="333" y="364"/>
			<point x="303" y="364" type="curve" smooth="yes"/>
		</contour>
	</outline>
</glyph>
<glyph name="r_e" format="2">
	<advance width="736"/>
	<unicode hex="F4510"/>
	<outline>
		<contour>
			<point x="697" y="522" type="curve" smooth="yes"/>
			<point x="697" y="668"/>
			<point x="620" y="786"/>
			<point x="472" y="786" type="curve" smooth="yes"/>
			<point x="341" y="786"/>
			<point x="239" y="689"/>
			<point x="228" y="535" type="curve"/>
			<point x="207" y="529"/>
			<point x="188" y="517"/>
			<point x="173" y="501" type="curve"/>
			<point x="135" y="433" type="line"/>
			<point x="135" y="529" type="line"/>
			<point x="73" y="529" type="line"/>
			<point x="73" y="0" type="line"/>
			<point x="135" y="0" type="line"/>
			<point x="135" y="297" type="line" smooth="yes"/>
			<point x="135" y="401"/>
			<point x="172" y="459"/>
			<point x="228" y="480" type="curve"/>
			<point x="237" y="312"/>
			<point x="337" y="229"/>
			<point x="462" y="229" type="curve"/>
			<point x="466" y="278" type="line"/>
			<point x="380" y="278"/>
			<point x="301" y="333"/>
			<point x="294" y="488" type="curve"/>
			<point x="295" y="488" type="line"/>
			<point x="295" y="489" type="line"/>
			<point x="695" y="489" type="line"/>
			<point x="697" y="505"/>
			<point x="697" y="515"/>
		</contour>
		<contour>
			<point x="294" y="538" type="line"/>
			<point x="303" y="670"/>
			<point x="383" y="736"/>
			<point x="470" y="736" type="curve" smooth="yes"/>
			<point x="559" y="736"/>
			<point x="627" y="674"/>
			<point x="634" y="538" type="curve"/>
		</contour>
	</outline>
</glyph>
<glyph name="S_E" format="2">
	<advance width="938"/>
	<unicode hex="F4640"/>
	<outline>
		<contour>
			<point x="303" y="704" type="curve" smooth="yes"/>
			<point x="181" y="704"/>
			<point x="79" y="630"/>
			<point x="79" y="518" type="curve" smooth="yes"/>
			<point x="79" y="407"/>
			<point x="157" y="361"/>
			<point x="288" y="327" type="curve" smooth="yes"/>
			<point x="417" y="295"/>
			<point x="456" y="257"/>
			<point x="456" y="168" type="curve" smooth="yes"/>
			<point x="456" y="88"/>
			<point x="396" y="36"/>
			<point x="305" y="36" type="curve" smooth="yes"/>
			<point x="206" y="36"/>
			<point x="130" y="91"/>
			<point x="113" y="190" type="curve"/>
			<point x="47" y="190" type="line"/>
			<point x="62" y="57"/>
			<point x="163" y="-14"/>
			<point x="303" y="-14" type="curve" smooth="yes"/>
			<point x="368" y="-14"/>
			<point x="423" y="5"/>
			<point x="461" y="38" type="curve"/>
			<point x="461" y="-185" type="line"/>
			<point x="908" y="-185" type="line"/>
			<point x="908" y="-134" type="line"/>
			<point x="523" y="-134" type="line"/>
			<point x="523" y="134" type="line"/>
			<point x="872" y="134" type="line"/>
			<point x="872" y="186" type="line"/>
			<point x="523" y="186" type="line"/>
			<point x="523" y="454" type="line"/>
			<point x="898" y="454" type="line"/>
			<point x="898" y="505" type="line"/>
			<point x="526" y="505" type="line"/>
			<point x="522" y="617"/>
			<point x="441" y="704"/>
		</contour>
		<contour>
			<point x="146" y="531" type="curve" smooth="yes"/>
			<point x="146" y="613"/>
			<point x="219" y="654"/>
			<point x="298" y="654" type="curve" smooth="yes"/>
			<point x="389" y="654"/>
			<point x="458" y="599"/>
			<point x="461" y="505" type="curve" smooth="yes"/>
			<point x="461" y="321" type="line"/>
			<point x="427" y="349"/>
			<point x="379" y="369"/>
			<point x="313" y="386" type="curve" smooth="yes"/>
			<point x="195" y="416"/>
			<point x="146" y="447"/>
		</contour>
	</outline>
</glyph>
<glyph name="S_S_E" format="2">
	<advance width="1352"/>
	<unicode hex="F46A0"/>
	<outline>
		<contour>
			<point x="303" y="704" type="curve" smooth="yes"/>
			<point x="181" y="704"/>
			<point x="79" y="630"/>
			<point x="79" y="518" type="curve" smooth="yes"/>
			<point x="79" y="407"/>
			<point x="157" y="361"/>
			<point x="288" y="327" type="curve" smooth="yes"/>
			<point x="417" y="295"/>
			<point x="469" y="257"/>
			<point x="469" y="168" type="curve" smooth="yes"/>
			<point x="469" y="88"/>
			<point x="396" y="36"/>
			<point x="305" y="36" type="curve" smooth="yes"/>
			<point x="206" y="36"/>
			<point x="130" y="91"/>
			<point x="113" y="190" type="curve"/>
			<point x="47" y="190" type="line"/>
			<point x="62" y="57"/>
			<point x="163" y="-14"/>
			<point x="303" y="-14" type="curve" smooth="yes"/>
			<point x="435" y="-14"/>
			<point x="535" y="64"/>
			<point x="535" y="178" type="curve" smooth="yes"/>
			<point x="535" y="292"/>
			<point x="461" y="348"/>
			<point x="313" y="386" type="curve" smooth="yes"/>
			<point x="195" y="416"/>
			<point x="146" y="447"/>
			<point x="146" y="531" type="curve" smooth="yes"/>
			<point x="146" y="613"/>
			<point x="219" y="654"/>
			<point x="298" y="654" type="curve" smooth="yes"/>
			<point x="389" y="654"/>
			<point x="449" y="599"/>
			<point x="461" y="505" type="curve" smooth="yes"/>
			<point x="476" y="372"/>
			<point x="577" y="301"/>
			<point x="717" y="301" type="curve" smooth="yes"/>
			<point x="782" y="301"/>
			<point x="837" y="320"/>
			<point x="875" y="353" type="curve"/>
			<point x="875" y="130" type="line"/>
			<point x="1322" y="130" type="line"/>
			<point x="1322" y="181" type="line"/>
			<point x="937" y="181" type="line"/>
			<point x="937" y="449" type="line"/>
			<point x="1286" y="449" type="line"/>
			<point x="1286" y="501" type="line"/>
			<point x="937" y="501" type="line"/>
			<point x="937" y="769" type="line"/>
			<point x="1312" y="769" type="line"/>
			<point x="1312" y="820" type="line"/>
			<point x="940" y="820" type="line"/>
			<point x="936" y="932"/>
			<point x="855" y="1019"/>
			<point x="717" y="1019" type="curve" smooth="yes"/>
			<point x="595" y="1019"/>
			<point x="493" y="945"/>
			<point x="493" y="833" type="curve" smooth="yes"/>
			<point x="493" y="722"/>
			<point x="571" y="676"/>
			<point x="702" y="642" type="curve" smooth="yes"/>
			<point x="831" y="610"/>
			<point x="870" y="572"/>
			<point x="870" y="483" type="curve" smooth="yes"/>
			<point x="870" y="403"/>
			<point x="810" y="351"/>
			<point x="719" y="351" type="curve" smooth="yes"/>
			<point x="620" y="351"/>
			<point x="543" y="406"/>
			<point x="526" y="505" type="curve"/>
			<point x="513" y="617"/>
			<point x="441" y="704"/>
		</contour>
		<contour>
			<point x="560" y="846" type="curve" smooth="yes"/>
			<point x="560" y="928"/>
			<point x="633" y="969"/>
			<point x="712" y="969" type="curve" smooth="yes"/>
			<point x="803" y="969"/>
			<point x="875" y="914"/>
			<point x="875" y="820" type="curve" smooth="yes"/>
			<point x="875" y="636" type="line"/>
			<point x="841" y="664"/>
			<point x="793" y="684"/>
			<point x="727" y="701" type="curve" smooth="yes"/>
			<point x="609" y="731"/>
			<point x="560" y="762"/>
		</contour>
	</outline>
</glyph>
<glyph name="s_l" format="2">
	<advance width="497"/>
	<unicode hex="F4760"/>
	<outline>
		<contour>
			<point x="223" y="543" type="curve" smooth="yes"/>
			<point x="119" y="543"/>
			<point x="47" y="483"/>
			<point x="47" y="392" type="curve" smooth="yes"/>
			<point x="47" y="301"/>
			<point x="122" y="264"/>
			<point x="213" y="240" type="curve" smooth="yes"/>
			<point x="316" y="215"/>
			<point x="354" y="186"/>
			<point x="354" y="127" type="curve" smooth="yes"/>
			<point x="354" y="66"/>
			<point x="299" y="35"/>
			<point x="232" y="35" type="curve" smooth="yes"/>
			<point x="161" y="35"/>
			<point x="104" y="66"/>
			<point x="89" y="156" type="curve"/>
			<point x="25" y="156" type="line"/>
			<point x="40" y="36"/>
			<point x="123" y="-14"/>
			<point x="228" y="-14" type="curve" smooth="yes"/>
			<point x="337" y="-14"/>
			<point x="417" y="38"/>
			<point x="417" y="132" type="curve" smooth="yes"/>
			<point x="417" y="221"/>
			<point x="359" y="265"/>
			<point x="237" y="295" type="curve" smooth="yes"/>
			<point x="161" y="314"/>
			<point x="111" y="338"/>
			<point x="111" y="399" type="curve" smooth="yes"/>
			<point x="111" y="457"/>
			<point x="154" y="493"/>
			<point x="218" y="493" type="curve" smooth="yes"/>
			<point x="289" y="493"/>
			<point x="344" y="454"/>
			<point x="347" y="381" type="curve" smooth="yes"/>
			<point x="347" y="363"/>
			<point x="347" y="349"/>
			<point x="348" y="337" type="curve" smooth="yes"/>
			<point x="351" y="280"/>
			<point x="382" y="266"/>
			<point x="423" y="266" type="curve" smooth="yes"/>
			<point x="439" y="266"/>
			<point x="456" y="266"/>
			<point x="472" y="269" type="curve"/>
			<point x="472" y="315" type="line"/>
			<point x="427" y="310"/>
			<point x="412" y="319"/>
			<point x="410" y="353" type="curve" smooth="yes"/>
			<point x="409" y="369"/>
			<point x="409" y="387"/>
			<point x="409" y="410" type="curve" smooth="yes"/>
			<point x="409" y="855" type="line"/>
			<point x="347" y="855" type="line"/>
			<point x="347" y="507" type="line"/>
			<point x="316" y="530"/>
			<point x="274" y="543"/>
		</contour>
	</outline>
</glyph>
<glyph name="s_t_e_s" format="2">
	<advance width="1403"/>
	<unicode hex="F47E0"/>
	<outline>
		<contour>
			<point x="223" y="543" type="curve" smooth="yes"/>
			<point x="119" y="543"/>
			<point x="47" y="483"/>
			<point x="47" y="392" type="curve" smooth="yes"/>
			<point x="47" y="301"/>
			<point x="122" y="264"/>
			<point x="213" y="240" type="curve" smooth="yes"/>
			<point x="316" y="215"/>
			<point x="354" y="186"/>
			<point x="354" y="127" type="curve" smooth="yes"/>
			<point x="354" y="66"/>
			<point x="299" y="35"/>
			<point x="232" y="35" type="curve" smooth="yes"/>
			<point x="161" y="35"/>
			<point x="104" y="66"/>
			<point x="89" y="156" type="curve"/>
			<point x="25" y="156" type="line"/>
			<point x="40" y="36"/>
			<point x="123" y="-14"/>
			<point x="228" y="-14" type="curve" smooth="yes"/>
			<point x="337" y="-14"/>
			<point x="417" y="38"/>
			<point x="417" y="132" type="curve" smooth="yes"/>
			<point x="417" y="221"/>
			<point x="359" y="265"/>
			<point x="237" y="295" type="curve" smooth="yes"/>
			<point x="161" y="314"/>
			<point x="111" y="338"/>
			<point x="111" y="399" type="curve" smooth="yes"/>
			<point x="111" y="457"/>
			<point x="154" y="493"/>
			<point x="218" y="493" type="curve" smooth="yes"/>
			<point x="289" y="493"/>
			<point x="332" y="454"/>
			<point x="347" y="381" type="curve"/>
			<point x="448" y="381" type="line"/>
			<point x="448" y="48" type="line" smooth="yes"/>
			<point x="448" y="18"/>
			<point x="448" y="-2"/>
			<point x="449" y="-20" type="curve" smooth="yes"/>
			<point x="454" y="-78"/>
			<point x="485" y="-104"/>
			<point x="544" y="-104" type="curve" smooth="yes"/>
			<point x="565" y="-104"/>
			<point x="587" y="-103"/>
			<point x="608" y="-99" type="curve"/>
			<point x="608" y="-53" type="line"/>
			<point x="537" y="-62"/>
			<point x="515" y="-49"/>
			<point x="511" y="2" type="curve" smooth="yes"/>
			<point x="510" y="16"/>
			<point x="510" y="27"/>
			<point x="510" y="49" type="curve" smooth="yes"/>
			<point x="510" y="381" type="line"/>
			<point x="1001" y="380" type="line"/>
			<point x="1034" y="312"/>
			<point x="1101" y="283"/>
			<point x="1181" y="283" type="curve" smooth="yes"/>
			<point x="1290" y="283"/>
			<point x="1370" y="335"/>
			<point x="1370" y="429" type="curve" smooth="yes"/>
			<point x="1370" y="518"/>
			<point x="1312" y="562"/>
			<point x="1190" y="592" type="curve" smooth="yes"/>
			<point x="1114" y="611"/>
			<point x="1064" y="635"/>
			<point x="1064" y="696" type="curve" smooth="yes"/>
			<point x="1064" y="754"/>
			<point x="1107" y="790"/>
			<point x="1171" y="790" type="curve" smooth="yes"/>
			<point x="1242" y="790"/>
			<point x="1285" y="751"/>
			<point x="1300" y="678" type="curve"/>
			<point x="1365" y="678" type="line"/>
			<point x="1353" y="771"/>
			<point x="1291" y="840"/>
			<point x="1176" y="840" type="curve" smooth="yes"/>
			<point x="1072" y="840"/>
			<point x="1000" y="780"/>
			<point x="1000" y="689" type="curve" smooth="yes"/>
			<point x="1000" y="598"/>
			<point x="1075" y="561"/>
			<point x="1166" y="537" type="curve" smooth="yes"/>
			<point x="1269" y="512"/>
			<point x="1307" y="483"/>
			<point x="1307" y="424" type="curve" smooth="yes"/>
			<point x="1307" y="363"/>
			<point x="1252" y="332"/>
			<point x="1185" y="332" type="curve" smooth="yes"/>
			<point x="1114" y="332"/>
			<point x="1057" y="363"/>
			<point x="1042" y="453" type="curve"/>
			<point x="1029" y="580"/>
			<point x="953" y="677"/>
			<point x="819" y="677" type="curve" smooth="yes"/>
			<point x="689" y="677"/>
			<point x="587" y="581"/>
			<point x="575" y="429" type="curve"/>
			<point x="510" y="429" type="line"/>
			<point x="510" y="546" type="line"/>
			<point x="448" y="546" type="line"/>
			<point x="448" y="429" type="line"/>
			<point x="401" y="429" type="line"/>
			<point x="376" y="497"/>
			<point x="317" y="543"/>
		</contour>
		<contour>
			<point x="641" y="429" type="line"/>
			<point x="650" y="561"/>
			<point x="730" y="627"/>
			<point x="817" y="627" type="curve" smooth="yes"/>
			<point x="906" y="627"/>
			<point x="974" y="565"/>
			<point x="981" y="429" type="curve"/>
		</contour>
	</outline>
</glyph>
<glyph name="T_T_E" format="2">
	<advance width="1082"/>
	<unicode hex="F4880"/>
	<outline>
		<contour>
			<point x="348" y="639" type="line"/>
			<point x="605" y="639" type="line"/>
			<point x="605" y="-320" type="line"/>
			<point x="1052" y="-320" type="line"/>
			<point x="1052" y="-269" type="line"/>
			<point x="667" y="-269" type="line"/>
			<point x="667" y="-1" type="line"/>
			<point x="1016" y="-1" type="line"/>
			<point x="1016" y="51" type="line"/>
			<point x="667" y="51" type="line"/>
			<point x="667" y="319" type="line"/>
			<point x="1042" y="319" type="line"/>
			<point x="1042" y="370" type="line"/>
			<point x="667" y="370" type="line"/>
			<point x="667" y="639" type="line"/>
			<point x="920" y="639" type="line"/>
			<point x="920" y="690" type="line"/>
			<point x="33" y="690" type="line"/>
			<point x="33" y="639" type="line"/>
			<point x="286" y="639" type="line"/>
			<point x="286" y="0" type="line"/>
			<point x="348" y="0" type="line"/>
		</contour>
	</outline>
</glyph>
<glyph name="t_e" format="2">
	<advance width="734"/>
	<unicode hex="F4910"/>
	<outline>
		<contour>
			<point x="153" y="145" type="curve" smooth="yes"/>
			<point x="153" y="477" type="line"/>
			<point x="693" y="477" type="line"/>
			<point x="695" y="493"/>
			<point x="695" y="503"/>
			<point x="695" y="510" type="curve" smooth="yes"/>
			<point x="695" y="656"/>
			<point x="618" y="774"/>
			<point x="470" y="774" type="curve" smooth="yes"/>
			<point x="339" y="774"/>
			<point x="238" y="678"/>
			<point x="226" y="525" type="curve"/>
			<point x="153" y="525" type="line"/>
			<point x="153" y="642" type="line"/>
			<point x="91" y="642" type="line"/>
			<point x="91" y="525" type="line"/>
			<point x="23" y="525" type="line"/>
			<point x="23" y="477" type="line"/>
			<point x="91" y="477" type="line"/>
			<point x="91" y="144" type="line" smooth="yes"/>
			<point x="91" y="114"/>
			<point x="91" y="94"/>
			<point x="92" y="76" type="curve" smooth="yes"/>
			<point x="97" y="18"/>
			<point x="128" y="-8"/>
			<point x="187" y="-8" type="curve" smooth="yes"/>
			<point x="208" y="-8"/>
			<point x="230" y="-7"/>
			<point x="251" y="-3" type="curve"/>
			<point x="251" y="43" type="line"/>
			<point x="180" y="34"/>
			<point x="158" y="47"/>
			<point x="154" y="98" type="curve" smooth="yes"/>
			<point x="153" y="112"/>
			<point x="153" y="123"/>
		</contour>
		<contour>
			<point x="292" y="526" type="line"/>
			<point x="301" y="658"/>
			<point x="381" y="724"/>
			<point x="468" y="724" type="curve" smooth="yes"/>
			<point x="557" y="724"/>
			<point x="625" y="662"/>
			<point x="632" y="526" type="curve"/>
		</contour>
	</outline>
</glyph>
<glyph name="t_t_e" format="2">
	<advance width="949"/>
	<unicode hex="F4980"/>
	<outline>
		<contour>
			<point x="153" y="145" type="curve" smooth="yes"/>
			<point x="153" y="477" type="line"/>
			<point x="306" y="477" type="line"/>
			<point x="306" y="144" type="line" smooth="yes"/>
			<point x="306" y="114"/>
			<point x="306" y="94"/>
			<point x="307" y="76" type="curve" smooth="yes"/>
			<point x="312" y="18"/>
			<point x="343" y="-8"/>
			<point x="402" y="-8" type="curve" smooth="yes"/>
			<point x="423" y="-8"/>
			<point x="445" y="-7"/>
			<point x="466" y="-3" type="curve"/>
			<point x="466" y="43" type="line"/>
			<point x="395" y="34"/>
			<point x="373" y="47"/>
			<point x="369" y="98" type="curve" smooth="yes"/>
			<point x="368" y="112"/>
			<point x="368" y="123"/>
			<point x="368" y="145" type="curve" smooth="yes"/>
			<point x="368" y="477" type="line"/>
			<point x="908" y="477" type="line"/>
			<point x="910" y="493"/>
			<point x="910" y="503"/>
			<point x="910" y="510" type="curve" smooth="yes"/>
			<point x="910" y="656"/>
			<point x="833" y="774"/>
			<point x="685" y="774" type="curve" smooth="yes"/>
			<point x="554" y="774"/>
			<point x="453" y="678"/>
			<point x="441" y="525" type="curve"/>
			<point x="368" y="525" type="line"/>
			<point x="368" y="642" type="line"/>
			<point x="306" y="642" type="line"/>
			<point x="306" y="525" type="line"/>
			<point x="153" y="525" type="line"/>
			<point x="153" y="642" type="line"/>
			<point x="91" y="642" type="line"/>
			<point x="91" y="525" type="line"/>
			<point x="23" y="525" type="line"/>
			<point x="23" y="477" type="line"/>
			<point x="91" y="477" type="line"/>
			<point x="91" y="144" type="line" smooth="yes"/>
			<point x="91" y="114"/>
			<point x="91" y="94"/>
			<point x="92" y="76" type="curve" smooth="yes"/>
			<point x="97" y="18"/>
			<point x="128" y="-8"/>
			<point x="187" y="-8" type="curve" smooth="yes"/>
			<point x="208" y="-8"/>
			<point x="230" y="-7"/>
			<point x="251" y="-3" type="curve"/>
			<point x="251" y="43" type="line"/>
			<point x="180" y="34"/>
			<point x="158" y="47"/>
			<point x="154" y="98" type="curve" smooth="yes"/>
			<point x="153" y="112"/>
			<point x="153" y="123"/>
		</contour>
		<contour>
			<point x="507" y="526" type="line"/>
			<point x="516" y="658"/>
			<point x="596" y="724"/>
			<point x="683" y="724" type="curve" smooth="yes"/>
			<point x="772" y="724"/>
			<point x="840" y="662"/>
			<point x="847" y="526" type="curve"/>
		</contour>
	</outline>
</glyph>
<glyph name="U_E" format="2">
	<advance width="998"/>
	<unicode hex="F5010"/>
	<outline>
		<contour>
			<point x="583" y="234" type="line"/>
			<point x="583" y="502" type="line"/>
			<point x="932" y="502" type="line"/>
			<point x="932" y="554" type="line"/>
			<point x="583" y="554" type="line"/>
			<point x="583" y="822" type="line"/>
			<point x="958" y="822" type="line"/>
			<point x="958" y="873" type="line"/>
			<point x="521" y="873" type="line"/>
			<point x="521" y="250" type="line" smooth="yes"/>
			<point x="521" y="228"/>
			<point x="520" y="208"/>
			<point x="518" y="189" type="curve" smooth="yes"/>
			<point x="510" y="102"/>
			<point x="453" y="36"/>
			<point x="338" y="36" type="curve" smooth="yes"/>
			<point x="222" y="36"/>
			<point x="165" y="102"/>
			<point x="157" y="189" type="curve" smooth="yes"/>
			<point x="155" y="208"/>
			<point x="155" y="228"/>
			<point x="155" y="250" type="curve" smooth="yes"/>
			<point x="155" y="690" type="line"/>
			<point x="93" y="690" type="line"/>
			<point x="93" y="247" type="line" smooth="yes"/>
			<point x="93" y="227"/>
			<point x="93" y="207"/>
			<point x="95" y="183" type="curve" smooth="yes"/>
			<point x="104" y="71"/>
			<point x="180" y="-14"/>
			<point x="338" y="-14" type="curve" smooth="yes"/>
			<point x="495" y="-14"/>
			<point x="572" y="71"/>
			<point x="580" y="183" type="curve"/>
			<point x="968" y="183" type="line"/>
			<point x="968" y="234" type="line"/>
		</contour>
	</outline>
</glyph>
